<?xml version="1.0" encoding="UTF-8" standalone="no"?>
<!DOCTYPE svg PUBLIC "-//W3C//DTD SVG 1.1//EN"
 "http://www.w3.org/Graphics/SVG/1.1/DTD/svg11.dtd">
<!-- Generated by graphviz version 11.0.0 (20240428.1522)
 -->
<!-- Title: G Pages: 1 -->
<svg width="1286pt" height="935pt"
 viewBox="0.00 0.00 1286.00 934.75" xmlns="http://www.w3.org/2000/svg" xmlns:xlink="http://www.w3.org/1999/xlink">
<g id="graph0" class="graph" transform="scale(1 1) rotate(0) translate(4 930.75)">
<title>G</title>
<polygon fill="white" stroke="none" points="-4,4 -4,-930.75 1282,-930.75 1282,4 -4,4"/>
<g id="clust1" class="cluster">
<title>cluster_1</title>
<polygon fill="#ffddff" stroke="#ffddff" points="50,-627 50,-918.75 384,-918.75 384,-627 50,-627"/>
<text text-anchor="middle" x="217" y="-901.45" font-family="Arial" font-size="14.00">Logs L1 Intake</text>
</g>
<g id="clust2" class="cluster">
<title>cluster_2</title>
<polygon fill="#ffddff" stroke="#ffddff" points="8,-311.5 8,-607 147,-607 147,-311.5 8,-311.5"/>
<text text-anchor="middle" x="77.5" y="-317.95" font-family="Arial" font-size="14.00">Logs L1 CardinalHQ</text>
</g>
<g id="clust3" class="cluster">
<title>cluster_3</title>
<polygon fill="#ffddff" stroke="#ffddff" points="155,-311.5 155,-607 275,-607 275,-311.5 155,-311.5"/>
<text text-anchor="middle" x="215" y="-317.95" font-family="Arial" font-size="14.00">Logs L1 Datadog</text>
</g>
<g id="clust4" class="cluster">
<title>cluster_4</title>
<polygon fill="#ffddff" stroke="#ffddff" points="283,-459.25 283,-607 422,-607 422,-459.25 283,-459.25"/>
<text text-anchor="middle" x="352.5" y="-465.7" font-family="Arial" font-size="14.00">Logs L1 Intake Stats</text>
</g>
<g id="clust5" class="cluster">
<title>cluster_100</title>
<polygon fill="#ffffbb" stroke="#ffffbb" points="513,-699 513,-918.75 677,-918.75 677,-699 513,-699"/>
<text text-anchor="middle" x="595" y="-901.45" font-family="Arial" font-size="14.00">Metrics L1 Intake</text>
</g>
<g id="clust6" class="cluster">
<title>cluster_200</title>
<polygon fill="#ffffbb" stroke="#ffffbb" points="430,-311.5 430,-679 764,-679 764,-311.5 430,-311.5"/>
<text text-anchor="middle" x="597" y="-317.95" font-family="Arial" font-size="14.00">Metrics L2 Intake</text>
</g>
<g id="clust7" class="cluster">
<title>cluster_201</title>
<polygon fill="#ffffbb" stroke="#ffffbb" points="366,-8 366,-303.5 520,-303.5 520,-8 366,-8"/>
<text text-anchor="middle" x="443" y="-14.45" font-family="Arial" font-size="14.00">Metrics L2 CardinalHQ</text>
</g>
<g id="clust8" class="cluster">
<title>cluster_202</title>
<polygon fill="#ffffbb" stroke="#ffffbb" points="528,-8 528,-303.5 661,-303.5 661,-8 528,-8"/>
<text text-anchor="middle" x="594.5" y="-14.45" font-family="Arial" font-size="14.00">Metrics L2 Datadog</text>
</g>
<g id="clust9" class="cluster">
<title>cluster_203</title>
<polygon fill="#ffffbb" stroke="#ffffbb" points="669,-155.75 669,-303.5 823,-303.5 823,-155.75 669,-155.75"/>
<text text-anchor="middle" x="746" y="-162.2" font-family="Arial" font-size="14.00">Metrics L2 Intake Stats</text>
</g>
<g id="clust10" class="cluster">
<title>cluster_300</title>
<polygon fill="#ddffff" stroke="#ddffff" points="968,-699 968,-918.75 1132,-918.75 1132,-699 968,-699"/>
<text text-anchor="middle" x="1050" y="-901.45" font-family="Arial" font-size="14.00">Spans L1 Intake</text>
</g>
<g id="clust11" class="cluster">
<title>cluster_400</title>
<polygon fill="#ddffff" stroke="#ddffff" points="885,-311.5 885,-679 1219,-679 1219,-311.5 885,-311.5"/>
<text text-anchor="middle" x="1052" y="-317.95" font-family="Arial" font-size="14.00">Spans L2 Intake</text>
</g>
<g id="clust12" class="cluster">
<title>cluster_401</title>
<polygon fill="#ddffff" stroke="#ddffff" points="831,-8 831,-303.5 979,-303.5 979,-8 831,-8"/>
<text text-anchor="middle" x="905" y="-14.45" font-family="Arial" font-size="14.00">Spans L2 CardinalHQ</text>
</g>
<g id="clust13" class="cluster">
<title>cluster_402</title>
<polygon fill="#ddffff" stroke="#ddffff" points="987,-8 987,-303.5 1114,-303.5 1114,-8 987,-8"/>
<text text-anchor="middle" x="1050.5" y="-14.45" font-family="Arial" font-size="14.00">Spans L2 Datadog</text>
</g>
<g id="clust14" class="cluster">
<title>cluster_403</title>
<polygon fill="#ddffff" stroke="#ddffff" points="1122,-155.75 1122,-303.5 1270,-303.5 1270,-155.75 1122,-155.75"/>
<text text-anchor="middle" x="1196" y="-162.2" font-family="Arial" font-size="14.00">Spans L2 Intake Stats</text>
</g>
<!-- c1_receiver_otlp -->
<g id="node1" class="node">
<title>c1_receiver_otlp</title>
<polygon fill="#ddddff" stroke="#ddddff" points="200,-887 146,-887 146,-851 200,-851 200,-887"/>
<text text-anchor="middle" x="173" y="-865.5" font-family="Arial" font-size="10.00">otlp/l1</text>
</g>
<!-- c1_memory_limiter -->
<g id="node3" class="node">
<title>c1_memory_limiter</title>
<polygon fill="#ddffdd" stroke="#ddffdd" points="256.38,-815 173.62,-815 173.62,-779 256.38,-779 256.38,-815"/>
<text text-anchor="middle" x="215" y="-793.5" font-family="Arial" font-size="10.00">memory_limiter</text>
</g>
<!-- c1_receiver_otlp&#45;&gt;c1_memory_limiter -->
<g id="edge2" class="edge">
<title>c1_receiver_otlp&#45;&gt;c1_memory_limiter</title>
<path fill="none" stroke="black" d="M183.38,-850.7C188.06,-842.9 193.69,-833.51 198.9,-824.83"/>
<polygon fill="black" stroke="black" points="201.81,-826.78 203.96,-816.4 195.81,-823.18 201.81,-826.78"/>
</g>
<!-- c1_receiver_datadog -->
<g id="node2" class="node">
<title>c1_receiver_datadog</title>
<polygon fill="#ddddff" stroke="#ddddff" points="294.38,-887 217.62,-887 217.62,-851 294.38,-851 294.38,-887"/>
<text text-anchor="middle" x="256" y="-865.5" font-family="Arial" font-size="10.00">chqdatadog/l1</text>
</g>
<!-- c1_receiver_datadog&#45;&gt;c1_memory_limiter -->
<g id="edge1" class="edge">
<title>c1_receiver_datadog&#45;&gt;c1_memory_limiter</title>
<path fill="none" stroke="black" d="M245.87,-850.7C241.3,-842.9 235.8,-833.51 230.71,-824.83"/>
<polygon fill="black" stroke="black" points="233.86,-823.27 225.78,-816.41 227.82,-826.81 233.86,-823.27"/>
</g>
<!-- c1_chqdecorator -->
<g id="node4" class="node">
<title>c1_chqdecorator</title>
<polygon fill="#ddffdd" stroke="#ddffdd" points="251.12,-743 178.88,-743 178.88,-707 251.12,-707 251.12,-743"/>
<text text-anchor="middle" x="215" y="-721.5" font-family="Arial" font-size="10.00">chqdecorator</text>
</g>
<!-- c1_memory_limiter&#45;&gt;c1_chqdecorator -->
<g id="edge3" class="edge">
<title>c1_memory_limiter&#45;&gt;c1_chqdecorator</title>
<path fill="none" stroke="red" d="M215,-778.7C215,-771.41 215,-762.73 215,-754.54"/>
<polygon fill="red" stroke="red" points="218.5,-754.62 215,-744.62 211.5,-754.62 218.5,-754.62"/>
</g>
<!-- c1_forwarder_cardinalhq -->
<g id="node5" class="node">
<title>c1_forwarder_cardinalhq</title>
<polygon fill="#ffdddd" stroke="#ffdddd" points="153.75,-671 58.25,-671 58.25,-635 153.75,-635 153.75,-671"/>
<text text-anchor="middle" x="106" y="-649.5" font-family="Arial" font-size="10.00">forward/cardinalhq</text>
</g>
<!-- c1_chqdecorator&#45;&gt;c1_forwarder_cardinalhq -->
<g id="edge5" class="edge">
<title>c1_chqdecorator&#45;&gt;c1_forwarder_cardinalhq</title>
<path fill="none" stroke="black" d="M187.78,-706.52C174.02,-697.68 157.13,-686.84 142.29,-677.3"/>
<polygon fill="black" stroke="black" points="144.46,-674.54 134.15,-672.08 140.67,-680.43 144.46,-674.54"/>
</g>
<!-- c1_forwarder_datadog -->
<g id="node6" class="node">
<title>c1_forwarder_datadog</title>
<polygon fill="#ffdddd" stroke="#ffdddd" points="257.88,-671 172.12,-671 172.12,-635 257.88,-635 257.88,-671"/>
<text text-anchor="middle" x="215" y="-649.5" font-family="Arial" font-size="10.00">forward/datadog</text>
</g>
<!-- c1_chqdecorator&#45;&gt;c1_forwarder_datadog -->
<g id="edge4" class="edge">
<title>c1_chqdecorator&#45;&gt;c1_forwarder_datadog</title>
<path fill="none" stroke="black" d="M215,-706.7C215,-699.41 215,-690.73 215,-682.54"/>
<polygon fill="black" stroke="black" points="218.5,-682.62 215,-672.62 211.5,-682.62 218.5,-682.62"/>
</g>
<!-- c1_forwarder_stats -->
<g id="node7" class="node">
<title>c1_forwarder_stats</title>
<polygon fill="#ffdddd" stroke="#ffdddd" points="375.62,-671 276.38,-671 276.38,-635 375.62,-635 375.62,-671"/>
<text text-anchor="middle" x="326" y="-649.5" font-family="Arial" font-size="10.00">forward/intakestats</text>
</g>
<!-- c1_chqdecorator&#45;&gt;c1_forwarder_stats -->
<g id="edge6" class="edge">
<title>c1_chqdecorator&#45;&gt;c1_forwarder_stats</title>
<path fill="none" stroke="black" d="M242.72,-706.52C256.74,-697.68 273.93,-686.84 289.05,-677.3"/>
<polygon fill="black" stroke="black" points="290.76,-680.36 297.35,-672.07 287.02,-674.44 290.76,-680.36"/>
</g>
<!-- c2_forwarder_cardinalhq -->
<g id="node8" class="node">
<title>c2_forwarder_cardinalhq</title>
<polygon fill="#ddddff" stroke="#ddddff" points="133.75,-599 38.25,-599 38.25,-563 133.75,-563 133.75,-599"/>
<text text-anchor="middle" x="86" y="-577.5" font-family="Arial" font-size="10.00">forward/cardinalhq</text>
</g>
<!-- c1_forwarder_cardinalhq&#45;&gt;c2_forwarder_cardinalhq -->
<g id="edge7" class="edge">
<title>c1_forwarder_cardinalhq&#45;&gt;c2_forwarder_cardinalhq</title>
<path fill="none" stroke="black" stroke-dasharray="5,2" d="M101.06,-634.7C98.92,-627.24 96.38,-618.32 93.99,-609.97"/>
<polygon fill="black" stroke="black" points="97.42,-609.21 91.3,-600.56 90.68,-611.14 97.42,-609.21"/>
</g>
<!-- c3_forwarder_datadog -->
<g id="node12" class="node">
<title>c3_forwarder_datadog</title>
<polygon fill="#ddddff" stroke="#ddddff" points="257.88,-599 172.12,-599 172.12,-563 257.88,-563 257.88,-599"/>
<text text-anchor="middle" x="215" y="-577.5" font-family="Arial" font-size="10.00">forward/datadog</text>
</g>
<!-- c1_forwarder_datadog&#45;&gt;c3_forwarder_datadog -->
<g id="edge11" class="edge">
<title>c1_forwarder_datadog&#45;&gt;c3_forwarder_datadog</title>
<path fill="none" stroke="black" stroke-dasharray="5,2" d="M215,-634.7C215,-627.41 215,-618.73 215,-610.54"/>
<polygon fill="black" stroke="black" points="218.5,-610.62 215,-600.62 211.5,-610.62 218.5,-610.62"/>
</g>
<!-- c4_forwarder_stats -->
<g id="node16" class="node">
<title>c4_forwarder_stats</title>
<polygon fill="#ddddff" stroke="#ddddff" points="394.62,-599 295.38,-599 295.38,-563 394.62,-563 394.62,-599"/>
<text text-anchor="middle" x="345" y="-577.5" font-family="Arial" font-size="10.00">forward/intakestats</text>
</g>
<!-- c1_forwarder_stats&#45;&gt;c4_forwarder_stats -->
<g id="edge15" class="edge">
<title>c1_forwarder_stats&#45;&gt;c4_forwarder_stats</title>
<path fill="none" stroke="black" stroke-dasharray="5,2" d="M330.7,-634.7C332.72,-627.24 335.14,-618.32 337.41,-609.97"/>
<polygon fill="black" stroke="black" points="340.72,-611.13 339.96,-600.57 333.96,-609.3 340.72,-611.13"/>
</g>
<!-- c2_chqenforcer_cardinalhq -->
<g id="node9" class="node">
<title>c2_chqenforcer_cardinalhq</title>
<polygon fill="#ddffdd" stroke="#ddffdd" points="139.12,-527 24.87,-527 24.87,-491 139.12,-491 139.12,-527"/>
<text text-anchor="middle" x="82" y="-505.5" font-family="Arial" font-size="10.00">chqenforcer/cardinalhq</text>
</g>
<!-- c2_forwarder_cardinalhq&#45;&gt;c2_chqenforcer_cardinalhq -->
<g id="edge8" class="edge">
<title>c2_forwarder_cardinalhq&#45;&gt;c2_chqenforcer_cardinalhq</title>
<path fill="none" stroke="red" d="M85.01,-562.7C84.59,-555.41 84.1,-546.73 83.63,-538.54"/>
<polygon fill="red" stroke="red" points="87.13,-538.4 83.06,-528.62 80.14,-538.8 87.13,-538.4"/>
</g>
<!-- c2_batcher_cardinalhq -->
<g id="node10" class="node">
<title>c2_batcher_cardinalhq</title>
<polygon fill="#ddffdd" stroke="#ddffdd" points="125.62,-451.25 38.38,-451.25 38.38,-415.25 125.62,-415.25 125.62,-451.25"/>
<text text-anchor="middle" x="82" y="-429.75" font-family="Arial" font-size="10.00">batch/cardinalhq</text>
</g>
<!-- c2_chqenforcer_cardinalhq&#45;&gt;c2_batcher_cardinalhq -->
<g id="edge9" class="edge">
<title>c2_chqenforcer_cardinalhq&#45;&gt;c2_batcher_cardinalhq</title>
<path fill="none" stroke="red" d="M82,-490.52C82,-482.26 82,-472.17 82,-462.84"/>
<polygon fill="red" stroke="red" points="85.5,-463.12 82,-453.12 78.5,-463.12 85.5,-463.12"/>
</g>
<!-- c2_otlp_cardinalhq -->
<g id="node11" class="node">
<title>c2_otlp_cardinalhq</title>
<polygon fill="#ffdddd" stroke="#ffdddd" points="121.5,-379.25 42.5,-379.25 42.5,-343.25 121.5,-343.25 121.5,-379.25"/>
<text text-anchor="middle" x="82" y="-357.75" font-family="Arial" font-size="10.00">otlp/cardinalhq</text>
</g>
<!-- c2_batcher_cardinalhq&#45;&gt;c2_otlp_cardinalhq -->
<g id="edge10" class="edge">
<title>c2_batcher_cardinalhq&#45;&gt;c2_otlp_cardinalhq</title>
<path fill="none" stroke="black" d="M82,-414.95C82,-407.66 82,-398.98 82,-390.79"/>
<polygon fill="black" stroke="black" points="85.5,-390.87 82,-380.87 78.5,-390.87 85.5,-390.87"/>
</g>
<!-- c3_chqenforcer_datadog -->
<g id="node13" class="node">
<title>c3_chqenforcer_datadog</title>
<polygon fill="#ddffdd" stroke="#ddffdd" points="267.25,-527 162.75,-527 162.75,-491 267.25,-491 267.25,-527"/>
<text text-anchor="middle" x="215" y="-505.5" font-family="Arial" font-size="10.00">chqenforcer/datadog</text>
</g>
<!-- c3_forwarder_datadog&#45;&gt;c3_chqenforcer_datadog -->
<g id="edge12" class="edge">
<title>c3_forwarder_datadog&#45;&gt;c3_chqenforcer_datadog</title>
<path fill="none" stroke="red" d="M215,-562.7C215,-555.41 215,-546.73 215,-538.54"/>
<polygon fill="red" stroke="red" points="218.5,-538.62 215,-528.62 211.5,-538.62 218.5,-538.62"/>
</g>
<!-- c3_batcher_datadog -->
<g id="node14" class="node">
<title>c3_batcher_datadog</title>
<polygon fill="#ddffdd" stroke="#ddffdd" points="257.88,-451.25 172.12,-451.25 172.12,-415.25 257.88,-415.25 257.88,-451.25"/>
<text text-anchor="middle" x="215" y="-429.75" font-family="Arial" font-size="10.00">batcher/datadog</text>
</g>
<!-- c3_chqenforcer_datadog&#45;&gt;c3_batcher_datadog -->
<g id="edge13" class="edge">
<title>c3_chqenforcer_datadog&#45;&gt;c3_batcher_datadog</title>
<path fill="none" stroke="red" d="M215,-490.52C215,-482.26 215,-472.17 215,-462.84"/>
<polygon fill="red" stroke="red" points="218.5,-463.12 215,-453.12 211.5,-463.12 218.5,-463.12"/>
</g>
<!-- c3_chqdatadog_datadog -->
<g id="node15" class="node">
<title>c3_chqdatadog_datadog</title>
<polygon fill="#ffdddd" stroke="#ffdddd" points="266.88,-379.25 163.12,-379.25 163.12,-343.25 266.88,-343.25 266.88,-379.25"/>
<text text-anchor="middle" x="215" y="-357.75" font-family="Arial" font-size="10.00">chqdatadog/datadog</text>
</g>
<!-- c3_batcher_datadog&#45;&gt;c3_chqdatadog_datadog -->
<g id="edge14" class="edge">
<title>c3_batcher_datadog&#45;&gt;c3_chqdatadog_datadog</title>
<path fill="none" stroke="black" d="M215,-414.95C215,-407.66 215,-398.98 215,-390.79"/>
<polygon fill="black" stroke="black" points="218.5,-390.87 215,-380.87 211.5,-390.87 218.5,-390.87"/>
</g>
<!-- c4_chqenforcer_stats -->
<g id="node17" class="node">
<title>c4_chqenforcer_stats</title>
<polygon fill="#ddffdd" stroke="#ddffdd" points="409,-527 291,-527 291,-491 409,-491 409,-527"/>
<text text-anchor="middle" x="350" y="-505.5" font-family="Arial" font-size="10.00">chqenforcer/intakestats</text>
</g>
<!-- c4_forwarder_stats&#45;&gt;c4_chqenforcer_stats -->
<g id="edge16" class="edge">
<title>c4_forwarder_stats&#45;&gt;c4_chqenforcer_stats</title>
<path fill="none" stroke="red" d="M346.24,-562.7C346.76,-555.41 347.38,-546.73 347.96,-538.54"/>
<polygon fill="red" stroke="red" points="351.45,-538.84 348.67,-528.61 344.47,-538.34 351.45,-538.84"/>
</g>
<!-- c4_receiver_otlp -->
<g id="node18" class="node">
<title>c4_receiver_otlp</title>
<polygon fill="#ddddff" stroke="#ddddff" points="575,-887 521,-887 521,-851 575,-851 575,-887"/>
<text text-anchor="middle" x="548" y="-865.5" font-family="Arial" font-size="10.00">otlp/l1</text>
</g>
<!-- c4_memory_limiter -->
<g id="node20" class="node">
<title>c4_memory_limiter</title>
<polygon fill="#ddffdd" stroke="#ddffdd" points="636.38,-815 553.62,-815 553.62,-779 636.38,-779 636.38,-815"/>
<text text-anchor="middle" x="595" y="-793.5" font-family="Arial" font-size="10.00">memory_limiter</text>
</g>
<!-- c4_receiver_otlp&#45;&gt;c4_memory_limiter -->
<g id="edge18" class="edge">
<title>c4_receiver_otlp&#45;&gt;c4_memory_limiter</title>
<path fill="none" stroke="black" d="M559.62,-850.7C564.91,-842.81 571.3,-833.3 577.18,-824.55"/>
<polygon fill="black" stroke="black" points="580,-826.61 582.67,-816.36 574.19,-822.71 580,-826.61"/>
</g>
<!-- c4_receiver_datadog -->
<g id="node19" class="node">
<title>c4_receiver_datadog</title>
<polygon fill="#ddddff" stroke="#ddddff" points="669.38,-887 592.62,-887 592.62,-851 669.38,-851 669.38,-887"/>
<text text-anchor="middle" x="631" y="-865.5" font-family="Arial" font-size="10.00">chqdatadog/l1</text>
</g>
<!-- c4_receiver_datadog&#45;&gt;c4_memory_limiter -->
<g id="edge17" class="edge">
<title>c4_receiver_datadog&#45;&gt;c4_memory_limiter</title>
<path fill="none" stroke="black" d="M622.1,-850.7C618.13,-842.98 613.37,-833.71 608.94,-825.11"/>
<polygon fill="black" stroke="black" points="612.17,-823.74 604.49,-816.45 605.95,-826.94 612.17,-823.74"/>
</g>
<!-- c4_exporter_loadbalance -->
<g id="node21" class="node">
<title>c4_exporter_loadbalance</title>
<polygon fill="#ffdddd" stroke="#ffdddd" points="637.88,-743 552.12,-743 552.12,-707 637.88,-707 637.88,-743"/>
<text text-anchor="middle" x="595" y="-721.5" font-family="Arial" font-size="10.00">loadbalancing/l2</text>
</g>
<!-- c4_memory_limiter&#45;&gt;c4_exporter_loadbalance -->
<g id="edge19" class="edge">
<title>c4_memory_limiter&#45;&gt;c4_exporter_loadbalance</title>
<path fill="none" stroke="black" d="M595,-778.7C595,-771.41 595,-762.73 595,-754.54"/>
<polygon fill="black" stroke="black" points="598.5,-754.62 595,-744.62 591.5,-754.62 598.5,-754.62"/>
</g>
<!-- c5_receiver_otlp -->
<g id="node22" class="node">
<title>c5_receiver_otlp</title>
<polygon fill="#ddddff" stroke="#ddddff" points="622,-671 568,-671 568,-635 622,-635 622,-671"/>
<text text-anchor="middle" x="595" y="-649.5" font-family="Arial" font-size="10.00">otlp/l2</text>
</g>
<!-- c4_exporter_loadbalance&#45;&gt;c5_receiver_otlp -->
<g id="edge20" class="edge">
<title>c4_exporter_loadbalance&#45;&gt;c5_receiver_otlp</title>
<path fill="none" stroke="blue" stroke-dasharray="1,5" d="M595,-706.7C595,-699.41 595,-690.73 595,-682.54"/>
<polygon fill="blue" stroke="blue" points="598.5,-682.62 595,-672.62 591.5,-682.62 598.5,-682.62"/>
</g>
<!-- c5_memory_limiter -->
<g id="node23" class="node">
<title>c5_memory_limiter</title>
<polygon fill="#ddffdd" stroke="#ddffdd" points="636.38,-599 553.62,-599 553.62,-563 636.38,-563 636.38,-599"/>
<text text-anchor="middle" x="595" y="-577.5" font-family="Arial" font-size="10.00">memory_limiter</text>
</g>
<!-- c5_receiver_otlp&#45;&gt;c5_memory_limiter -->
<g id="edge21" class="edge">
<title>c5_receiver_otlp&#45;&gt;c5_memory_limiter</title>
<path fill="none" stroke="black" d="M595,-634.7C595,-627.41 595,-618.73 595,-610.54"/>
<polygon fill="black" stroke="black" points="598.5,-610.62 595,-600.62 591.5,-610.62 598.5,-610.62"/>
</g>
<!-- c5_cumulativetodelta -->
<g id="node24" class="node">
<title>c5_cumulativetodelta</title>
<polygon fill="#ddffdd" stroke="#ddffdd" points="641.25,-527 548.75,-527 548.75,-491 641.25,-491 641.25,-527"/>
<text text-anchor="middle" x="595" y="-505.5" font-family="Arial" font-size="10.00">cumulativetodelta</text>
</g>
<!-- c5_memory_limiter&#45;&gt;c5_cumulativetodelta -->
<g id="edge22" class="edge">
<title>c5_memory_limiter&#45;&gt;c5_cumulativetodelta</title>
<path fill="none" stroke="red" d="M595,-562.7C595,-555.41 595,-546.73 595,-538.54"/>
<polygon fill="red" stroke="red" points="598.5,-538.62 595,-528.62 591.5,-538.62 598.5,-538.62"/>
</g>
<!-- c5_chqdecorator -->
<g id="node25" class="node">
<title>c5_chqdecorator</title>
<polygon fill="#ddffdd" stroke="#ddffdd" points="631.12,-451.25 558.88,-451.25 558.88,-415.25 631.12,-415.25 631.12,-451.25"/>
<text text-anchor="middle" x="595" y="-429.75" font-family="Arial" font-size="10.00">chqdecorator</text>
</g>
<!-- c5_cumulativetodelta&#45;&gt;c5_chqdecorator -->
<g id="edge23" class="edge">
<title>c5_cumulativetodelta&#45;&gt;c5_chqdecorator</title>
<path fill="none" stroke="red" d="M595,-490.52C595,-482.26 595,-472.17 595,-462.84"/>
<polygon fill="red" stroke="red" points="598.5,-463.12 595,-453.12 591.5,-463.12 598.5,-463.12"/>
</g>
<!-- c5_forwarder_cardinalhq -->
<g id="node26" class="node">
<title>c5_forwarder_cardinalhq</title>
<polygon fill="#ffdddd" stroke="#ffdddd" points="533.75,-379.25 438.25,-379.25 438.25,-343.25 533.75,-343.25 533.75,-379.25"/>
<text text-anchor="middle" x="486" y="-357.75" font-family="Arial" font-size="10.00">forward/cardinalhq</text>
</g>
<!-- c5_chqdecorator&#45;&gt;c5_forwarder_cardinalhq -->
<g id="edge24" class="edge">
<title>c5_chqdecorator&#45;&gt;c5_forwarder_cardinalhq</title>
<path fill="none" stroke="black" d="M567.78,-414.77C554.02,-405.93 537.13,-395.09 522.29,-385.55"/>
<polygon fill="black" stroke="black" points="524.46,-382.79 514.15,-380.33 520.67,-388.68 524.46,-382.79"/>
</g>
<!-- c5_forwarder_datadog -->
<g id="node27" class="node">
<title>c5_forwarder_datadog</title>
<polygon fill="#ffdddd" stroke="#ffdddd" points="637.88,-379.25 552.12,-379.25 552.12,-343.25 637.88,-343.25 637.88,-379.25"/>
<text text-anchor="middle" x="595" y="-357.75" font-family="Arial" font-size="10.00">forward/datadog</text>
</g>
<!-- c5_chqdecorator&#45;&gt;c5_forwarder_datadog -->
<g id="edge25" class="edge">
<title>c5_chqdecorator&#45;&gt;c5_forwarder_datadog</title>
<path fill="none" stroke="black" d="M595,-414.95C595,-407.66 595,-398.98 595,-390.79"/>
<polygon fill="black" stroke="black" points="598.5,-390.87 595,-380.87 591.5,-390.87 598.5,-390.87"/>
</g>
<!-- c5_forwarder_stats -->
<g id="node28" class="node">
<title>c5_forwarder_stats</title>
<polygon fill="#ffdddd" stroke="#ffdddd" points="755.62,-379.25 656.38,-379.25 656.38,-343.25 755.62,-343.25 755.62,-379.25"/>
<text text-anchor="middle" x="706" y="-357.75" font-family="Arial" font-size="10.00">forward/intakestats</text>
</g>
<!-- c5_chqdecorator&#45;&gt;c5_forwarder_stats -->
<g id="edge26" class="edge">
<title>c5_chqdecorator&#45;&gt;c5_forwarder_stats</title>
<path fill="none" stroke="black" d="M622.72,-414.77C636.74,-405.93 653.93,-395.09 669.05,-385.55"/>
<polygon fill="black" stroke="black" points="670.76,-388.61 677.35,-380.32 667.02,-382.69 670.76,-388.61"/>
</g>
<!-- c6_forwarder_cardinalhq -->
<g id="node29" class="node">
<title>c6_forwarder_cardinalhq</title>
<polygon fill="#ddddff" stroke="#ddddff" points="506.75,-295.5 411.25,-295.5 411.25,-259.5 506.75,-259.5 506.75,-295.5"/>
<text text-anchor="middle" x="459" y="-274" font-family="Arial" font-size="10.00">forward/cardinalhq</text>
</g>
<!-- c5_forwarder_cardinalhq&#45;&gt;c6_forwarder_cardinalhq -->
<g id="edge27" class="edge">
<title>c5_forwarder_cardinalhq&#45;&gt;c6_forwarder_cardinalhq</title>
<path fill="none" stroke="black" stroke-dasharray="5,2" d="M480.27,-342.91C476.8,-332.4 472.29,-318.73 468.31,-306.7"/>
<polygon fill="black" stroke="black" points="471.65,-305.65 465.19,-297.25 465.01,-307.84 471.65,-305.65"/>
</g>
<!-- c7_forwarder_datadog -->
<g id="node33" class="node">
<title>c7_forwarder_datadog</title>
<polygon fill="#ddddff" stroke="#ddddff" points="637.88,-295.5 552.12,-295.5 552.12,-259.5 637.88,-259.5 637.88,-295.5"/>
<text text-anchor="middle" x="595" y="-274" font-family="Arial" font-size="10.00">forward/datadog</text>
</g>
<!-- c5_forwarder_datadog&#45;&gt;c7_forwarder_datadog -->
<g id="edge31" class="edge">
<title>c5_forwarder_datadog&#45;&gt;c7_forwarder_datadog</title>
<path fill="none" stroke="black" stroke-dasharray="5,2" d="M595,-342.91C595,-332.51 595,-319.02 595,-307.07"/>
<polygon fill="black" stroke="black" points="598.5,-307.33 595,-297.33 591.5,-307.33 598.5,-307.33"/>
</g>
<!-- c8_forwarder_stats -->
<g id="node37" class="node">
<title>c8_forwarder_stats</title>
<polygon fill="#ddddff" stroke="#ddddff" points="780.62,-295.5 681.38,-295.5 681.38,-259.5 780.62,-259.5 780.62,-295.5"/>
<text text-anchor="middle" x="731" y="-274" font-family="Arial" font-size="10.00">forward/intakestats</text>
</g>
<!-- c5_forwarder_stats&#45;&gt;c8_forwarder_stats -->
<g id="edge35" class="edge">
<title>c5_forwarder_stats&#45;&gt;c8_forwarder_stats</title>
<path fill="none" stroke="black" stroke-dasharray="5,2" d="M711.3,-342.91C714.52,-332.4 718.7,-318.73 722.38,-306.7"/>
<polygon fill="black" stroke="black" points="725.69,-307.85 725.26,-297.26 718.99,-305.8 725.69,-307.85"/>
</g>
<!-- c6_chqenforcer_cardinalhq -->
<g id="node30" class="node">
<title>c6_chqenforcer_cardinalhq</title>
<polygon fill="#ddffdd" stroke="#ddffdd" points="512.12,-223.5 397.88,-223.5 397.88,-187.5 512.12,-187.5 512.12,-223.5"/>
<text text-anchor="middle" x="455" y="-202" font-family="Arial" font-size="10.00">chqenforcer/cardinalhq</text>
</g>
<!-- c6_forwarder_cardinalhq&#45;&gt;c6_chqenforcer_cardinalhq -->
<g id="edge28" class="edge">
<title>c6_forwarder_cardinalhq&#45;&gt;c6_chqenforcer_cardinalhq</title>
<path fill="none" stroke="red" d="M458.01,-259.2C457.59,-251.91 457.1,-243.23 456.63,-235.04"/>
<polygon fill="red" stroke="red" points="460.13,-234.9 456.06,-225.12 453.14,-235.3 460.13,-234.9"/>
</g>
<!-- c6_batcher_cardinalhq -->
<g id="node31" class="node">
<title>c6_batcher_cardinalhq</title>
<polygon fill="#ddffdd" stroke="#ddffdd" points="498.62,-147.75 411.38,-147.75 411.38,-111.75 498.62,-111.75 498.62,-147.75"/>
<text text-anchor="middle" x="455" y="-126.25" font-family="Arial" font-size="10.00">batch/cardinalhq</text>
</g>
<!-- c6_chqenforcer_cardinalhq&#45;&gt;c6_batcher_cardinalhq -->
<g id="edge29" class="edge">
<title>c6_chqenforcer_cardinalhq&#45;&gt;c6_batcher_cardinalhq</title>
<path fill="none" stroke="red" d="M455,-187.02C455,-178.76 455,-168.67 455,-159.34"/>
<polygon fill="red" stroke="red" points="458.5,-159.62 455,-149.62 451.5,-159.62 458.5,-159.62"/>
</g>
<!-- c6_otlp_cardinalhq -->
<g id="node32" class="node">
<title>c6_otlp_cardinalhq</title>
<polygon fill="#ffdddd" stroke="#ffdddd" points="494.5,-75.75 415.5,-75.75 415.5,-39.75 494.5,-39.75 494.5,-75.75"/>
<text text-anchor="middle" x="455" y="-54.25" font-family="Arial" font-size="10.00">otlp/cardinalhq</text>
</g>
<!-- c6_batcher_cardinalhq&#45;&gt;c6_otlp_cardinalhq -->
<g id="edge30" class="edge">
<title>c6_batcher_cardinalhq&#45;&gt;c6_otlp_cardinalhq</title>
<path fill="none" stroke="black" d="M455,-111.45C455,-104.16 455,-95.48 455,-87.29"/>
<polygon fill="black" stroke="black" points="458.5,-87.37 455,-77.37 451.5,-87.37 458.5,-87.37"/>
</g>
<!-- c7_chqenforcer_datadog -->
<g id="node34" class="node">
<title>c7_chqenforcer_datadog</title>
<polygon fill="#ddffdd" stroke="#ddffdd" points="647.25,-223.5 542.75,-223.5 542.75,-187.5 647.25,-187.5 647.25,-223.5"/>
<text text-anchor="middle" x="595" y="-202" font-family="Arial" font-size="10.00">chqenforcer/datadog</text>
</g>
<!-- c7_forwarder_datadog&#45;&gt;c7_chqenforcer_datadog -->
<g id="edge32" class="edge">
<title>c7_forwarder_datadog&#45;&gt;c7_chqenforcer_datadog</title>
<path fill="none" stroke="red" d="M595,-259.2C595,-251.91 595,-243.23 595,-235.04"/>
<polygon fill="red" stroke="red" points="598.5,-235.12 595,-225.12 591.5,-235.12 598.5,-235.12"/>
</g>
<!-- c7_batcher_datadog -->
<g id="node35" class="node">
<title>c7_batcher_datadog</title>
<polygon fill="#ddffdd" stroke="#ddffdd" points="637.88,-147.75 552.12,-147.75 552.12,-111.75 637.88,-111.75 637.88,-147.75"/>
<text text-anchor="middle" x="595" y="-126.25" font-family="Arial" font-size="10.00">batcher/datadog</text>
</g>
<!-- c7_chqenforcer_datadog&#45;&gt;c7_batcher_datadog -->
<g id="edge33" class="edge">
<title>c7_chqenforcer_datadog&#45;&gt;c7_batcher_datadog</title>
<path fill="none" stroke="red" d="M595,-187.02C595,-178.76 595,-168.67 595,-159.34"/>
<polygon fill="red" stroke="red" points="598.5,-159.62 595,-149.62 591.5,-159.62 598.5,-159.62"/>
</g>
<!-- c7_chqdatadog_datadog -->
<g id="node36" class="node">
<title>c7_chqdatadog_datadog</title>
<polygon fill="#ffdddd" stroke="#ffdddd" points="646.88,-75.75 543.12,-75.75 543.12,-39.75 646.88,-39.75 646.88,-75.75"/>
<text text-anchor="middle" x="595" y="-54.25" font-family="Arial" font-size="10.00">chqdatadog/datadog</text>
</g>
<!-- c7_batcher_datadog&#45;&gt;c7_chqdatadog_datadog -->
<g id="edge34" class="edge">
<title>c7_batcher_datadog&#45;&gt;c7_chqdatadog_datadog</title>
<path fill="none" stroke="black" d="M595,-111.45C595,-104.16 595,-95.48 595,-87.29"/>
<polygon fill="black" stroke="black" points="598.5,-87.37 595,-77.37 591.5,-87.37 598.5,-87.37"/>
</g>
<!-- c8_chqenforcer_stats -->
<g id="node38" class="node">
<title>c8_chqenforcer_stats</title>
<polygon fill="#ddffdd" stroke="#ddffdd" points="795,-223.5 677,-223.5 677,-187.5 795,-187.5 795,-223.5"/>
<text text-anchor="middle" x="736" y="-202" font-family="Arial" font-size="10.00">chqenforcer/intakestats</text>
</g>
<!-- c8_forwarder_stats&#45;&gt;c8_chqenforcer_stats -->
<g id="edge36" class="edge">
<title>c8_forwarder_stats&#45;&gt;c8_chqenforcer_stats</title>
<path fill="none" stroke="red" d="M732.24,-259.2C732.76,-251.91 733.38,-243.23 733.96,-235.04"/>
<polygon fill="red" stroke="red" points="737.45,-235.34 734.67,-225.11 730.47,-234.84 737.45,-235.34"/>
</g>
<!-- c8_receiver_otlp -->
<g id="node39" class="node">
<title>c8_receiver_otlp</title>
<polygon fill="#ddddff" stroke="#ddddff" points="1030,-887 976,-887 976,-851 1030,-851 1030,-887"/>
<text text-anchor="middle" x="1003" y="-865.5" font-family="Arial" font-size="10.00">otlp/l1</text>
</g>
<!-- c8_memory_limiter -->
<g id="node41" class="node">
<title>c8_memory_limiter</title>
<polygon fill="#ddffdd" stroke="#ddffdd" points="1091.38,-815 1008.62,-815 1008.62,-779 1091.38,-779 1091.38,-815"/>
<text text-anchor="middle" x="1050" y="-793.5" font-family="Arial" font-size="10.00">memory_limiter</text>
</g>
<!-- c8_receiver_otlp&#45;&gt;c8_memory_limiter -->
<g id="edge38" class="edge">
<title>c8_receiver_otlp&#45;&gt;c8_memory_limiter</title>
<path fill="none" stroke="black" d="M1014.62,-850.7C1019.91,-842.81 1026.3,-833.3 1032.18,-824.55"/>
<polygon fill="black" stroke="black" points="1035,-826.61 1037.67,-816.36 1029.19,-822.71 1035,-826.61"/>
</g>
<!-- c8_receiver_datadog -->
<g id="node40" class="node">
<title>c8_receiver_datadog</title>
<polygon fill="#ddddff" stroke="#ddddff" points="1124.38,-887 1047.62,-887 1047.62,-851 1124.38,-851 1124.38,-887"/>
<text text-anchor="middle" x="1086" y="-865.5" font-family="Arial" font-size="10.00">chqdatadog/l2</text>
</g>
<!-- c8_receiver_datadog&#45;&gt;c8_memory_limiter -->
<g id="edge37" class="edge">
<title>c8_receiver_datadog&#45;&gt;c8_memory_limiter</title>
<path fill="none" stroke="black" d="M1077.1,-850.7C1073.13,-842.98 1068.37,-833.71 1063.94,-825.11"/>
<polygon fill="black" stroke="black" points="1067.17,-823.74 1059.49,-816.45 1060.95,-826.94 1067.17,-823.74"/>
</g>
<!-- c8_exporter_loadbalance -->
<g id="node42" class="node">
<title>c8_exporter_loadbalance</title>
<polygon fill="#ffdddd" stroke="#ffdddd" points="1092.88,-743 1007.12,-743 1007.12,-707 1092.88,-707 1092.88,-743"/>
<text text-anchor="middle" x="1050" y="-721.5" font-family="Arial" font-size="10.00">loadbalancing/l2</text>
</g>
<!-- c8_memory_limiter&#45;&gt;c8_exporter_loadbalance -->
<g id="edge39" class="edge">
<title>c8_memory_limiter&#45;&gt;c8_exporter_loadbalance</title>
<path fill="none" stroke="black" d="M1050,-778.7C1050,-771.41 1050,-762.73 1050,-754.54"/>
<polygon fill="black" stroke="black" points="1053.5,-754.62 1050,-744.62 1046.5,-754.62 1053.5,-754.62"/>
</g>
<!-- c9_receiver_otlp -->
<g id="node43" class="node">
<title>c9_receiver_otlp</title>
<polygon fill="#ddddff" stroke="#ddddff" points="1077,-671 1023,-671 1023,-635 1077,-635 1077,-671"/>
<text text-anchor="middle" x="1050" y="-649.5" font-family="Arial" font-size="10.00">otlp/l2</text>
</g>
<!-- c8_exporter_loadbalance&#45;&gt;c9_receiver_otlp -->
<g id="edge40" class="edge">
<title>c8_exporter_loadbalance&#45;&gt;c9_receiver_otlp</title>
<path fill="none" stroke="blue" stroke-dasharray="1,5" d="M1050,-706.7C1050,-699.41 1050,-690.73 1050,-682.54"/>
<polygon fill="blue" stroke="blue" points="1053.5,-682.62 1050,-672.62 1046.5,-682.62 1053.5,-682.62"/>
</g>
<!-- c9_memory_limiter -->
<g id="node44" class="node">
<title>c9_memory_limiter</title>
<polygon fill="#ddffdd" stroke="#ddffdd" points="1091.38,-599 1008.62,-599 1008.62,-563 1091.38,-563 1091.38,-599"/>
<text text-anchor="middle" x="1050" y="-577.5" font-family="Arial" font-size="10.00">memory_limiter</text>
</g>
<!-- c9_receiver_otlp&#45;&gt;c9_memory_limiter -->
<g id="edge41" class="edge">
<title>c9_receiver_otlp&#45;&gt;c9_memory_limiter</title>
<path fill="none" stroke="black" d="M1050,-634.7C1050,-627.41 1050,-618.73 1050,-610.54"/>
<polygon fill="black" stroke="black" points="1053.5,-610.62 1050,-600.62 1046.5,-610.62 1053.5,-610.62"/>
</g>
<!-- c9_groupbytrace -->
<g id="node45" class="node">
<title>c9_groupbytrace</title>
<polygon fill="#ddffdd" stroke="#ddffdd" points="1086.12,-527 1013.88,-527 1013.88,-491 1086.12,-491 1086.12,-527"/>
<text text-anchor="middle" x="1050" y="-505.5" font-family="Arial" font-size="10.00">groupbytrace</text>
</g>
<!-- c9_memory_limiter&#45;&gt;c9_groupbytrace -->
<g id="edge42" class="edge">
<title>c9_memory_limiter&#45;&gt;c9_groupbytrace</title>
<path fill="none" stroke="red" d="M1050,-562.7C1050,-555.41 1050,-546.73 1050,-538.54"/>
<polygon fill="red" stroke="red" points="1053.5,-538.62 1050,-528.62 1046.5,-538.62 1053.5,-538.62"/>
</g>
<!-- c9_chqdecorator -->
<g id="node46" class="node">
<title>c9_chqdecorator</title>
<polygon fill="#ddffdd" stroke="#ddffdd" points="1086.12,-451.25 1013.88,-451.25 1013.88,-415.25 1086.12,-415.25 1086.12,-451.25"/>
<text text-anchor="middle" x="1050" y="-429.75" font-family="Arial" font-size="10.00">chqdecorator</text>
</g>
<!-- c9_groupbytrace&#45;&gt;c9_chqdecorator -->
<g id="edge43" class="edge">
<title>c9_groupbytrace&#45;&gt;c9_chqdecorator</title>
<path fill="none" stroke="red" d="M1050,-490.52C1050,-482.26 1050,-472.17 1050,-462.84"/>
<polygon fill="red" stroke="red" points="1053.5,-463.12 1050,-453.12 1046.5,-463.12 1053.5,-463.12"/>
</g>
<!-- c9_forwarder_cardinalhq -->
<g id="node47" class="node">
<title>c9_forwarder_cardinalhq</title>
<polygon fill="#ffdddd" stroke="#ffdddd" points="988.75,-379.25 893.25,-379.25 893.25,-343.25 988.75,-343.25 988.75,-379.25"/>
<text text-anchor="middle" x="941" y="-357.75" font-family="Arial" font-size="10.00">forward/cardinalhq</text>
</g>
<!-- c9_chqdecorator&#45;&gt;c9_forwarder_cardinalhq -->
<g id="edge44" class="edge">
<title>c9_chqdecorator&#45;&gt;c9_forwarder_cardinalhq</title>
<path fill="none" stroke="black" d="M1022.78,-414.77C1009.02,-405.93 992.13,-395.09 977.29,-385.55"/>
<polygon fill="black" stroke="black" points="979.46,-382.79 969.15,-380.33 975.67,-388.68 979.46,-382.79"/>
</g>
<!-- c9_forwarder_datadog -->
<g id="node48" class="node">
<title>c9_forwarder_datadog</title>
<polygon fill="#ffdddd" stroke="#ffdddd" points="1092.88,-379.25 1007.12,-379.25 1007.12,-343.25 1092.88,-343.25 1092.88,-379.25"/>
<text text-anchor="middle" x="1050" y="-357.75" font-family="Arial" font-size="10.00">forward/datadog</text>
</g>
<!-- c9_chqdecorator&#45;&gt;c9_forwarder_datadog -->
<g id="edge45" class="edge">
<title>c9_chqdecorator&#45;&gt;c9_forwarder_datadog</title>
<path fill="none" stroke="black" d="M1050,-414.95C1050,-407.66 1050,-398.98 1050,-390.79"/>
<polygon fill="black" stroke="black" points="1053.5,-390.87 1050,-380.87 1046.5,-390.87 1053.5,-390.87"/>
</g>
<!-- c9_forwarder_stats -->
<g id="node49" class="node">
<title>c9_forwarder_stats</title>
<polygon fill="#ffdddd" stroke="#ffdddd" points="1210.62,-379.25 1111.38,-379.25 1111.38,-343.25 1210.62,-343.25 1210.62,-379.25"/>
<text text-anchor="middle" x="1161" y="-357.75" font-family="Arial" font-size="10.00">forward/intakestats</text>
</g>
<!-- c9_chqdecorator&#45;&gt;c9_forwarder_stats -->
<g id="edge46" class="edge">
<title>c9_chqdecorator&#45;&gt;c9_forwarder_stats</title>
<path fill="none" stroke="black" d="M1077.72,-414.77C1091.74,-405.93 1108.93,-395.09 1124.05,-385.55"/>
<polygon fill="black" stroke="black" points="1125.76,-388.61 1132.35,-380.32 1122.02,-382.69 1125.76,-388.61"/>
</g>
<!-- c10_forwarder_cardinalhq -->
<g id="node50" class="node">
<title>c10_forwarder_cardinalhq</title>
<polygon fill="#ddddff" stroke="#ddddff" points="965.75,-295.5 870.25,-295.5 870.25,-259.5 965.75,-259.5 965.75,-295.5"/>
<text text-anchor="middle" x="918" y="-274" font-family="Arial" font-size="10.00">forward/cardinalhq</text>
</g>
<!-- c9_forwarder_cardinalhq&#45;&gt;c10_forwarder_cardinalhq -->
<g id="edge47" class="edge">
<title>c9_forwarder_cardinalhq&#45;&gt;c10_forwarder_cardinalhq</title>
<path fill="none" stroke="black" stroke-dasharray="5,2" d="M936.12,-342.91C933.16,-332.4 929.32,-318.73 925.93,-306.7"/>
<polygon fill="black" stroke="black" points="929.36,-305.95 923.28,-297.27 922.62,-307.84 929.36,-305.95"/>
</g>
<!-- c11_forwarder_datadog -->
<g id="node54" class="node">
<title>c11_forwarder_datadog</title>
<polygon fill="#ddddff" stroke="#ddddff" points="1092.88,-295.5 1007.12,-295.5 1007.12,-259.5 1092.88,-259.5 1092.88,-295.5"/>
<text text-anchor="middle" x="1050" y="-274" font-family="Arial" font-size="10.00">forward/datadog</text>
</g>
<!-- c9_forwarder_datadog&#45;&gt;c11_forwarder_datadog -->
<g id="edge51" class="edge">
<title>c9_forwarder_datadog&#45;&gt;c11_forwarder_datadog</title>
<path fill="none" stroke="black" stroke-dasharray="5,2" d="M1050,-342.91C1050,-332.51 1050,-319.02 1050,-307.07"/>
<polygon fill="black" stroke="black" points="1053.5,-307.33 1050,-297.33 1046.5,-307.33 1053.5,-307.33"/>
</g>
<!-- c12_forwarder_stats -->
<g id="node58" class="node">
<title>c12_forwarder_stats</title>
<polygon fill="#ddddff" stroke="#ddddff" points="1233.62,-295.5 1134.38,-295.5 1134.38,-259.5 1233.62,-259.5 1233.62,-295.5"/>
<text text-anchor="middle" x="1184" y="-274" font-family="Arial" font-size="10.00">forward/intakestats</text>
</g>
<!-- c9_forwarder_stats&#45;&gt;c12_forwarder_stats -->
<g id="edge55" class="edge">
<title>c9_forwarder_stats&#45;&gt;c12_forwarder_stats</title>
<path fill="none" stroke="black" stroke-dasharray="5,2" d="M1165.88,-342.91C1168.84,-332.4 1172.68,-318.73 1176.07,-306.7"/>
<polygon fill="black" stroke="black" points="1179.38,-307.84 1178.72,-297.27 1172.64,-305.95 1179.38,-307.84"/>
</g>
<!-- c10_chqenforcer_cardinalhq -->
<g id="node51" class="node">
<title>c10_chqenforcer_cardinalhq</title>
<polygon fill="#ddffdd" stroke="#ddffdd" points="971.12,-223.5 856.88,-223.5 856.88,-187.5 971.12,-187.5 971.12,-223.5"/>
<text text-anchor="middle" x="914" y="-202" font-family="Arial" font-size="10.00">chqenforcer/cardinalhq</text>
</g>
<!-- c10_forwarder_cardinalhq&#45;&gt;c10_chqenforcer_cardinalhq -->
<g id="edge48" class="edge">
<title>c10_forwarder_cardinalhq&#45;&gt;c10_chqenforcer_cardinalhq</title>
<path fill="none" stroke="red" d="M917.01,-259.2C916.59,-251.91 916.1,-243.23 915.63,-235.04"/>
<polygon fill="red" stroke="red" points="919.13,-234.9 915.06,-225.12 912.14,-235.3 919.13,-234.9"/>
</g>
<!-- c10_batcher_cardinalhq -->
<g id="node52" class="node">
<title>c10_batcher_cardinalhq</title>
<polygon fill="#ddffdd" stroke="#ddffdd" points="957.62,-147.75 870.38,-147.75 870.38,-111.75 957.62,-111.75 957.62,-147.75"/>
<text text-anchor="middle" x="914" y="-126.25" font-family="Arial" font-size="10.00">batch/cardinalhq</text>
</g>
<!-- c10_chqenforcer_cardinalhq&#45;&gt;c10_batcher_cardinalhq -->
<g id="edge49" class="edge">
<title>c10_chqenforcer_cardinalhq&#45;&gt;c10_batcher_cardinalhq</title>
<path fill="none" stroke="red" d="M914,-187.02C914,-178.76 914,-168.67 914,-159.34"/>
<polygon fill="red" stroke="red" points="917.5,-159.62 914,-149.62 910.5,-159.62 917.5,-159.62"/>
</g>
<!-- c10_otlp_cardinalhq -->
<g id="node53" class="node">
<title>c10_otlp_cardinalhq</title>
<polygon fill="#ffdddd" stroke="#ffdddd" points="953.5,-75.75 874.5,-75.75 874.5,-39.75 953.5,-39.75 953.5,-75.75"/>
<text text-anchor="middle" x="914" y="-54.25" font-family="Arial" font-size="10.00">otlp/cardinalhq</text>
</g>
<!-- c10_batcher_cardinalhq&#45;&gt;c10_otlp_cardinalhq -->
<g id="edge50" class="edge">
<title>c10_batcher_cardinalhq&#45;&gt;c10_otlp_cardinalhq</title>
<path fill="none" stroke="black" d="M914,-111.45C914,-104.16 914,-95.48 914,-87.29"/>
<polygon fill="black" stroke="black" points="917.5,-87.37 914,-77.37 910.5,-87.37 917.5,-87.37"/>
</g>
<!-- c11_chqenforcer_datadog -->
<g id="node55" class="node">
<title>c11_chqenforcer_datadog</title>
<polygon fill="#ddffdd" stroke="#ddffdd" points="1102.25,-223.5 997.75,-223.5 997.75,-187.5 1102.25,-187.5 1102.25,-223.5"/>
<text text-anchor="middle" x="1050" y="-202" font-family="Arial" font-size="10.00">chqenforcer/datadog</text>
</g>
<!-- c11_forwarder_datadog&#45;&gt;c11_chqenforcer_datadog -->
<g id="edge52" class="edge">
<title>c11_forwarder_datadog&#45;&gt;c11_chqenforcer_datadog</title>
<path fill="none" stroke="red" d="M1050,-259.2C1050,-251.91 1050,-243.23 1050,-235.04"/>
<polygon fill="red" stroke="red" points="1053.5,-235.12 1050,-225.12 1046.5,-235.12 1053.5,-235.12"/>
</g>
<!-- c11_batcher_datadog -->
<g id="node56" class="node">
<title>c11_batcher_datadog</title>
<polygon fill="#ddffdd" stroke="#ddffdd" points="1092.88,-147.75 1007.12,-147.75 1007.12,-111.75 1092.88,-111.75 1092.88,-147.75"/>
<text text-anchor="middle" x="1050" y="-126.25" font-family="Arial" font-size="10.00">batcher/datadog</text>
</g>
<!-- c11_chqenforcer_datadog&#45;&gt;c11_batcher_datadog -->
<g id="edge53" class="edge">
<title>c11_chqenforcer_datadog&#45;&gt;c11_batcher_datadog</title>
<path fill="none" stroke="red" d="M1050,-187.02C1050,-178.76 1050,-168.67 1050,-159.34"/>
<polygon fill="red" stroke="red" points="1053.5,-159.62 1050,-149.62 1046.5,-159.62 1053.5,-159.62"/>
</g>
<!-- c11_chqdatadog_datadog -->
<g id="node57" class="node">
<title>c11_chqdatadog_datadog</title>
<polygon fill="#ffdddd" stroke="#ffdddd" points="1101.88,-75.75 998.12,-75.75 998.12,-39.75 1101.88,-39.75 1101.88,-75.75"/>
<text text-anchor="middle" x="1050" y="-54.25" font-family="Arial" font-size="10.00">chqdatadog/datadog</text>
</g>
<!-- c11_batcher_datadog&#45;&gt;c11_chqdatadog_datadog -->
<g id="edge54" class="edge">
<title>c11_batcher_datadog&#45;&gt;c11_chqdatadog_datadog</title>
<path fill="none" stroke="black" d="M1050,-111.45C1050,-104.16 1050,-95.48 1050,-87.29"/>
<polygon fill="black" stroke="black" points="1053.5,-87.37 1050,-77.37 1046.5,-87.37 1053.5,-87.37"/>
</g>
<!-- c12_chqenforcer_stats -->
<g id="node59" class="node">
<title>c12_chqenforcer_stats</title>
<polygon fill="#ddffdd" stroke="#ddffdd" points="1248,-223.5 1130,-223.5 1130,-187.5 1248,-187.5 1248,-223.5"/>
<text text-anchor="middle" x="1189" y="-202" font-family="Arial" font-size="10.00">chqenforcer/intakestats</text>
</g>
<!-- c12_forwarder_stats&#45;&gt;c12_chqenforcer_stats -->
<g id="edge56" class="edge">
<title>c12_forwarder_stats&#45;&gt;c12_chqenforcer_stats</title>
<path fill="none" stroke="red" d="M1185.24,-259.2C1185.76,-251.91 1186.38,-243.23 1186.96,-235.04"/>
<polygon fill="red" stroke="red" points="1190.45,-235.34 1187.67,-225.11 1183.47,-234.84 1190.45,-235.34"/>
</g>
</g>
</svg>
