<?xml version="1.0" encoding="UTF-8" standalone="no"?>
<!DOCTYPE svg PUBLIC "-//W3C//DTD SVG 1.1//EN"
 "http://www.w3.org/Graphics/SVG/1.1/DTD/svg11.dtd">
<!-- Generated by graphviz version 11.0.0 (20240428.1522)
 -->
<!-- Title: G Pages: 1 -->
<svg width="840pt" height="927pt"
 viewBox="0.00 0.00 840.00 927.25" xmlns="http://www.w3.org/2000/svg" xmlns:xlink="http://www.w3.org/1999/xlink">
<g id="graph0" class="graph" transform="scale(1 1) rotate(0) translate(4 923.25)">
<title>G</title>
<polygon fill="white" stroke="none" points="-4,4 -4,-923.25 836,-923.25 836,4 -4,4"/>
<g id="clust1" class="cluster">
<title>cluster_1</title>
<polygon fill="#ffddff" stroke="#ffddff" points="37,-619.5 37,-911.25 253,-911.25 253,-619.5 37,-619.5"/>
<text text-anchor="middle" x="145" y="-893.95" font-family="Arial" font-size="14.00">Logs L1 Intake</text>
</g>
<g id="clust2" class="cluster">
<title>cluster_2</title>
<polygon fill="#ffddff" stroke="#ffddff" points="8,-307.75 8,-599.5 147,-599.5 147,-307.75 8,-307.75"/>
<text text-anchor="middle" x="77.5" y="-314.2" font-family="Arial" font-size="14.00">Logs L1 CardinalHQ</text>
</g>
<g id="clust3" class="cluster">
<title>cluster_3</title>
<polygon fill="#ffddff" stroke="#ffddff" points="155,-307.75 155,-599.5 275,-599.5 275,-307.75 155,-307.75"/>
<text text-anchor="middle" x="215" y="-314.2" font-family="Arial" font-size="14.00">Logs L1 Datadog</text>
</g>
<g id="clust4" class="cluster">
<title>cluster_4</title>
<polygon fill="#ffffbb" stroke="#ffffbb" points="322,-691.5 322,-911.25 486,-911.25 486,-691.5 322,-691.5"/>
<text text-anchor="middle" x="404" y="-893.95" font-family="Arial" font-size="14.00">Metrics L1 Intake</text>
</g>
<g id="clust5" class="cluster">
<title>cluster_5</title>
<polygon fill="#ffffbb" stroke="#ffffbb" points="283,-307.75 283,-671.5 499,-671.5 499,-307.75 283,-307.75"/>
<text text-anchor="middle" x="391" y="-314.2" font-family="Arial" font-size="14.00">Metrics L2 Intake</text>
</g>
<g id="clust6" class="cluster">
<title>cluster_6</title>
<polygon fill="#ffffbb" stroke="#ffffbb" points="238,-8 238,-299.75 392,-299.75 392,-8 238,-8"/>
<text text-anchor="middle" x="315" y="-14.45" font-family="Arial" font-size="14.00">Metrics L2 CardinalHQ</text>
</g>
<g id="clust7" class="cluster">
<title>cluster_7</title>
<polygon fill="#ffffbb" stroke="#ffffbb" points="400,-8 400,-299.75 533,-299.75 533,-8 400,-8"/>
<text text-anchor="middle" x="466.5" y="-14.45" font-family="Arial" font-size="14.00">Metrics L2 Datadog</text>
</g>
<g id="clust8" class="cluster">
<title>cluster_8</title>
<polygon fill="#ddffff" stroke="#ddffff" points="606,-691.5 606,-911.25 770,-911.25 770,-691.5 606,-691.5"/>
<text text-anchor="middle" x="688" y="-893.95" font-family="Arial" font-size="14.00">Spans L1 Intake</text>
</g>
<g id="clust9" class="cluster">
<title>cluster_9</title>
<polygon fill="#ddffff" stroke="#ddffff" points="579,-307.75 579,-671.5 795,-671.5 795,-307.75 579,-307.75"/>
<text text-anchor="middle" x="687" y="-314.2" font-family="Arial" font-size="14.00">Spans L2 Intake</text>
</g>
<g id="clust10" class="cluster">
<title>cluster_10</title>
<polygon fill="#ddffff" stroke="#ddffff" points="541,-8 541,-299.75 689,-299.75 689,-8 541,-8"/>
<text text-anchor="middle" x="615" y="-14.45" font-family="Arial" font-size="14.00">Spans L2 CardinalHQ</text>
</g>
<g id="clust11" class="cluster">
<title>cluster_11</title>
<polygon fill="#ddffff" stroke="#ddffff" points="697,-8 697,-299.75 824,-299.75 824,-8 697,-8"/>
<text text-anchor="middle" x="760.5" y="-14.45" font-family="Arial" font-size="14.00">Spans L2 Datadog</text>
</g>
<!-- c1_receiver_otlp -->
<g id="node1" class="node">
<title>c1_receiver_otlp</title>
<polygon fill="#ddddff" stroke="#ddddff" points="109,-879.5 55,-879.5 55,-843.5 109,-843.5 109,-879.5"/>
<text text-anchor="middle" x="82" y="-858" font-family="Arial" font-size="10.00">otlp/l1</text>
</g>
<!-- c1_memory_limiter -->
<g id="node3" class="node">
<title>c1_memory_limiter</title>
<polygon fill="#ddffdd" stroke="#ddffdd" points="170.38,-807.5 87.62,-807.5 87.62,-771.5 170.38,-771.5 170.38,-807.5"/>
<text text-anchor="middle" x="129" y="-786" font-family="Arial" font-size="10.00">memory_limiter</text>
</g>
<!-- c1_receiver_otlp&#45;&gt;c1_memory_limiter -->
<g id="edge2" class="edge">
<title>c1_receiver_otlp&#45;&gt;c1_memory_limiter</title>
<path fill="none" stroke="black" d="M93.62,-843.2C98.91,-835.31 105.3,-825.8 111.18,-817.05"/>
<polygon fill="black" stroke="black" points="114,-819.11 116.67,-808.86 108.19,-815.21 114,-819.11"/>
</g>
<!-- c1_receiver_datadog -->
<g id="node2" class="node">
<title>c1_receiver_datadog</title>
<polygon fill="#ddddff" stroke="#ddddff" points="203.38,-879.5 126.62,-879.5 126.62,-843.5 203.38,-843.5 203.38,-879.5"/>
<text text-anchor="middle" x="165" y="-858" font-family="Arial" font-size="10.00">chqdatadog/l1</text>
</g>
<!-- c1_receiver_datadog&#45;&gt;c1_memory_limiter -->
<g id="edge1" class="edge">
<title>c1_receiver_datadog&#45;&gt;c1_memory_limiter</title>
<path fill="none" stroke="black" d="M156.1,-843.2C152.13,-835.48 147.37,-826.21 142.94,-817.61"/>
<polygon fill="black" stroke="black" points="146.17,-816.24 138.49,-808.95 139.95,-819.44 146.17,-816.24"/>
</g>
<!-- c1_chqdecorator -->
<g id="node4" class="node">
<title>c1_chqdecorator</title>
<polygon fill="#ddffdd" stroke="#ddffdd" points="165.12,-735.5 92.88,-735.5 92.88,-699.5 165.12,-699.5 165.12,-735.5"/>
<text text-anchor="middle" x="129" y="-714" font-family="Arial" font-size="10.00">chqdecorator</text>
</g>
<!-- c1_memory_limiter&#45;&gt;c1_chqdecorator -->
<g id="edge3" class="edge">
<title>c1_memory_limiter&#45;&gt;c1_chqdecorator</title>
<path fill="none" stroke="red" d="M129,-771.2C129,-763.91 129,-755.23 129,-747.04"/>
<polygon fill="red" stroke="red" points="132.5,-747.12 129,-737.12 125.5,-747.12 132.5,-747.12"/>
</g>
<!-- c1_forwarder_cardinalhq -->
<g id="node5" class="node">
<title>c1_forwarder_cardinalhq</title>
<polygon fill="#ffdddd" stroke="#ffdddd" points="140.75,-663.5 45.25,-663.5 45.25,-627.5 140.75,-627.5 140.75,-663.5"/>
<text text-anchor="middle" x="93" y="-642" font-family="Arial" font-size="10.00">forward/cardinalhq</text>
</g>
<!-- c1_chqdecorator&#45;&gt;c1_forwarder_cardinalhq -->
<g id="edge5" class="edge">
<title>c1_chqdecorator&#45;&gt;c1_forwarder_cardinalhq</title>
<path fill="none" stroke="black" d="M120.1,-699.2C116.13,-691.48 111.37,-682.21 106.94,-673.61"/>
<polygon fill="black" stroke="black" points="110.17,-672.24 102.49,-664.95 103.95,-675.44 110.17,-672.24"/>
</g>
<!-- c1_forwarder_datadog -->
<g id="node6" class="node">
<title>c1_forwarder_datadog</title>
<polygon fill="#ffdddd" stroke="#ffdddd" points="244.88,-663.5 159.12,-663.5 159.12,-627.5 244.88,-627.5 244.88,-663.5"/>
<text text-anchor="middle" x="202" y="-642" font-family="Arial" font-size="10.00">forward/datadog</text>
</g>
<!-- c1_chqdecorator&#45;&gt;c1_forwarder_datadog -->
<g id="edge4" class="edge">
<title>c1_chqdecorator&#45;&gt;c1_forwarder_datadog</title>
<path fill="none" stroke="black" d="M147.04,-699.2C155.73,-690.87 166.31,-680.72 175.86,-671.57"/>
<polygon fill="black" stroke="black" points="178.02,-674.34 182.82,-664.89 173.18,-669.29 178.02,-674.34"/>
</g>
<!-- c2_forwarder_cardinalhq -->
<g id="node7" class="node">
<title>c2_forwarder_cardinalhq</title>
<polygon fill="#ddddff" stroke="#ddddff" points="133.75,-591.5 38.25,-591.5 38.25,-555.5 133.75,-555.5 133.75,-591.5"/>
<text text-anchor="middle" x="86" y="-570" font-family="Arial" font-size="10.00">forward/cardinalhq</text>
</g>
<!-- c1_forwarder_cardinalhq&#45;&gt;c2_forwarder_cardinalhq -->
<g id="edge6" class="edge">
<title>c1_forwarder_cardinalhq&#45;&gt;c2_forwarder_cardinalhq</title>
<path fill="none" stroke="black" stroke-dasharray="5,2" d="M91.27,-627.2C90.54,-619.91 89.67,-611.23 88.85,-603.04"/>
<polygon fill="black" stroke="black" points="92.34,-602.71 87.86,-593.11 85.37,-603.41 92.34,-602.71"/>
</g>
<!-- c3_forwarder_datadog -->
<g id="node11" class="node">
<title>c3_forwarder_datadog</title>
<polygon fill="#ddddff" stroke="#ddddff" points="252.88,-591.5 167.12,-591.5 167.12,-555.5 252.88,-555.5 252.88,-591.5"/>
<text text-anchor="middle" x="210" y="-570" font-family="Arial" font-size="10.00">forward/datadog</text>
</g>
<!-- c1_forwarder_datadog&#45;&gt;c3_forwarder_datadog -->
<g id="edge10" class="edge">
<title>c1_forwarder_datadog&#45;&gt;c3_forwarder_datadog</title>
<path fill="none" stroke="black" stroke-dasharray="5,2" d="M203.98,-627.2C204.81,-619.91 205.8,-611.23 206.74,-603.04"/>
<polygon fill="black" stroke="black" points="210.22,-603.44 207.87,-593.11 203.26,-602.65 210.22,-603.44"/>
</g>
<!-- c2_chqenforcer_cardinalhq -->
<g id="node8" class="node">
<title>c2_chqenforcer_cardinalhq</title>
<polygon fill="#ddffdd" stroke="#ddffdd" points="139.12,-519.5 24.87,-519.5 24.87,-483.5 139.12,-483.5 139.12,-519.5"/>
<text text-anchor="middle" x="82" y="-498" font-family="Arial" font-size="10.00">chqenforcer/cardinalhq</text>
</g>
<!-- c2_forwarder_cardinalhq&#45;&gt;c2_chqenforcer_cardinalhq -->
<g id="edge7" class="edge">
<title>c2_forwarder_cardinalhq&#45;&gt;c2_chqenforcer_cardinalhq</title>
<path fill="none" stroke="red" d="M85.01,-555.2C84.59,-547.91 84.1,-539.23 83.63,-531.04"/>
<polygon fill="red" stroke="red" points="87.13,-530.9 83.06,-521.12 80.14,-531.3 87.13,-530.9"/>
</g>
<!-- c2_batcher_cardinalhq -->
<g id="node9" class="node">
<title>c2_batcher_cardinalhq</title>
<polygon fill="#ddffdd" stroke="#ddffdd" points="125.62,-447.5 38.38,-447.5 38.38,-411.5 125.62,-411.5 125.62,-447.5"/>
<text text-anchor="middle" x="82" y="-426" font-family="Arial" font-size="10.00">batch/cardinalhq</text>
</g>
<!-- c2_chqenforcer_cardinalhq&#45;&gt;c2_batcher_cardinalhq -->
<g id="edge8" class="edge">
<title>c2_chqenforcer_cardinalhq&#45;&gt;c2_batcher_cardinalhq</title>
<path fill="none" stroke="red" d="M82,-483.2C82,-475.91 82,-467.23 82,-459.04"/>
<polygon fill="red" stroke="red" points="85.5,-459.12 82,-449.12 78.5,-459.12 85.5,-459.12"/>
</g>
<!-- c2_otlp_cardinalhq -->
<g id="node10" class="node">
<title>c2_otlp_cardinalhq</title>
<polygon fill="#ffdddd" stroke="#ffdddd" points="121.5,-375.5 42.5,-375.5 42.5,-339.5 121.5,-339.5 121.5,-375.5"/>
<text text-anchor="middle" x="82" y="-354" font-family="Arial" font-size="10.00">otlp/cardinalhq</text>
</g>
<!-- c2_batcher_cardinalhq&#45;&gt;c2_otlp_cardinalhq -->
<g id="edge9" class="edge">
<title>c2_batcher_cardinalhq&#45;&gt;c2_otlp_cardinalhq</title>
<path fill="none" stroke="black" d="M82,-411.2C82,-403.91 82,-395.23 82,-387.04"/>
<polygon fill="black" stroke="black" points="85.5,-387.12 82,-377.12 78.5,-387.12 85.5,-387.12"/>
</g>
<!-- c3_chqenforcer_datadog -->
<g id="node12" class="node">
<title>c3_chqenforcer_datadog</title>
<polygon fill="#ddffdd" stroke="#ddffdd" points="267.25,-519.5 162.75,-519.5 162.75,-483.5 267.25,-483.5 267.25,-519.5"/>
<text text-anchor="middle" x="215" y="-498" font-family="Arial" font-size="10.00">chqenforcer/datadog</text>
</g>
<!-- c3_forwarder_datadog&#45;&gt;c3_chqenforcer_datadog -->
<g id="edge11" class="edge">
<title>c3_forwarder_datadog&#45;&gt;c3_chqenforcer_datadog</title>
<path fill="none" stroke="red" d="M211.24,-555.2C211.76,-547.91 212.38,-539.23 212.96,-531.04"/>
<polygon fill="red" stroke="red" points="216.45,-531.34 213.67,-521.11 209.47,-530.84 216.45,-531.34"/>
</g>
<!-- c3_batcher_datadog -->
<g id="node13" class="node">
<title>c3_batcher_datadog</title>
<polygon fill="#ddffdd" stroke="#ddffdd" points="257.88,-447.5 172.12,-447.5 172.12,-411.5 257.88,-411.5 257.88,-447.5"/>
<text text-anchor="middle" x="215" y="-426" font-family="Arial" font-size="10.00">batcher/datadog</text>
</g>
<!-- c3_chqenforcer_datadog&#45;&gt;c3_batcher_datadog -->
<g id="edge12" class="edge">
<title>c3_chqenforcer_datadog&#45;&gt;c3_batcher_datadog</title>
<path fill="none" stroke="red" d="M215,-483.2C215,-475.91 215,-467.23 215,-459.04"/>
<polygon fill="red" stroke="red" points="218.5,-459.12 215,-449.12 211.5,-459.12 218.5,-459.12"/>
</g>
<!-- c3_chqdatadog_datadog -->
<g id="node14" class="node">
<title>c3_chqdatadog_datadog</title>
<polygon fill="#ffdddd" stroke="#ffdddd" points="266.88,-375.5 163.12,-375.5 163.12,-339.5 266.88,-339.5 266.88,-375.5"/>
<text text-anchor="middle" x="215" y="-354" font-family="Arial" font-size="10.00">chqdatadog/datadog</text>
</g>
<!-- c3_batcher_datadog&#45;&gt;c3_chqdatadog_datadog -->
<g id="edge13" class="edge">
<title>c3_batcher_datadog&#45;&gt;c3_chqdatadog_datadog</title>
<path fill="none" stroke="black" d="M215,-411.2C215,-403.91 215,-395.23 215,-387.04"/>
<polygon fill="black" stroke="black" points="218.5,-387.12 215,-377.12 211.5,-387.12 218.5,-387.12"/>
</g>
<!-- c4_receiver_otlp -->
<g id="node15" class="node">
<title>c4_receiver_otlp</title>
<polygon fill="#ddddff" stroke="#ddddff" points="384,-879.5 330,-879.5 330,-843.5 384,-843.5 384,-879.5"/>
<text text-anchor="middle" x="357" y="-858" font-family="Arial" font-size="10.00">otlp/l1</text>
</g>
<!-- c4_memory_limiter -->
<g id="node17" class="node">
<title>c4_memory_limiter</title>
<polygon fill="#ddffdd" stroke="#ddffdd" points="433.38,-807.5 350.62,-807.5 350.62,-771.5 433.38,-771.5 433.38,-807.5"/>
<text text-anchor="middle" x="392" y="-786" font-family="Arial" font-size="10.00">memory_limiter</text>
</g>
<!-- c4_receiver_otlp&#45;&gt;c4_memory_limiter -->
<g id="edge15" class="edge">
<title>c4_receiver_otlp&#45;&gt;c4_memory_limiter</title>
<path fill="none" stroke="black" d="M365.65,-843.2C369.47,-835.57 374.04,-826.42 378.3,-817.9"/>
<polygon fill="black" stroke="black" points="381.43,-819.47 382.77,-808.96 375.17,-816.34 381.43,-819.47"/>
</g>
<!-- c4_receiver_datadog -->
<g id="node16" class="node">
<title>c4_receiver_datadog</title>
<polygon fill="#ddddff" stroke="#ddddff" points="478.38,-879.5 401.62,-879.5 401.62,-843.5 478.38,-843.5 478.38,-879.5"/>
<text text-anchor="middle" x="440" y="-858" font-family="Arial" font-size="10.00">chqdatadog/l1</text>
</g>
<!-- c4_receiver_datadog&#45;&gt;c4_memory_limiter -->
<g id="edge14" class="edge">
<title>c4_receiver_datadog&#45;&gt;c4_memory_limiter</title>
<path fill="none" stroke="black" d="M428.13,-843.2C422.73,-835.31 416.21,-825.8 410.2,-817.05"/>
<polygon fill="black" stroke="black" points="413.13,-815.12 404.58,-808.85 407.35,-819.08 413.13,-815.12"/>
</g>
<!-- c4_exporter_loadbalance -->
<g id="node18" class="node">
<title>c4_exporter_loadbalance</title>
<polygon fill="#ffdddd" stroke="#ffdddd" points="434.88,-735.5 349.12,-735.5 349.12,-699.5 434.88,-699.5 434.88,-735.5"/>
<text text-anchor="middle" x="392" y="-714" font-family="Arial" font-size="10.00">loadbalancing/l2</text>
</g>
<!-- c4_memory_limiter&#45;&gt;c4_exporter_loadbalance -->
<g id="edge16" class="edge">
<title>c4_memory_limiter&#45;&gt;c4_exporter_loadbalance</title>
<path fill="none" stroke="black" d="M392,-771.2C392,-763.91 392,-755.23 392,-747.04"/>
<polygon fill="black" stroke="black" points="395.5,-747.12 392,-737.12 388.5,-747.12 395.5,-747.12"/>
</g>
<!-- c5_receiver_otlp -->
<g id="node19" class="node">
<title>c5_receiver_otlp</title>
<polygon fill="#ddddff" stroke="#ddddff" points="419,-663.5 365,-663.5 365,-627.5 419,-627.5 419,-663.5"/>
<text text-anchor="middle" x="392" y="-642" font-family="Arial" font-size="10.00">otlp/l2</text>
</g>
<!-- c4_exporter_loadbalance&#45;&gt;c5_receiver_otlp -->
<g id="edge17" class="edge">
<title>c4_exporter_loadbalance&#45;&gt;c5_receiver_otlp</title>
<path fill="none" stroke="blue" stroke-dasharray="1,5" d="M392,-699.2C392,-691.91 392,-683.23 392,-675.04"/>
<polygon fill="blue" stroke="blue" points="395.5,-675.12 392,-665.12 388.5,-675.12 395.5,-675.12"/>
</g>
<!-- c5_memory_limiter -->
<g id="node20" class="node">
<title>c5_memory_limiter</title>
<polygon fill="#ddffdd" stroke="#ddffdd" points="433.38,-591.5 350.62,-591.5 350.62,-555.5 433.38,-555.5 433.38,-591.5"/>
<text text-anchor="middle" x="392" y="-570" font-family="Arial" font-size="10.00">memory_limiter</text>
</g>
<!-- c5_receiver_otlp&#45;&gt;c5_memory_limiter -->
<g id="edge18" class="edge">
<title>c5_receiver_otlp&#45;&gt;c5_memory_limiter</title>
<path fill="none" stroke="black" d="M392,-627.2C392,-619.91 392,-611.23 392,-603.04"/>
<polygon fill="black" stroke="black" points="395.5,-603.12 392,-593.12 388.5,-603.12 395.5,-603.12"/>
</g>
<!-- c5_cumulativetodelta -->
<g id="node21" class="node">
<title>c5_cumulativetodelta</title>
<polygon fill="#ddffdd" stroke="#ddffdd" points="438.25,-519.5 345.75,-519.5 345.75,-483.5 438.25,-483.5 438.25,-519.5"/>
<text text-anchor="middle" x="392" y="-498" font-family="Arial" font-size="10.00">cumulativetodelta</text>
</g>
<!-- c5_memory_limiter&#45;&gt;c5_cumulativetodelta -->
<g id="edge19" class="edge">
<title>c5_memory_limiter&#45;&gt;c5_cumulativetodelta</title>
<path fill="none" stroke="red" d="M392,-555.2C392,-547.91 392,-539.23 392,-531.04"/>
<polygon fill="red" stroke="red" points="395.5,-531.12 392,-521.12 388.5,-531.12 395.5,-531.12"/>
</g>
<!-- c5_chqdecorator -->
<g id="node22" class="node">
<title>c5_chqdecorator</title>
<polygon fill="#ddffdd" stroke="#ddffdd" points="428.12,-447.5 355.88,-447.5 355.88,-411.5 428.12,-411.5 428.12,-447.5"/>
<text text-anchor="middle" x="392" y="-426" font-family="Arial" font-size="10.00">chqdecorator</text>
</g>
<!-- c5_cumulativetodelta&#45;&gt;c5_chqdecorator -->
<g id="edge20" class="edge">
<title>c5_cumulativetodelta&#45;&gt;c5_chqdecorator</title>
<path fill="none" stroke="red" d="M392,-483.2C392,-475.91 392,-467.23 392,-459.04"/>
<polygon fill="red" stroke="red" points="395.5,-459.12 392,-449.12 388.5,-459.12 395.5,-459.12"/>
</g>
<!-- c5_forwarder_cardinalhq -->
<g id="node23" class="node">
<title>c5_forwarder_cardinalhq</title>
<polygon fill="#ffdddd" stroke="#ffdddd" points="386.75,-375.5 291.25,-375.5 291.25,-339.5 386.75,-339.5 386.75,-375.5"/>
<text text-anchor="middle" x="339" y="-354" font-family="Arial" font-size="10.00">forward/cardinalhq</text>
</g>
<!-- c5_chqdecorator&#45;&gt;c5_forwarder_cardinalhq -->
<g id="edge21" class="edge">
<title>c5_chqdecorator&#45;&gt;c5_forwarder_cardinalhq</title>
<path fill="none" stroke="black" d="M378.9,-411.2C372.87,-403.23 365.58,-393.6 358.89,-384.76"/>
<polygon fill="black" stroke="black" points="361.69,-382.67 352.86,-376.81 356.11,-386.9 361.69,-382.67"/>
</g>
<!-- c5_forwarder_datadog -->
<g id="node24" class="node">
<title>c5_forwarder_datadog</title>
<polygon fill="#ffdddd" stroke="#ffdddd" points="490.88,-375.5 405.12,-375.5 405.12,-339.5 490.88,-339.5 490.88,-375.5"/>
<text text-anchor="middle" x="448" y="-354" font-family="Arial" font-size="10.00">forward/datadog</text>
</g>
<!-- c5_chqdecorator&#45;&gt;c5_forwarder_datadog -->
<g id="edge22" class="edge">
<title>c5_chqdecorator&#45;&gt;c5_forwarder_datadog</title>
<path fill="none" stroke="black" d="M405.84,-411.2C412.29,-403.14 420.08,-393.39 427.21,-384.48"/>
<polygon fill="black" stroke="black" points="429.86,-386.78 433.37,-376.79 424.39,-382.41 429.86,-386.78"/>
</g>
<!-- c6_forwarder_cardinalhq -->
<g id="node25" class="node">
<title>c6_forwarder_cardinalhq</title>
<polygon fill="#ddddff" stroke="#ddddff" points="378.75,-291.75 283.25,-291.75 283.25,-255.75 378.75,-255.75 378.75,-291.75"/>
<text text-anchor="middle" x="331" y="-270.25" font-family="Arial" font-size="10.00">forward/cardinalhq</text>
</g>
<!-- c5_forwarder_cardinalhq&#45;&gt;c6_forwarder_cardinalhq -->
<g id="edge23" class="edge">
<title>c5_forwarder_cardinalhq&#45;&gt;c6_forwarder_cardinalhq</title>
<path fill="none" stroke="black" stroke-dasharray="5,2" d="M337.3,-339.16C336.29,-328.76 334.96,-315.27 333.8,-303.32"/>
<polygon fill="black" stroke="black" points="337.3,-303.18 332.84,-293.57 330.33,-303.86 337.3,-303.18"/>
</g>
<!-- c7_forwarder_datadog -->
<g id="node29" class="node">
<title>c7_forwarder_datadog</title>
<polygon fill="#ddddff" stroke="#ddddff" points="498.88,-291.75 413.12,-291.75 413.12,-255.75 498.88,-255.75 498.88,-291.75"/>
<text text-anchor="middle" x="456" y="-270.25" font-family="Arial" font-size="10.00">forward/datadog</text>
</g>
<!-- c5_forwarder_datadog&#45;&gt;c7_forwarder_datadog -->
<g id="edge27" class="edge">
<title>c5_forwarder_datadog&#45;&gt;c7_forwarder_datadog</title>
<path fill="none" stroke="black" stroke-dasharray="5,2" d="M449.7,-339.16C450.71,-328.76 452.04,-315.27 453.2,-303.32"/>
<polygon fill="black" stroke="black" points="456.67,-303.86 454.16,-293.57 449.7,-303.18 456.67,-303.86"/>
</g>
<!-- c6_chqenforcer_cardinalhq -->
<g id="node26" class="node">
<title>c6_chqenforcer_cardinalhq</title>
<polygon fill="#ddffdd" stroke="#ddffdd" points="384.12,-219.75 269.88,-219.75 269.88,-183.75 384.12,-183.75 384.12,-219.75"/>
<text text-anchor="middle" x="327" y="-198.25" font-family="Arial" font-size="10.00">chqenforcer/cardinalhq</text>
</g>
<!-- c6_forwarder_cardinalhq&#45;&gt;c6_chqenforcer_cardinalhq -->
<g id="edge24" class="edge">
<title>c6_forwarder_cardinalhq&#45;&gt;c6_chqenforcer_cardinalhq</title>
<path fill="none" stroke="red" d="M330.01,-255.45C329.59,-248.16 329.1,-239.48 328.63,-231.29"/>
<polygon fill="red" stroke="red" points="332.13,-231.15 328.06,-221.37 325.14,-231.55 332.13,-231.15"/>
</g>
<!-- c6_batcher_cardinalhq -->
<g id="node27" class="node">
<title>c6_batcher_cardinalhq</title>
<polygon fill="#ddffdd" stroke="#ddffdd" points="370.62,-147.75 283.38,-147.75 283.38,-111.75 370.62,-111.75 370.62,-147.75"/>
<text text-anchor="middle" x="327" y="-126.25" font-family="Arial" font-size="10.00">batch/cardinalhq</text>
</g>
<!-- c6_chqenforcer_cardinalhq&#45;&gt;c6_batcher_cardinalhq -->
<g id="edge25" class="edge">
<title>c6_chqenforcer_cardinalhq&#45;&gt;c6_batcher_cardinalhq</title>
<path fill="none" stroke="red" d="M327,-183.45C327,-176.16 327,-167.48 327,-159.29"/>
<polygon fill="red" stroke="red" points="330.5,-159.37 327,-149.37 323.5,-159.37 330.5,-159.37"/>
</g>
<!-- c6_otlp_cardinalhq -->
<g id="node28" class="node">
<title>c6_otlp_cardinalhq</title>
<polygon fill="#ffdddd" stroke="#ffdddd" points="366.5,-75.75 287.5,-75.75 287.5,-39.75 366.5,-39.75 366.5,-75.75"/>
<text text-anchor="middle" x="327" y="-54.25" font-family="Arial" font-size="10.00">otlp/cardinalhq</text>
</g>
<!-- c6_batcher_cardinalhq&#45;&gt;c6_otlp_cardinalhq -->
<g id="edge26" class="edge">
<title>c6_batcher_cardinalhq&#45;&gt;c6_otlp_cardinalhq</title>
<path fill="none" stroke="black" d="M327,-111.45C327,-104.16 327,-95.48 327,-87.29"/>
<polygon fill="black" stroke="black" points="330.5,-87.37 327,-77.37 323.5,-87.37 330.5,-87.37"/>
</g>
<!-- c7_chqenforcer_datadog -->
<g id="node30" class="node">
<title>c7_chqenforcer_datadog</title>
<polygon fill="#ddffdd" stroke="#ddffdd" points="512.25,-219.75 407.75,-219.75 407.75,-183.75 512.25,-183.75 512.25,-219.75"/>
<text text-anchor="middle" x="460" y="-198.25" font-family="Arial" font-size="10.00">chqenforcer/datadog</text>
</g>
<!-- c7_forwarder_datadog&#45;&gt;c7_chqenforcer_datadog -->
<g id="edge28" class="edge">
<title>c7_forwarder_datadog&#45;&gt;c7_chqenforcer_datadog</title>
<path fill="none" stroke="red" d="M456.99,-255.45C457.41,-248.16 457.9,-239.48 458.37,-231.29"/>
<polygon fill="red" stroke="red" points="461.86,-231.55 458.94,-221.37 454.87,-231.15 461.86,-231.55"/>
</g>
<!-- c7_batcher_datadog -->
<g id="node31" class="node">
<title>c7_batcher_datadog</title>
<polygon fill="#ddffdd" stroke="#ddffdd" points="502.88,-147.75 417.12,-147.75 417.12,-111.75 502.88,-111.75 502.88,-147.75"/>
<text text-anchor="middle" x="460" y="-126.25" font-family="Arial" font-size="10.00">batcher/datadog</text>
</g>
<!-- c7_chqenforcer_datadog&#45;&gt;c7_batcher_datadog -->
<g id="edge29" class="edge">
<title>c7_chqenforcer_datadog&#45;&gt;c7_batcher_datadog</title>
<path fill="none" stroke="red" d="M460,-183.45C460,-176.16 460,-167.48 460,-159.29"/>
<polygon fill="red" stroke="red" points="463.5,-159.37 460,-149.37 456.5,-159.37 463.5,-159.37"/>
</g>
<!-- c7_chqdatadog_datadog -->
<g id="node32" class="node">
<title>c7_chqdatadog_datadog</title>
<polygon fill="#ffdddd" stroke="#ffdddd" points="511.88,-75.75 408.12,-75.75 408.12,-39.75 511.88,-39.75 511.88,-75.75"/>
<text text-anchor="middle" x="460" y="-54.25" font-family="Arial" font-size="10.00">chqdatadog/datadog</text>
</g>
<!-- c7_batcher_datadog&#45;&gt;c7_chqdatadog_datadog -->
<g id="edge30" class="edge">
<title>c7_batcher_datadog&#45;&gt;c7_chqdatadog_datadog</title>
<path fill="none" stroke="black" d="M460,-111.45C460,-104.16 460,-95.48 460,-87.29"/>
<polygon fill="black" stroke="black" points="463.5,-87.37 460,-77.37 456.5,-87.37 463.5,-87.37"/>
</g>
<!-- c8_receiver_otlp -->
<g id="node33" class="node">
<title>c8_receiver_otlp</title>
<polygon fill="#ddddff" stroke="#ddddff" points="668,-879.5 614,-879.5 614,-843.5 668,-843.5 668,-879.5"/>
<text text-anchor="middle" x="641" y="-858" font-family="Arial" font-size="10.00">otlp/l1</text>
</g>
<!-- c8_memory_limiter -->
<g id="node35" class="node">
<title>c8_memory_limiter</title>
<polygon fill="#ddffdd" stroke="#ddffdd" points="729.38,-807.5 646.62,-807.5 646.62,-771.5 729.38,-771.5 729.38,-807.5"/>
<text text-anchor="middle" x="688" y="-786" font-family="Arial" font-size="10.00">memory_limiter</text>
</g>
<!-- c8_receiver_otlp&#45;&gt;c8_memory_limiter -->
<g id="edge32" class="edge">
<title>c8_receiver_otlp&#45;&gt;c8_memory_limiter</title>
<path fill="none" stroke="black" d="M652.62,-843.2C657.91,-835.31 664.3,-825.8 670.18,-817.05"/>
<polygon fill="black" stroke="black" points="673,-819.11 675.67,-808.86 667.19,-815.21 673,-819.11"/>
</g>
<!-- c8_receiver_datadog -->
<g id="node34" class="node">
<title>c8_receiver_datadog</title>
<polygon fill="#ddddff" stroke="#ddddff" points="762.38,-879.5 685.62,-879.5 685.62,-843.5 762.38,-843.5 762.38,-879.5"/>
<text text-anchor="middle" x="724" y="-858" font-family="Arial" font-size="10.00">chqdatadog/l2</text>
</g>
<!-- c8_receiver_datadog&#45;&gt;c8_memory_limiter -->
<g id="edge31" class="edge">
<title>c8_receiver_datadog&#45;&gt;c8_memory_limiter</title>
<path fill="none" stroke="black" d="M715.1,-843.2C711.13,-835.48 706.37,-826.21 701.94,-817.61"/>
<polygon fill="black" stroke="black" points="705.17,-816.24 697.49,-808.95 698.95,-819.44 705.17,-816.24"/>
</g>
<!-- c8_exporter_loadbalance -->
<g id="node36" class="node">
<title>c8_exporter_loadbalance</title>
<polygon fill="#ffdddd" stroke="#ffdddd" points="730.88,-735.5 645.12,-735.5 645.12,-699.5 730.88,-699.5 730.88,-735.5"/>
<text text-anchor="middle" x="688" y="-714" font-family="Arial" font-size="10.00">loadbalancing/l2</text>
</g>
<!-- c8_memory_limiter&#45;&gt;c8_exporter_loadbalance -->
<g id="edge33" class="edge">
<title>c8_memory_limiter&#45;&gt;c8_exporter_loadbalance</title>
<path fill="none" stroke="black" d="M688,-771.2C688,-763.91 688,-755.23 688,-747.04"/>
<polygon fill="black" stroke="black" points="691.5,-747.12 688,-737.12 684.5,-747.12 691.5,-747.12"/>
</g>
<!-- c9_receiver_otlp -->
<g id="node37" class="node">
<title>c9_receiver_otlp</title>
<polygon fill="#ddddff" stroke="#ddddff" points="715,-663.5 661,-663.5 661,-627.5 715,-627.5 715,-663.5"/>
<text text-anchor="middle" x="688" y="-642" font-family="Arial" font-size="10.00">otlp/l2</text>
</g>
<!-- c8_exporter_loadbalance&#45;&gt;c9_receiver_otlp -->
<g id="edge34" class="edge">
<title>c8_exporter_loadbalance&#45;&gt;c9_receiver_otlp</title>
<path fill="none" stroke="blue" stroke-dasharray="1,5" d="M688,-699.2C688,-691.91 688,-683.23 688,-675.04"/>
<polygon fill="blue" stroke="blue" points="691.5,-675.12 688,-665.12 684.5,-675.12 691.5,-675.12"/>
</g>
<!-- c9_memory_limiter -->
<g id="node38" class="node">
<title>c9_memory_limiter</title>
<polygon fill="#ddffdd" stroke="#ddffdd" points="729.38,-591.5 646.62,-591.5 646.62,-555.5 729.38,-555.5 729.38,-591.5"/>
<text text-anchor="middle" x="688" y="-570" font-family="Arial" font-size="10.00">memory_limiter</text>
</g>
<!-- c9_receiver_otlp&#45;&gt;c9_memory_limiter -->
<g id="edge35" class="edge">
<title>c9_receiver_otlp&#45;&gt;c9_memory_limiter</title>
<path fill="none" stroke="black" d="M688,-627.2C688,-619.91 688,-611.23 688,-603.04"/>
<polygon fill="black" stroke="black" points="691.5,-603.12 688,-593.12 684.5,-603.12 691.5,-603.12"/>
</g>
<!-- c9_groupbytrace -->
<g id="node39" class="node">
<title>c9_groupbytrace</title>
<polygon fill="#ddffdd" stroke="#ddffdd" points="724.12,-519.5 651.88,-519.5 651.88,-483.5 724.12,-483.5 724.12,-519.5"/>
<text text-anchor="middle" x="688" y="-498" font-family="Arial" font-size="10.00">groupbytrace</text>
</g>
<!-- c9_memory_limiter&#45;&gt;c9_groupbytrace -->
<g id="edge36" class="edge">
<title>c9_memory_limiter&#45;&gt;c9_groupbytrace</title>
<path fill="none" stroke="red" d="M688,-555.2C688,-547.91 688,-539.23 688,-531.04"/>
<polygon fill="red" stroke="red" points="691.5,-531.12 688,-521.12 684.5,-531.12 691.5,-531.12"/>
</g>
<!-- c9_chqdecorator -->
<g id="node40" class="node">
<title>c9_chqdecorator</title>
<polygon fill="#ddffdd" stroke="#ddffdd" points="724.12,-447.5 651.88,-447.5 651.88,-411.5 724.12,-411.5 724.12,-447.5"/>
<text text-anchor="middle" x="688" y="-426" font-family="Arial" font-size="10.00">chqdecorator</text>
</g>
<!-- c9_groupbytrace&#45;&gt;c9_chqdecorator -->
<g id="edge37" class="edge">
<title>c9_groupbytrace&#45;&gt;c9_chqdecorator</title>
<path fill="none" stroke="red" d="M688,-483.2C688,-475.91 688,-467.23 688,-459.04"/>
<polygon fill="red" stroke="red" points="691.5,-459.12 688,-449.12 684.5,-459.12 691.5,-459.12"/>
</g>
<!-- c9_forwarder_cardinalhq -->
<g id="node41" class="node">
<title>c9_forwarder_cardinalhq</title>
<polygon fill="#ffdddd" stroke="#ffdddd" points="682.75,-375.5 587.25,-375.5 587.25,-339.5 682.75,-339.5 682.75,-375.5"/>
<text text-anchor="middle" x="635" y="-354" font-family="Arial" font-size="10.00">forward/cardinalhq</text>
</g>
<!-- c9_chqdecorator&#45;&gt;c9_forwarder_cardinalhq -->
<g id="edge38" class="edge">
<title>c9_chqdecorator&#45;&gt;c9_forwarder_cardinalhq</title>
<path fill="none" stroke="black" d="M674.9,-411.2C668.87,-403.23 661.58,-393.6 654.89,-384.76"/>
<polygon fill="black" stroke="black" points="657.69,-382.67 648.86,-376.81 652.11,-386.9 657.69,-382.67"/>
</g>
<!-- c9_forwarder_datadog -->
<g id="node42" class="node">
<title>c9_forwarder_datadog</title>
<polygon fill="#ffdddd" stroke="#ffdddd" points="786.88,-375.5 701.12,-375.5 701.12,-339.5 786.88,-339.5 786.88,-375.5"/>
<text text-anchor="middle" x="744" y="-354" font-family="Arial" font-size="10.00">forward/datadog</text>
</g>
<!-- c9_chqdecorator&#45;&gt;c9_forwarder_datadog -->
<g id="edge39" class="edge">
<title>c9_chqdecorator&#45;&gt;c9_forwarder_datadog</title>
<path fill="none" stroke="black" d="M701.84,-411.2C708.29,-403.14 716.08,-393.39 723.21,-384.48"/>
<polygon fill="black" stroke="black" points="725.86,-386.78 729.37,-376.79 720.39,-382.41 725.86,-386.78"/>
</g>
<!-- c10_forwarder_cardinalhq -->
<g id="node43" class="node">
<title>c10_forwarder_cardinalhq</title>
<polygon fill="#ddddff" stroke="#ddddff" points="675.75,-291.75 580.25,-291.75 580.25,-255.75 675.75,-255.75 675.75,-291.75"/>
<text text-anchor="middle" x="628" y="-270.25" font-family="Arial" font-size="10.00">forward/cardinalhq</text>
</g>
<!-- c9_forwarder_cardinalhq&#45;&gt;c10_forwarder_cardinalhq -->
<g id="edge40" class="edge">
<title>c9_forwarder_cardinalhq&#45;&gt;c10_forwarder_cardinalhq</title>
<path fill="none" stroke="black" stroke-dasharray="5,2" d="M633.52,-339.16C632.62,-328.76 631.47,-315.27 630.45,-303.32"/>
<polygon fill="black" stroke="black" points="633.95,-303.24 629.61,-293.57 626.98,-303.83 633.95,-303.24"/>
</g>
<!-- c11_forwarder_datadog -->
<g id="node47" class="node">
<title>c11_forwarder_datadog</title>
<polygon fill="#ddddff" stroke="#ddddff" points="794.88,-291.75 709.12,-291.75 709.12,-255.75 794.88,-255.75 794.88,-291.75"/>
<text text-anchor="middle" x="752" y="-270.25" font-family="Arial" font-size="10.00">forward/datadog</text>
</g>
<!-- c9_forwarder_datadog&#45;&gt;c11_forwarder_datadog -->
<g id="edge44" class="edge">
<title>c9_forwarder_datadog&#45;&gt;c11_forwarder_datadog</title>
<path fill="none" stroke="black" stroke-dasharray="5,2" d="M745.7,-339.16C746.71,-328.76 748.04,-315.27 749.2,-303.32"/>
<polygon fill="black" stroke="black" points="752.67,-303.86 750.16,-293.57 745.7,-303.18 752.67,-303.86"/>
</g>
<!-- c10_chqenforcer_cardinalhq -->
<g id="node44" class="node">
<title>c10_chqenforcer_cardinalhq</title>
<polygon fill="#ddffdd" stroke="#ddffdd" points="681.12,-219.75 566.88,-219.75 566.88,-183.75 681.12,-183.75 681.12,-219.75"/>
<text text-anchor="middle" x="624" y="-198.25" font-family="Arial" font-size="10.00">chqenforcer/cardinalhq</text>
</g>
<!-- c10_forwarder_cardinalhq&#45;&gt;c10_chqenforcer_cardinalhq -->
<g id="edge41" class="edge">
<title>c10_forwarder_cardinalhq&#45;&gt;c10_chqenforcer_cardinalhq</title>
<path fill="none" stroke="red" d="M627.01,-255.45C626.59,-248.16 626.1,-239.48 625.63,-231.29"/>
<polygon fill="red" stroke="red" points="629.13,-231.15 625.06,-221.37 622.14,-231.55 629.13,-231.15"/>
</g>
<!-- c10_batcher_cardinalhq -->
<g id="node45" class="node">
<title>c10_batcher_cardinalhq</title>
<polygon fill="#ddffdd" stroke="#ddffdd" points="667.62,-147.75 580.38,-147.75 580.38,-111.75 667.62,-111.75 667.62,-147.75"/>
<text text-anchor="middle" x="624" y="-126.25" font-family="Arial" font-size="10.00">batch/cardinalhq</text>
</g>
<!-- c10_chqenforcer_cardinalhq&#45;&gt;c10_batcher_cardinalhq -->
<g id="edge42" class="edge">
<title>c10_chqenforcer_cardinalhq&#45;&gt;c10_batcher_cardinalhq</title>
<path fill="none" stroke="red" d="M624,-183.45C624,-176.16 624,-167.48 624,-159.29"/>
<polygon fill="red" stroke="red" points="627.5,-159.37 624,-149.37 620.5,-159.37 627.5,-159.37"/>
</g>
<!-- c10_otlp_cardinalhq -->
<g id="node46" class="node">
<title>c10_otlp_cardinalhq</title>
<polygon fill="#ffdddd" stroke="#ffdddd" points="663.5,-75.75 584.5,-75.75 584.5,-39.75 663.5,-39.75 663.5,-75.75"/>
<text text-anchor="middle" x="624" y="-54.25" font-family="Arial" font-size="10.00">otlp/cardinalhq</text>
</g>
<!-- c10_batcher_cardinalhq&#45;&gt;c10_otlp_cardinalhq -->
<g id="edge43" class="edge">
<title>c10_batcher_cardinalhq&#45;&gt;c10_otlp_cardinalhq</title>
<path fill="none" stroke="black" d="M624,-111.45C624,-104.16 624,-95.48 624,-87.29"/>
<polygon fill="black" stroke="black" points="627.5,-87.37 624,-77.37 620.5,-87.37 627.5,-87.37"/>
</g>
<!-- c11_chqenforcer_datadog -->
<g id="node48" class="node">
<title>c11_chqenforcer_datadog</title>
<polygon fill="#ddffdd" stroke="#ddffdd" points="809.25,-219.75 704.75,-219.75 704.75,-183.75 809.25,-183.75 809.25,-219.75"/>
<text text-anchor="middle" x="757" y="-198.25" font-family="Arial" font-size="10.00">chqenforcer/datadog</text>
</g>
<!-- c11_forwarder_datadog&#45;&gt;c11_chqenforcer_datadog -->
<g id="edge45" class="edge">
<title>c11_forwarder_datadog&#45;&gt;c11_chqenforcer_datadog</title>
<path fill="none" stroke="red" d="M753.24,-255.45C753.76,-248.16 754.38,-239.48 754.96,-231.29"/>
<polygon fill="red" stroke="red" points="758.45,-231.59 755.67,-221.36 751.47,-231.09 758.45,-231.59"/>
</g>
<!-- c11_batcher_datadog -->
<g id="node49" class="node">
<title>c11_batcher_datadog</title>
<polygon fill="#ddffdd" stroke="#ddffdd" points="799.88,-147.75 714.12,-147.75 714.12,-111.75 799.88,-111.75 799.88,-147.75"/>
<text text-anchor="middle" x="757" y="-126.25" font-family="Arial" font-size="10.00">batcher/datadog</text>
</g>
<!-- c11_chqenforcer_datadog&#45;&gt;c11_batcher_datadog -->
<g id="edge46" class="edge">
<title>c11_chqenforcer_datadog&#45;&gt;c11_batcher_datadog</title>
<path fill="none" stroke="red" d="M757,-183.45C757,-176.16 757,-167.48 757,-159.29"/>
<polygon fill="red" stroke="red" points="760.5,-159.37 757,-149.37 753.5,-159.37 760.5,-159.37"/>
</g>
<!-- c11_chqdatadog_datadog -->
<g id="node50" class="node">
<title>c11_chqdatadog_datadog</title>
<polygon fill="#ffdddd" stroke="#ffdddd" points="808.88,-75.75 705.12,-75.75 705.12,-39.75 808.88,-39.75 808.88,-75.75"/>
<text text-anchor="middle" x="757" y="-54.25" font-family="Arial" font-size="10.00">chqdatadog/datadog</text>
</g>
<!-- c11_batcher_datadog&#45;&gt;c11_chqdatadog_datadog -->
<g id="edge47" class="edge">
<title>c11_batcher_datadog&#45;&gt;c11_chqdatadog_datadog</title>
<path fill="none" stroke="black" d="M757,-111.45C757,-104.16 757,-95.48 757,-87.29"/>
<polygon fill="black" stroke="black" points="760.5,-87.37 757,-77.37 753.5,-87.37 760.5,-87.37"/>
</g>
</g>
</svg>
