<?xml version="1.0" encoding="UTF-8" standalone="no"?>
<!DOCTYPE svg PUBLIC "-//W3C//DTD SVG 1.1//EN"
 "http://www.w3.org/Graphics/SVG/1.1/DTD/svg11.dtd">
<!-- Generated by graphviz version 11.0.0 (20240428.1522)
 -->
<!-- Title: G Pages: 1 -->
<svg width="1619pt" height="895pt"
 viewBox="0.00 0.00 1618.75 895.00" xmlns="http://www.w3.org/2000/svg" xmlns:xlink="http://www.w3.org/1999/xlink">
<g id="graph0" class="graph" transform="scale(1 1) rotate(0) translate(4 891)">
<title>G</title>
<polygon fill="white" stroke="none" points="-4,4 -4,-891 1614.75,-891 1614.75,4 -4,4"/>
<g id="clust1" class="cluster">
<title>cluster_1</title>
<polygon fill="#ffddff" stroke="#ffddff" points="8,-62 8,-300 463,-300 463,-62 8,-62"/>
<text text-anchor="middle" x="235.5" y="-282.7" font-family="Arial" font-size="14.00">Logs Intake</text>
</g>
<g id="clust2" class="cluster">
<title>cluster_2</title>
<polygon fill="#ffddff" stroke="#ffddff" points="484.88,-176 484.88,-252 1033.62,-252 1033.62,-176 484.88,-176"/>
<text text-anchor="middle" x="759.25" y="-182.45" font-family="Arial" font-size="14.00">Logs CardinalHQ</text>
</g>
<g id="clust3" class="cluster">
<title>cluster_3</title>
<polygon fill="#ffddff" stroke="#ffddff" points="489.75,-92 489.75,-168 1046,-168 1046,-92 489.75,-92"/>
<text text-anchor="middle" x="767.88" y="-98.45" font-family="Arial" font-size="14.00">Logs Datadog</text>
</g>
<g id="clust4" class="cluster">
<title>cluster_4</title>
<polygon fill="#ffddff" stroke="#ffddff" points="483,-8 483,-84 752.25,-84 752.25,-8 483,-8"/>
<text text-anchor="middle" x="617.62" y="-14.45" font-family="Arial" font-size="14.00">Logs Intake Stats</text>
</g>
<g id="clust5" class="cluster">
<title>cluster_200</title>
<polygon fill="#ffffbb" stroke="#ffffbb" points="359,-611 359,-849 1043.75,-849 1043.75,-611 359,-611"/>
<text text-anchor="middle" x="701.38" y="-617.45" font-family="Arial" font-size="14.00">Metrics Intake</text>
</g>
<g id="clust6" class="cluster">
<title>cluster_201</title>
<polygon fill="#ffffbb" stroke="#ffffbb" points="1070.12,-803 1070.12,-879 1590.38,-879 1590.38,-803 1070.12,-803"/>
<text text-anchor="middle" x="1330.25" y="-809.45" font-family="Arial" font-size="14.00">Metrics CardinalHQ</text>
</g>
<g id="clust7" class="cluster">
<title>cluster_202</title>
<polygon fill="#ffffbb" stroke="#ffffbb" points="1075,-719 1075,-795 1602.75,-795 1602.75,-719 1075,-719"/>
<text text-anchor="middle" x="1338.88" y="-725.45" font-family="Arial" font-size="14.00">Metrics Datadog</text>
</g>
<g id="clust8" class="cluster">
<title>cluster_203</title>
<polygon fill="#ffffbb" stroke="#ffffbb" points="1068.25,-635 1068.25,-711 1339.75,-711 1339.75,-635 1068.25,-635"/>
<text text-anchor="middle" x="1204" y="-641.45" font-family="Arial" font-size="14.00">Metrics Intake Stats</text>
</g>
<g id="clust9" class="cluster">
<title>cluster_204</title>
<polygon fill="#ffffbb" stroke="#ffffbb" points="1079.12,-539 1079.12,-615 1307.75,-615 1307.75,-539 1079.12,-539"/>
<text text-anchor="middle" x="1193.44" y="-545.45" font-family="Arial" font-size="14.00">Metrics S3 Writer</text>
</g>
<g id="clust10" class="cluster">
<title>cluster_400</title>
<polygon fill="#ddffff" stroke="#ddffff" points="8,-308 8,-600 598.25,-600 598.25,-308 8,-308"/>
<text text-anchor="middle" x="303.12" y="-314.45" font-family="Arial" font-size="14.00">Spans Intake</text>
</g>
<g id="clust11" class="cluster">
<title>cluster_401</title>
<polygon fill="#ddffff" stroke="#ddffff" points="629.5,-443 629.5,-519 1173.38,-519 1173.38,-443 629.5,-443"/>
<text text-anchor="middle" x="901.44" y="-449.45" font-family="Arial" font-size="14.00">Spans CardinalHQ</text>
</g>
<g id="clust12" class="cluster">
<title>cluster_402</title>
<polygon fill="#ddffff" stroke="#ddffff" points="634.38,-359 634.38,-435 1185.75,-435 1185.75,-359 634.38,-359"/>
<text text-anchor="middle" x="910.06" y="-365.45" font-family="Arial" font-size="14.00">Spans Datadog</text>
</g>
<g id="clust13" class="cluster">
<title>cluster_403</title>
<polygon fill="#ddffff" stroke="#ddffff" points="627.62,-275 627.62,-351 906.25,-351 906.25,-275 627.62,-275"/>
<text text-anchor="middle" x="766.94" y="-281.45" font-family="Arial" font-size="14.00">Spans Intake Stats</text>
</g>
<g id="clust14" class="cluster">
<title>cluster_404</title>
<polygon fill="#ddffff" stroke="#ddffff" points="647.88,-527 647.88,-603 1032.88,-603 1032.88,-527 647.88,-527"/>
<text text-anchor="middle" x="840.38" y="-533.45" font-family="Arial" font-size="14.00">Spans Span Stats</text>
</g>
<!-- c1_receiver_otlp -->
<g id="node1" class="node">
<title>c1_receiver_otlp</title>
<polygon fill="#ddddff" stroke="#ddddff" points="81.38,-133 27.38,-133 27.38,-97 81.38,-97 81.38,-133"/>
<text text-anchor="middle" x="54.38" y="-111.5" font-family="Arial" font-size="10.00">otlp/l1</text>
</g>
<!-- c1_memory_limiter -->
<g id="node3" class="node">
<title>c1_memory_limiter</title>
<polygon fill="#ddffdd" stroke="#ddffdd" points="211.5,-173 128.75,-173 128.75,-137 211.5,-137 211.5,-173"/>
<text text-anchor="middle" x="170.12" y="-151.5" font-family="Arial" font-size="10.00">memory_limiter</text>
</g>
<!-- c1_receiver_otlp&#45;&gt;c1_memory_limiter -->
<g id="edge2" class="edge">
<title>c1_receiver_otlp&#45;&gt;c1_memory_limiter</title>
<path fill="none" stroke="black" d="M81.76,-124.28C92.52,-128.06 105.35,-132.57 117.82,-136.96"/>
<polygon fill="black" stroke="black" points="116.6,-140.24 127.19,-140.25 118.92,-133.64 116.6,-140.24"/>
</g>
<!-- c1_receiver_datadog -->
<g id="node2" class="node">
<title>c1_receiver_datadog</title>
<polygon fill="#ddddff" stroke="#ddddff" points="92.75,-187 16,-187 16,-151 92.75,-151 92.75,-187"/>
<text text-anchor="middle" x="54.38" y="-165.5" font-family="Arial" font-size="10.00">chqdatadog/l1</text>
</g>
<!-- c1_receiver_datadog&#45;&gt;c1_memory_limiter -->
<g id="edge1" class="edge">
<title>c1_receiver_datadog&#45;&gt;c1_memory_limiter</title>
<path fill="none" stroke="black" d="M92.94,-164.38C100.68,-163.42 108.96,-162.4 117.11,-161.4"/>
<polygon fill="black" stroke="black" points="117.47,-164.88 126.97,-160.19 116.62,-157.94 117.47,-164.88"/>
</g>
<!-- c1_chqdecorator -->
<g id="node4" class="node">
<title>c1_chqdecorator</title>
<polygon fill="#ddffdd" stroke="#ddffdd" points="319.75,-173 247.5,-173 247.5,-137 319.75,-137 319.75,-173"/>
<text text-anchor="middle" x="283.62" y="-151.5" font-family="Arial" font-size="10.00">chqdecorator</text>
</g>
<!-- c1_memory_limiter&#45;&gt;c1_chqdecorator -->
<g id="edge3" class="edge">
<title>c1_memory_limiter&#45;&gt;c1_chqdecorator</title>
<path fill="none" stroke="red" d="M211.69,-155C219.48,-155 227.68,-155 235.65,-155"/>
<polygon fill="red" stroke="red" points="235.55,-158.5 245.55,-155 235.55,-151.5 235.55,-158.5"/>
</g>
<!-- c1_forwarder_cardinalhq -->
<g id="node5" class="node">
<title>c1_forwarder_cardinalhq</title>
<polygon fill="#ffdddd" stroke="#ffdddd" points="453.12,-214 357.62,-214 357.62,-178 453.12,-178 453.12,-214"/>
<text text-anchor="middle" x="405.38" y="-192.5" font-family="Arial" font-size="10.00">forward/cardinalhq</text>
</g>
<!-- c1_chqdecorator&#45;&gt;c1_forwarder_cardinalhq -->
<g id="edge5" class="edge">
<title>c1_chqdecorator&#45;&gt;c1_forwarder_cardinalhq</title>
<path fill="none" stroke="black" d="M320.23,-167.19C328.46,-170.01 337.44,-173.08 346.35,-176.13"/>
<polygon fill="black" stroke="black" points="345.12,-179.41 355.72,-179.34 347.39,-172.79 345.12,-179.41"/>
</g>
<!-- c1_forwarder_datadog -->
<g id="node6" class="node">
<title>c1_forwarder_datadog</title>
<polygon fill="#ffdddd" stroke="#ffdddd" points="448.25,-160 362.5,-160 362.5,-124 448.25,-124 448.25,-160"/>
<text text-anchor="middle" x="405.38" y="-138.5" font-family="Arial" font-size="10.00">forward/datadog</text>
</g>
<!-- c1_chqdecorator&#45;&gt;c1_forwarder_datadog -->
<g id="edge4" class="edge">
<title>c1_chqdecorator&#45;&gt;c1_forwarder_datadog</title>
<path fill="none" stroke="black" d="M320.23,-151.13C329.95,-150.08 340.7,-148.91 351.17,-147.78"/>
<polygon fill="black" stroke="black" points="351.3,-151.28 360.86,-146.72 350.54,-144.32 351.3,-151.28"/>
</g>
<!-- c1_forwarder_stats -->
<g id="node7" class="node">
<title>c1_forwarder_stats</title>
<polygon fill="#ffdddd" stroke="#ffdddd" points="455,-106 355.75,-106 355.75,-70 455,-70 455,-106"/>
<text text-anchor="middle" x="405.38" y="-84.5" font-family="Arial" font-size="10.00">forward/intakestats</text>
</g>
<!-- c1_chqdecorator&#45;&gt;c1_forwarder_stats -->
<g id="edge6" class="edge">
<title>c1_chqdecorator&#45;&gt;c1_forwarder_stats</title>
<path fill="none" stroke="black" d="M317.18,-136.64C329.28,-129.83 343.14,-122.05 355.75,-115 357.61,-113.96 359.52,-112.89 361.45,-111.82"/>
<polygon fill="black" stroke="black" points="362.79,-115.08 369.82,-107.16 359.38,-108.96 362.79,-115.08"/>
</g>
<!-- c1_chqs3 -->
<g id="node8" class="node">
<title>c1_chqs3</title>
<polygon fill="#ffdddd" stroke="#ffdddd" points="432.38,-268 378.38,-268 378.38,-232 432.38,-232 432.38,-268"/>
<text text-anchor="middle" x="405.38" y="-246.5" font-family="Arial" font-size="10.00">chqs3</text>
</g>
<!-- c1_chqdecorator&#45;&gt;c1_chqs3 -->
<g id="edge7" class="edge">
<title>c1_chqdecorator&#45;&gt;c1_chqs3</title>
<path fill="none" stroke="black" d="M301.33,-173.38C315.08,-187.89 335.53,-208.11 355.75,-223 359.6,-225.83 363.78,-228.58 368.01,-231.17"/>
<polygon fill="black" stroke="black" points="366.16,-234.14 376.57,-236.13 369.67,-228.09 366.16,-234.14"/>
</g>
<!-- c2_forwarder_cardinalhq -->
<g id="node9" class="node">
<title>c2_forwarder_cardinalhq</title>
<polygon fill="#ddddff" stroke="#ddddff" points="588.38,-244 492.88,-244 492.88,-208 588.38,-208 588.38,-244"/>
<text text-anchor="middle" x="540.62" y="-222.5" font-family="Arial" font-size="10.00">forward/cardinalhq</text>
</g>
<!-- c1_forwarder_cardinalhq&#45;&gt;c2_forwarder_cardinalhq -->
<g id="edge8" class="edge">
<title>c1_forwarder_cardinalhq&#45;&gt;c2_forwarder_cardinalhq</title>
<path fill="none" stroke="black" stroke-dasharray="5,2" d="M453.35,-206.58C462.51,-208.64 472.21,-210.82 481.67,-212.95"/>
<polygon fill="black" stroke="black" points="480.62,-216.3 491.14,-215.09 482.16,-209.47 480.62,-216.3"/>
</g>
<!-- c3_forwarder_datadog -->
<g id="node13" class="node">
<title>c3_forwarder_datadog</title>
<polygon fill="#ddddff" stroke="#ddddff" points="583.5,-160 497.75,-160 497.75,-124 583.5,-124 583.5,-160"/>
<text text-anchor="middle" x="540.62" y="-138.5" font-family="Arial" font-size="10.00">forward/datadog</text>
</g>
<!-- c1_forwarder_datadog&#45;&gt;c3_forwarder_datadog -->
<g id="edge12" class="edge">
<title>c1_forwarder_datadog&#45;&gt;c3_forwarder_datadog</title>
<path fill="none" stroke="black" stroke-dasharray="5,2" d="M448.54,-142C460.44,-142 473.56,-142 486.05,-142"/>
<polygon fill="black" stroke="black" points="485.77,-145.5 495.77,-142 485.77,-138.5 485.77,-145.5"/>
</g>
<!-- c100_forwarder_stats -->
<g id="node17" class="node">
<title>c100_forwarder_stats</title>
<polygon fill="#ddddff" stroke="#ddddff" points="590.25,-76 491,-76 491,-40 590.25,-40 590.25,-76"/>
<text text-anchor="middle" x="540.62" y="-54.5" font-family="Arial" font-size="10.00">forward/intakestats</text>
</g>
<!-- c1_forwarder_stats&#45;&gt;c100_forwarder_stats -->
<g id="edge16" class="edge">
<title>c1_forwarder_stats&#45;&gt;c100_forwarder_stats</title>
<path fill="none" stroke="black" stroke-dasharray="5,2" d="M455.24,-77C463.2,-75.21 471.53,-73.33 479.73,-71.49"/>
<polygon fill="black" stroke="black" points="480.31,-74.94 489.29,-69.33 478.77,-68.11 480.31,-74.94"/>
</g>
<!-- c2_chqenforcer_cardinalhq -->
<g id="node10" class="node">
<title>c2_chqenforcer_cardinalhq</title>
<polygon fill="#ddffdd" stroke="#ddffdd" points="742.38,-244 628.12,-244 628.12,-208 742.38,-208 742.38,-244"/>
<text text-anchor="middle" x="685.25" y="-222.5" font-family="Arial" font-size="10.00">chqenforcer/cardinalhq</text>
</g>
<!-- c2_forwarder_cardinalhq&#45;&gt;c2_chqenforcer_cardinalhq -->
<g id="edge9" class="edge">
<title>c2_forwarder_cardinalhq&#45;&gt;c2_chqenforcer_cardinalhq</title>
<path fill="none" stroke="red" d="M588.72,-226C597.6,-226 607.06,-226 616.43,-226"/>
<polygon fill="red" stroke="red" points="616.26,-229.5 626.26,-226 616.26,-222.5 616.26,-229.5"/>
</g>
<!-- c2_batcher_cardinalhq -->
<g id="node11" class="node">
<title>c2_batcher_cardinalhq</title>
<polygon fill="#ddffdd" stroke="#ddffdd" points="882.88,-244 795.62,-244 795.62,-208 882.88,-208 882.88,-244"/>
<text text-anchor="middle" x="839.25" y="-222.5" font-family="Arial" font-size="10.00">batch/cardinalhq</text>
</g>
<!-- c2_chqenforcer_cardinalhq&#45;&gt;c2_batcher_cardinalhq -->
<g id="edge10" class="edge">
<title>c2_chqenforcer_cardinalhq&#45;&gt;c2_batcher_cardinalhq</title>
<path fill="none" stroke="red" d="M742.85,-226C756.3,-226 770.61,-226 783.96,-226"/>
<polygon fill="red" stroke="red" points="783.87,-229.5 793.87,-226 783.87,-222.5 783.87,-229.5"/>
</g>
<!-- c2_otlp_cardinalhq -->
<g id="node12" class="node">
<title>c2_otlp_cardinalhq</title>
<polygon fill="#ffdddd" stroke="#ffdddd" points="1025.62,-244 946.62,-244 946.62,-208 1025.62,-208 1025.62,-244"/>
<text text-anchor="middle" x="986.12" y="-222.5" font-family="Arial" font-size="10.00">otlp/cardinalhq</text>
</g>
<!-- c2_batcher_cardinalhq&#45;&gt;c2_otlp_cardinalhq -->
<g id="edge11" class="edge">
<title>c2_batcher_cardinalhq&#45;&gt;c2_otlp_cardinalhq</title>
<path fill="none" stroke="black" d="M883.33,-226C899.59,-226 918.23,-226 935.08,-226"/>
<polygon fill="black" stroke="black" points="934.89,-229.5 944.89,-226 934.89,-222.5 934.89,-229.5"/>
</g>
<!-- c3_chqenforcer_datadog -->
<g id="node14" class="node">
<title>c3_chqenforcer_datadog</title>
<polygon fill="#ddffdd" stroke="#ddffdd" points="737.5,-160 633,-160 633,-124 737.5,-124 737.5,-160"/>
<text text-anchor="middle" x="685.25" y="-138.5" font-family="Arial" font-size="10.00">chqenforcer/datadog</text>
</g>
<!-- c3_forwarder_datadog&#45;&gt;c3_chqenforcer_datadog -->
<g id="edge13" class="edge">
<title>c3_forwarder_datadog&#45;&gt;c3_chqenforcer_datadog</title>
<path fill="none" stroke="red" d="M583.65,-142C595.53,-142 608.73,-142 621.55,-142"/>
<polygon fill="red" stroke="red" points="621.16,-145.5 631.16,-142 621.16,-138.5 621.16,-145.5"/>
</g>
<!-- c3_batcher_datadog -->
<g id="node15" class="node">
<title>c3_batcher_datadog</title>
<polygon fill="#ddffdd" stroke="#ddffdd" points="882.12,-160 796.38,-160 796.38,-124 882.12,-124 882.12,-160"/>
<text text-anchor="middle" x="839.25" y="-138.5" font-family="Arial" font-size="10.00">batcher/datadog</text>
</g>
<!-- c3_chqenforcer_datadog&#45;&gt;c3_batcher_datadog -->
<g id="edge14" class="edge">
<title>c3_chqenforcer_datadog&#45;&gt;c3_batcher_datadog</title>
<path fill="none" stroke="red" d="M737.71,-142C752.81,-142 769.36,-142 784.59,-142"/>
<polygon fill="red" stroke="red" points="784.42,-145.5 794.42,-142 784.42,-138.5 784.42,-145.5"/>
</g>
<!-- c3_chqdatadog_datadog -->
<g id="node16" class="node">
<title>c3_chqdatadog_datadog</title>
<polygon fill="#ffdddd" stroke="#ffdddd" points="1038,-160 934.25,-160 934.25,-124 1038,-124 1038,-160"/>
<text text-anchor="middle" x="986.12" y="-138.5" font-family="Arial" font-size="10.00">chqdatadog/datadog</text>
</g>
<!-- c3_batcher_datadog&#45;&gt;c3_chqdatadog_datadog -->
<g id="edge15" class="edge">
<title>c3_batcher_datadog&#45;&gt;c3_chqdatadog_datadog</title>
<path fill="none" stroke="black" d="M882.54,-142C895.07,-142 909.06,-142 922.59,-142"/>
<polygon fill="black" stroke="black" points="922.28,-145.5 932.28,-142 922.28,-138.5 922.28,-145.5"/>
</g>
<!-- c100_chqenforcer_stats -->
<g id="node18" class="node">
<title>c100_chqenforcer_stats</title>
<polygon fill="#ddffdd" stroke="#ddffdd" points="744.25,-76 626.25,-76 626.25,-40 744.25,-40 744.25,-76"/>
<text text-anchor="middle" x="685.25" y="-54.5" font-family="Arial" font-size="10.00">chqenforcer/intakestats</text>
</g>
<!-- c100_forwarder_stats&#45;&gt;c100_chqenforcer_stats -->
<g id="edge17" class="edge">
<title>c100_forwarder_stats&#45;&gt;c100_chqenforcer_stats</title>
<path fill="none" stroke="red" d="M590.71,-58C598.49,-58 606.65,-58 614.79,-58"/>
<polygon fill="red" stroke="red" points="614.72,-61.5 624.72,-58 614.72,-54.5 614.72,-61.5"/>
</g>
<!-- c100_receiver_otlp -->
<g id="node19" class="node">
<title>c100_receiver_otlp</title>
<polygon fill="#ddddff" stroke="#ddddff" points="432.38,-706 378.38,-706 378.38,-670 432.38,-670 432.38,-706"/>
<text text-anchor="middle" x="405.38" y="-684.5" font-family="Arial" font-size="10.00">otlp/l1</text>
</g>
<!-- c100_memory_limiter -->
<g id="node21" class="node">
<title>c100_memory_limiter</title>
<polygon fill="#ddffdd" stroke="#ddffdd" points="582,-746 499.25,-746 499.25,-710 582,-710 582,-746"/>
<text text-anchor="middle" x="540.62" y="-724.5" font-family="Arial" font-size="10.00">memory_limiter</text>
</g>
<!-- c100_receiver_otlp&#45;&gt;c100_memory_limiter -->
<g id="edge19" class="edge">
<title>c100_receiver_otlp&#45;&gt;c100_memory_limiter</title>
<path fill="none" stroke="black" d="M432.7,-695.9C448.49,-700.64 469.11,-706.83 488.03,-712.51"/>
<polygon fill="black" stroke="black" points="486.89,-715.82 497.47,-715.35 488.9,-709.12 486.89,-715.82"/>
</g>
<!-- c100_receiver_datadog -->
<g id="node20" class="node">
<title>c100_receiver_datadog</title>
<polygon fill="#ddddff" stroke="#ddddff" points="443.75,-760 367,-760 367,-724 443.75,-724 443.75,-760"/>
<text text-anchor="middle" x="405.38" y="-738.5" font-family="Arial" font-size="10.00">chqdatadog/l1</text>
</g>
<!-- c100_receiver_datadog&#45;&gt;c100_memory_limiter -->
<g id="edge18" class="edge">
<title>c100_receiver_datadog&#45;&gt;c100_memory_limiter</title>
<path fill="none" stroke="black" d="M444.2,-738.03C457.68,-736.61 473.11,-734.99 487.57,-733.47"/>
<polygon fill="black" stroke="black" points="487.82,-736.96 497.4,-732.44 487.09,-730 487.82,-736.96"/>
</g>
<!-- c200_cumulativetodelta -->
<g id="node22" class="node">
<title>c200_cumulativetodelta</title>
<polygon fill="#ddffdd" stroke="#ddffdd" points="731.5,-746 639,-746 639,-710 731.5,-710 731.5,-746"/>
<text text-anchor="middle" x="685.25" y="-724.5" font-family="Arial" font-size="10.00">cumulativetodelta</text>
</g>
<!-- c100_memory_limiter&#45;&gt;c200_cumulativetodelta -->
<g id="edge20" class="edge">
<title>c100_memory_limiter&#45;&gt;c200_cumulativetodelta</title>
<path fill="none" stroke="red" d="M582.5,-728C596.47,-728 612.36,-728 627.36,-728"/>
<polygon fill="red" stroke="red" points="627.1,-731.5 637.1,-728 627.1,-724.5 627.1,-731.5"/>
</g>
<!-- c200_chqdecorator -->
<g id="node23" class="node">
<title>c200_chqdecorator</title>
<polygon fill="#ddffdd" stroke="#ddffdd" points="875.38,-746 803.12,-746 803.12,-710 875.38,-710 875.38,-746"/>
<text text-anchor="middle" x="839.25" y="-724.5" font-family="Arial" font-size="10.00">chqdecorator</text>
</g>
<!-- c200_cumulativetodelta&#45;&gt;c200_chqdecorator -->
<g id="edge21" class="edge">
<title>c200_cumulativetodelta&#45;&gt;c200_chqdecorator</title>
<path fill="none" stroke="red" d="M731.86,-728C750.68,-728 772.49,-728 791.44,-728"/>
<polygon fill="red" stroke="red" points="791.31,-731.5 801.31,-728 791.31,-724.5 791.31,-731.5"/>
</g>
<!-- c200_forwarder_cardinalhq -->
<g id="node24" class="node">
<title>c200_forwarder_cardinalhq</title>
<polygon fill="#ffdddd" stroke="#ffdddd" points="1033.88,-841 938.38,-841 938.38,-805 1033.88,-805 1033.88,-841"/>
<text text-anchor="middle" x="986.12" y="-819.5" font-family="Arial" font-size="10.00">forward/cardinalhq</text>
</g>
<!-- c200_chqdecorator&#45;&gt;c200_forwarder_cardinalhq -->
<g id="edge22" class="edge">
<title>c200_chqdecorator&#45;&gt;c200_forwarder_cardinalhq</title>
<path fill="none" stroke="black" d="M863.58,-746.26C882.23,-760.52 909.29,-780.45 934.25,-796 935.85,-797 937.5,-798 939.17,-798.99"/>
<polygon fill="black" stroke="black" points="937.19,-801.89 947.61,-803.83 940.67,-795.82 937.19,-801.89"/>
</g>
<!-- c200_forwarder_datadog -->
<g id="node25" class="node">
<title>c200_forwarder_datadog</title>
<polygon fill="#ffdddd" stroke="#ffdddd" points="1029,-787 943.25,-787 943.25,-751 1029,-751 1029,-787"/>
<text text-anchor="middle" x="986.12" y="-765.5" font-family="Arial" font-size="10.00">forward/datadog</text>
</g>
<!-- c200_chqdecorator&#45;&gt;c200_forwarder_datadog -->
<g id="edge23" class="edge">
<title>c200_chqdecorator&#45;&gt;c200_forwarder_datadog</title>
<path fill="none" stroke="black" d="M875.69,-738.03C892.56,-742.8 913.08,-748.61 931.78,-753.9"/>
<polygon fill="black" stroke="black" points="930.8,-757.26 941.38,-756.62 932.71,-750.53 930.8,-757.26"/>
</g>
<!-- c200_forwarder_stats -->
<g id="node26" class="node">
<title>c200_forwarder_stats</title>
<polygon fill="#ffdddd" stroke="#ffdddd" points="1035.75,-733 936.5,-733 936.5,-697 1035.75,-697 1035.75,-733"/>
<text text-anchor="middle" x="986.12" y="-711.5" font-family="Arial" font-size="10.00">forward/intakestats</text>
</g>
<!-- c200_chqdecorator&#45;&gt;c200_forwarder_stats -->
<g id="edge24" class="edge">
<title>c200_chqdecorator&#45;&gt;c200_forwarder_stats</title>
<path fill="none" stroke="black" d="M875.69,-724.82C890.46,-723.49 908.03,-721.92 924.73,-720.42"/>
<polygon fill="black" stroke="black" points="924.95,-723.91 934.6,-719.53 924.32,-716.94 924.95,-723.91"/>
</g>
<!-- c200_forwarder_chqs3 -->
<g id="node27" class="node">
<title>c200_forwarder_chqs3</title>
<polygon fill="#ffdddd" stroke="#ffdddd" points="1024.88,-679 947.38,-679 947.38,-643 1024.88,-643 1024.88,-679"/>
<text text-anchor="middle" x="986.12" y="-657.5" font-family="Arial" font-size="10.00">forward/chqs3</text>
</g>
<!-- c200_chqdecorator&#45;&gt;c200_forwarder_chqs3 -->
<g id="edge25" class="edge">
<title>c200_chqdecorator&#45;&gt;c200_forwarder_chqs3</title>
<path fill="none" stroke="black" d="M875.69,-711.61C894.01,-703.14 916.65,-692.67 936.57,-683.46"/>
<polygon fill="black" stroke="black" points="938.03,-686.64 945.63,-679.26 935.09,-680.28 938.03,-686.64"/>
</g>
<!-- c201_forwarder_cardinalhq -->
<g id="node28" class="node">
<title>c201_forwarder_cardinalhq</title>
<polygon fill="#ddddff" stroke="#ddddff" points="1173.62,-871 1078.12,-871 1078.12,-835 1173.62,-835 1173.62,-871"/>
<text text-anchor="middle" x="1125.88" y="-849.5" font-family="Arial" font-size="10.00">forward/cardinalhq</text>
</g>
<!-- c200_forwarder_cardinalhq&#45;&gt;c201_forwarder_cardinalhq -->
<g id="edge26" class="edge">
<title>c200_forwarder_cardinalhq&#45;&gt;c201_forwarder_cardinalhq</title>
<path fill="none" stroke="black" stroke-dasharray="5,2" d="M1034.15,-833.24C1044.67,-835.53 1055.96,-837.99 1066.88,-840.37"/>
<polygon fill="black" stroke="black" points="1066.07,-843.78 1076.59,-842.48 1067.56,-836.94 1066.07,-843.78"/>
</g>
<!-- c202_forwarder_datadog -->
<g id="node32" class="node">
<title>c202_forwarder_datadog</title>
<polygon fill="#ddddff" stroke="#ddddff" points="1168.75,-787 1083,-787 1083,-751 1168.75,-751 1168.75,-787"/>
<text text-anchor="middle" x="1125.88" y="-765.5" font-family="Arial" font-size="10.00">forward/datadog</text>
</g>
<!-- c200_forwarder_datadog&#45;&gt;c202_forwarder_datadog -->
<g id="edge30" class="edge">
<title>c200_forwarder_datadog&#45;&gt;c202_forwarder_datadog</title>
<path fill="none" stroke="black" stroke-dasharray="5,2" d="M1029.2,-769C1042.43,-769 1057.22,-769 1071.14,-769"/>
<polygon fill="black" stroke="black" points="1071.07,-772.5 1081.07,-769 1071.07,-765.5 1071.07,-772.5"/>
</g>
<!-- c203_forwarder_stats -->
<g id="node36" class="node">
<title>c203_forwarder_stats</title>
<polygon fill="#ddddff" stroke="#ddddff" points="1175.5,-703 1076.25,-703 1076.25,-667 1175.5,-667 1175.5,-703"/>
<text text-anchor="middle" x="1125.88" y="-681.5" font-family="Arial" font-size="10.00">forward/intakestats</text>
</g>
<!-- c200_forwarder_stats&#45;&gt;c203_forwarder_stats -->
<g id="edge34" class="edge">
<title>c200_forwarder_stats&#45;&gt;c203_forwarder_stats</title>
<path fill="none" stroke="black" stroke-dasharray="5,2" d="M1036.08,-704.34C1045.42,-702.31 1055.29,-700.16 1064.92,-698.06"/>
<polygon fill="black" stroke="black" points="1065.57,-701.5 1074.6,-695.95 1064.08,-694.66 1065.57,-701.5"/>
</g>
<!-- c204_forwarder_chqs3 -->
<g id="node38" class="node">
<title>c204_forwarder_chqs3</title>
<polygon fill="#ddddff" stroke="#ddddff" points="1164.62,-607 1087.12,-607 1087.12,-571 1164.62,-571 1164.62,-607"/>
<text text-anchor="middle" x="1125.88" y="-585.5" font-family="Arial" font-size="10.00">forward/chqs3</text>
</g>
<!-- c200_forwarder_chqs3&#45;&gt;c204_forwarder_chqs3 -->
<g id="edge36" class="edge">
<title>c200_forwarder_chqs3&#45;&gt;c204_forwarder_chqs3</title>
<path fill="none" stroke="black" stroke-dasharray="5,2" d="M1022.24,-642.65C1039.73,-633.51 1061.07,-622.35 1079.76,-612.58"/>
<polygon fill="black" stroke="black" points="1081.24,-615.76 1088.48,-608.02 1078,-609.55 1081.24,-615.76"/>
</g>
<!-- c201_chqenforcer_cardinalhq -->
<g id="node29" class="node">
<title>c201_chqenforcer_cardinalhq</title>
<polygon fill="#ddffdd" stroke="#ddffdd" points="1329.88,-871 1215.62,-871 1215.62,-835 1329.88,-835 1329.88,-871"/>
<text text-anchor="middle" x="1272.75" y="-849.5" font-family="Arial" font-size="10.00">chqenforcer/cardinalhq</text>
</g>
<!-- c201_forwarder_cardinalhq&#45;&gt;c201_chqenforcer_cardinalhq -->
<g id="edge27" class="edge">
<title>c201_forwarder_cardinalhq&#45;&gt;c201_chqenforcer_cardinalhq</title>
<path fill="none" stroke="red" d="M1173.91,-853C1183.52,-853 1193.8,-853 1203.97,-853"/>
<polygon fill="red" stroke="red" points="1203.84,-856.5 1213.84,-853 1203.84,-849.5 1203.84,-856.5"/>
</g>
<!-- c201_batcher_cardinalhq -->
<g id="node30" class="node">
<title>c201_batcher_cardinalhq</title>
<polygon fill="#ddffdd" stroke="#ddffdd" points="1455,-871 1367.75,-871 1367.75,-835 1455,-835 1455,-871"/>
<text text-anchor="middle" x="1411.38" y="-849.5" font-family="Arial" font-size="10.00">batch/cardinalhq</text>
</g>
<!-- c201_chqenforcer_cardinalhq&#45;&gt;c201_batcher_cardinalhq -->
<g id="edge28" class="edge">
<title>c201_chqenforcer_cardinalhq&#45;&gt;c201_batcher_cardinalhq</title>
<path fill="none" stroke="red" d="M1330.11,-853C1338.7,-853 1347.55,-853 1356.1,-853"/>
<polygon fill="red" stroke="red" points="1355.99,-856.5 1365.99,-853 1355.99,-849.5 1355.99,-856.5"/>
</g>
<!-- c201_otlp_cardinalhq -->
<g id="node31" class="node">
<title>c201_otlp_cardinalhq</title>
<polygon fill="#ffdddd" stroke="#ffdddd" points="1582.38,-871 1503.38,-871 1503.38,-835 1582.38,-835 1582.38,-871"/>
<text text-anchor="middle" x="1542.88" y="-849.5" font-family="Arial" font-size="10.00">otlp/cardinalhq</text>
</g>
<!-- c201_batcher_cardinalhq&#45;&gt;c201_otlp_cardinalhq -->
<g id="edge29" class="edge">
<title>c201_batcher_cardinalhq&#45;&gt;c201_otlp_cardinalhq</title>
<path fill="none" stroke="black" d="M1455.5,-853C1467.21,-853 1479.98,-853 1492.03,-853"/>
<polygon fill="black" stroke="black" points="1491.78,-856.5 1501.78,-853 1491.78,-849.5 1491.78,-856.5"/>
</g>
<!-- c202_chqenforcer_datadog -->
<g id="node33" class="node">
<title>c202_chqenforcer_datadog</title>
<polygon fill="#ddffdd" stroke="#ddffdd" points="1325,-787 1220.5,-787 1220.5,-751 1325,-751 1325,-787"/>
<text text-anchor="middle" x="1272.75" y="-765.5" font-family="Arial" font-size="10.00">chqenforcer/datadog</text>
</g>
<!-- c202_forwarder_datadog&#45;&gt;c202_chqenforcer_datadog -->
<g id="edge31" class="edge">
<title>c202_forwarder_datadog&#45;&gt;c202_chqenforcer_datadog</title>
<path fill="none" stroke="red" d="M1169.17,-769C1181.63,-769 1195.54,-769 1209,-769"/>
<polygon fill="red" stroke="red" points="1208.64,-772.5 1218.64,-769 1208.64,-765.5 1208.64,-772.5"/>
</g>
<!-- c202_batcher_datadog -->
<g id="node34" class="node">
<title>c202_batcher_datadog</title>
<polygon fill="#ddffdd" stroke="#ddffdd" points="1454.25,-787 1368.5,-787 1368.5,-751 1454.25,-751 1454.25,-787"/>
<text text-anchor="middle" x="1411.38" y="-765.5" font-family="Arial" font-size="10.00">batcher/datadog</text>
</g>
<!-- c202_chqenforcer_datadog&#45;&gt;c202_batcher_datadog -->
<g id="edge32" class="edge">
<title>c202_chqenforcer_datadog&#45;&gt;c202_batcher_datadog</title>
<path fill="none" stroke="red" d="M1325.4,-769C1335.72,-769 1346.59,-769 1356.97,-769"/>
<polygon fill="red" stroke="red" points="1356.91,-772.5 1366.91,-769 1356.91,-765.5 1356.91,-772.5"/>
</g>
<!-- c202_chqdatadog_datadog -->
<g id="node35" class="node">
<title>c202_chqdatadog_datadog</title>
<polygon fill="#ffdddd" stroke="#ffdddd" points="1594.75,-787 1491,-787 1491,-751 1594.75,-751 1594.75,-787"/>
<text text-anchor="middle" x="1542.88" y="-765.5" font-family="Arial" font-size="10.00">chqdatadog/datadog</text>
</g>
<!-- c202_batcher_datadog&#45;&gt;c202_chqdatadog_datadog -->
<g id="edge33" class="edge">
<title>c202_batcher_datadog&#45;&gt;c202_chqdatadog_datadog</title>
<path fill="none" stroke="black" d="M1454.42,-769C1462.34,-769 1470.78,-769 1479.17,-769"/>
<polygon fill="black" stroke="black" points="1479.03,-772.5 1489.03,-769 1479.03,-765.5 1479.03,-772.5"/>
</g>
<!-- c203_chqenforcer_stats -->
<g id="node37" class="node">
<title>c203_chqenforcer_stats</title>
<polygon fill="#ddffdd" stroke="#ddffdd" points="1331.75,-703 1213.75,-703 1213.75,-667 1331.75,-667 1331.75,-703"/>
<text text-anchor="middle" x="1272.75" y="-681.5" font-family="Arial" font-size="10.00">chqenforcer/intakestats</text>
</g>
<!-- c203_forwarder_stats&#45;&gt;c203_chqenforcer_stats -->
<g id="edge35" class="edge">
<title>c203_forwarder_stats&#45;&gt;c203_chqenforcer_stats</title>
<path fill="none" stroke="red" d="M1175.92,-685C1184.31,-685 1193.17,-685 1201.98,-685"/>
<polygon fill="red" stroke="red" points="1201.97,-688.5 1211.97,-685 1201.97,-681.5 1201.97,-688.5"/>
</g>
<!-- c204_chqs3 -->
<g id="node39" class="node">
<title>c204_chqs3</title>
<polygon fill="#ffdddd" stroke="#ffdddd" points="1299.75,-607 1245.75,-607 1245.75,-571 1299.75,-571 1299.75,-607"/>
<text text-anchor="middle" x="1272.75" y="-585.5" font-family="Arial" font-size="10.00">chqs3</text>
</g>
<!-- c204_forwarder_chqs3&#45;&gt;c204_chqs3 -->
<g id="edge37" class="edge">
<title>c204_forwarder_chqs3&#45;&gt;c204_chqs3</title>
<path fill="none" stroke="red" d="M1164.94,-589C1186.3,-589 1212.86,-589 1234.14,-589"/>
<polygon fill="red" stroke="red" points="1233.85,-592.5 1243.85,-589 1233.85,-585.5 1233.85,-592.5"/>
</g>
<!-- c203_receiver_otlp -->
<g id="node40" class="node">
<title>c203_receiver_otlp</title>
<polygon fill="#ddddff" stroke="#ddddff" points="81.38,-457 27.38,-457 27.38,-421 81.38,-421 81.38,-457"/>
<text text-anchor="middle" x="54.38" y="-435.5" font-family="Arial" font-size="10.00">otlp/l1</text>
</g>
<!-- c203_memory_limiter -->
<g id="node42" class="node">
<title>c203_memory_limiter</title>
<polygon fill="#ddffdd" stroke="#ddffdd" points="211.5,-484 128.75,-484 128.75,-448 211.5,-448 211.5,-484"/>
<text text-anchor="middle" x="170.12" y="-462.5" font-family="Arial" font-size="10.00">memory_limiter</text>
</g>
<!-- c203_receiver_otlp&#45;&gt;c203_memory_limiter -->
<g id="edge39" class="edge">
<title>c203_receiver_otlp&#45;&gt;c203_memory_limiter</title>
<path fill="none" stroke="black" d="M81.76,-445.26C92.41,-447.79 105.09,-450.8 117.44,-453.73"/>
<polygon fill="black" stroke="black" points="116.61,-457.13 127.15,-456.04 118.23,-450.32 116.61,-457.13"/>
</g>
<!-- c203_receiver_datadog -->
<g id="node41" class="node">
<title>c203_receiver_datadog</title>
<polygon fill="#ddddff" stroke="#ddddff" points="92.75,-511 16,-511 16,-475 92.75,-475 92.75,-511"/>
<text text-anchor="middle" x="54.38" y="-489.5" font-family="Arial" font-size="10.00">chqdatadog/l1</text>
</g>
<!-- c203_receiver_datadog&#45;&gt;c203_memory_limiter -->
<g id="edge38" class="edge">
<title>c203_receiver_datadog&#45;&gt;c203_memory_limiter</title>
<path fill="none" stroke="black" d="M92.94,-484.08C100.77,-482.23 109.15,-480.24 117.39,-478.28"/>
<polygon fill="black" stroke="black" points="118.08,-481.71 127,-476 116.46,-474.9 118.08,-481.71"/>
</g>
<!-- c400_groupbytrace -->
<g id="node43" class="node">
<title>c400_groupbytrace</title>
<polygon fill="#ddffdd" stroke="#ddffdd" points="319.75,-484 247.5,-484 247.5,-448 319.75,-448 319.75,-484"/>
<text text-anchor="middle" x="283.62" y="-462.5" font-family="Arial" font-size="10.00">groupbytrace</text>
</g>
<!-- c203_memory_limiter&#45;&gt;c400_groupbytrace -->
<g id="edge40" class="edge">
<title>c203_memory_limiter&#45;&gt;c400_groupbytrace</title>
<path fill="none" stroke="red" d="M211.69,-466C219.48,-466 227.68,-466 235.65,-466"/>
<polygon fill="red" stroke="red" points="235.55,-469.5 245.55,-466 235.55,-462.5 235.55,-469.5"/>
</g>
<!-- c400_chqdecorator -->
<g id="node44" class="node">
<title>c400_chqdecorator</title>
<polygon fill="#ddffdd" stroke="#ddffdd" points="441.5,-484 369.25,-484 369.25,-448 441.5,-448 441.5,-484"/>
<text text-anchor="middle" x="405.38" y="-462.5" font-family="Arial" font-size="10.00">chqdecorator</text>
</g>
<!-- c400_groupbytrace&#45;&gt;c400_chqdecorator -->
<g id="edge41" class="edge">
<title>c400_groupbytrace&#45;&gt;c400_chqdecorator</title>
<path fill="none" stroke="red" d="M320.23,-466C332.05,-466 345.4,-466 357.92,-466"/>
<polygon fill="red" stroke="red" points="357.6,-469.5 367.6,-466 357.6,-462.5 357.6,-469.5"/>
</g>
<!-- c400_forwarder_cardinalhq -->
<g id="node45" class="node">
<title>c400_forwarder_cardinalhq</title>
<polygon fill="#ffdddd" stroke="#ffdddd" points="588.38,-484 492.88,-484 492.88,-448 588.38,-448 588.38,-484"/>
<text text-anchor="middle" x="540.62" y="-462.5" font-family="Arial" font-size="10.00">forward/cardinalhq</text>
</g>
<!-- c400_chqdecorator&#45;&gt;c400_forwarder_cardinalhq -->
<g id="edge42" class="edge">
<title>c400_chqdecorator&#45;&gt;c400_forwarder_cardinalhq</title>
<path fill="none" stroke="black" d="M441.73,-466C453.9,-466 467.87,-466 481.37,-466"/>
<polygon fill="black" stroke="black" points="481.04,-469.5 491.04,-466 481.04,-462.5 481.04,-469.5"/>
</g>
<!-- c400_forwarder_datadog -->
<g id="node46" class="node">
<title>c400_forwarder_datadog</title>
<polygon fill="#ffdddd" stroke="#ffdddd" points="583.5,-430 497.75,-430 497.75,-394 583.5,-394 583.5,-430"/>
<text text-anchor="middle" x="540.62" y="-408.5" font-family="Arial" font-size="10.00">forward/datadog</text>
</g>
<!-- c400_chqdecorator&#45;&gt;c400_forwarder_datadog -->
<g id="edge43" class="edge">
<title>c400_chqdecorator&#45;&gt;c400_forwarder_datadog</title>
<path fill="none" stroke="black" d="M441.73,-451.67C455.64,-446.03 471.9,-439.45 487.12,-433.28"/>
<polygon fill="black" stroke="black" points="488.1,-436.66 496.06,-429.66 485.47,-430.17 488.1,-436.66"/>
</g>
<!-- c400_forwarder_stats -->
<g id="node47" class="node">
<title>c400_forwarder_stats</title>
<polygon fill="#ffdddd" stroke="#ffdddd" points="590.25,-376 491,-376 491,-340 590.25,-340 590.25,-376"/>
<text text-anchor="middle" x="540.62" y="-354.5" font-family="Arial" font-size="10.00">forward/intakestats</text>
</g>
<!-- c400_chqdecorator&#45;&gt;c400_forwarder_stats -->
<g id="edge44" class="edge">
<title>c400_chqdecorator&#45;&gt;c400_forwarder_stats</title>
<path fill="none" stroke="black" d="M420.32,-447.73C434.58,-429.97 458.11,-403.11 483,-385 484.32,-384.04 485.68,-383.1 487.07,-382.18"/>
<polygon fill="black" stroke="black" points="488.56,-385.37 495.3,-377.2 484.93,-379.38 488.56,-385.37"/>
</g>
<!-- c400_chqs3 -->
<g id="node48" class="node">
<title>c400_chqs3</title>
<polygon fill="#ffdddd" stroke="#ffdddd" points="567.62,-538 513.62,-538 513.62,-502 567.62,-502 567.62,-538"/>
<text text-anchor="middle" x="540.62" y="-516.5" font-family="Arial" font-size="10.00">chqs3</text>
</g>
<!-- c400_chqdecorator&#45;&gt;c400_chqs3 -->
<g id="edge45" class="edge">
<title>c400_chqdecorator&#45;&gt;c400_chqs3</title>
<path fill="none" stroke="black" d="M441.73,-480.33C460.64,-487.99 483.89,-497.42 502.99,-505.15"/>
<polygon fill="black" stroke="black" points="501.42,-508.29 512,-508.81 504.05,-501.81 501.42,-508.29"/>
</g>
<!-- c400_spanstats -->
<g id="node49" class="node">
<title>c400_spanstats</title>
<polygon fill="#ffdddd" stroke="#ffdddd" points="570,-592 511.25,-592 511.25,-556 570,-556 570,-592"/>
<text text-anchor="middle" x="540.62" y="-570.5" font-family="Arial" font-size="10.00">spanstats</text>
</g>
<!-- c400_chqdecorator&#45;&gt;c400_spanstats -->
<g id="edge46" class="edge">
<title>c400_chqdecorator&#45;&gt;c400_spanstats</title>
<path fill="none" stroke="black" d="M420.32,-484.27C434.58,-502.03 458.11,-528.89 483,-547 488.42,-550.94 494.5,-554.55 500.61,-557.75"/>
<polygon fill="black" stroke="black" points="498.94,-560.83 509.46,-562.09 502.02,-554.54 498.94,-560.83"/>
</g>
<!-- c401_forwarder_cardinalhq -->
<g id="node50" class="node">
<title>c401_forwarder_cardinalhq</title>
<polygon fill="#ddddff" stroke="#ddddff" points="733,-511 637.5,-511 637.5,-475 733,-475 733,-511"/>
<text text-anchor="middle" x="685.25" y="-489.5" font-family="Arial" font-size="10.00">forward/cardinalhq</text>
</g>
<!-- c400_forwarder_cardinalhq&#45;&gt;c401_forwarder_cardinalhq -->
<g id="edge47" class="edge">
<title>c400_forwarder_cardinalhq&#45;&gt;c401_forwarder_cardinalhq</title>
<path fill="none" stroke="black" stroke-dasharray="5,2" d="M588.72,-474.92C600.65,-477.17 613.6,-479.63 626.01,-481.97"/>
<polygon fill="black" stroke="black" points="625.24,-485.39 635.72,-483.81 626.54,-478.51 625.24,-485.39"/>
</g>
<!-- c402_forwarder_datadog -->
<g id="node54" class="node">
<title>c402_forwarder_datadog</title>
<polygon fill="#ddddff" stroke="#ddddff" points="728.12,-427 642.38,-427 642.38,-391 728.12,-391 728.12,-427"/>
<text text-anchor="middle" x="685.25" y="-405.5" font-family="Arial" font-size="10.00">forward/datadog</text>
</g>
<!-- c400_forwarder_datadog&#45;&gt;c402_forwarder_datadog -->
<g id="edge51" class="edge">
<title>c400_forwarder_datadog&#45;&gt;c402_forwarder_datadog</title>
<path fill="none" stroke="black" stroke-dasharray="5,2" d="M583.65,-411.12C598.46,-410.8 615.31,-410.45 630.93,-410.12"/>
<polygon fill="black" stroke="black" points="630.6,-413.63 640.52,-409.92 630.45,-406.63 630.6,-413.63"/>
</g>
<!-- c403_forwarder_stats -->
<g id="node58" class="node">
<title>c403_forwarder_stats</title>
<polygon fill="#ddddff" stroke="#ddddff" points="734.88,-343 635.62,-343 635.62,-307 734.88,-307 734.88,-343"/>
<text text-anchor="middle" x="685.25" y="-321.5" font-family="Arial" font-size="10.00">forward/intakestats</text>
</g>
<!-- c400_forwarder_stats&#45;&gt;c403_forwarder_stats -->
<g id="edge55" class="edge">
<title>c400_forwarder_stats&#45;&gt;c403_forwarder_stats</title>
<path fill="none" stroke="black" stroke-dasharray="5,2" d="M590.71,-346.64C601.59,-344.13 613.23,-341.43 624.48,-338.83"/>
<polygon fill="black" stroke="black" points="625.13,-342.27 634.08,-336.61 623.55,-335.45 625.13,-342.27"/>
</g>
<!-- c404_spanstats -->
<g id="node60" class="node">
<title>c404_spanstats</title>
<polygon fill="#ddddff" stroke="#ddddff" points="714.62,-595 655.88,-595 655.88,-559 714.62,-559 714.62,-595"/>
<text text-anchor="middle" x="685.25" y="-573.5" font-family="Arial" font-size="10.00">spanstats</text>
</g>
<!-- c400_spanstats&#45;&gt;c404_spanstats -->
<g id="edge57" class="edge">
<title>c400_spanstats&#45;&gt;c404_spanstats</title>
<path fill="none" stroke="black" stroke-dasharray="5,2" d="M570.49,-574.61C591.66,-575.05 620.67,-575.66 644.1,-576.16"/>
<polygon fill="black" stroke="black" points="643.85,-579.65 653.92,-576.36 643.99,-572.65 643.85,-579.65"/>
</g>
<!-- c401_chqenforcer_cardinalhq -->
<g id="node51" class="node">
<title>c401_chqenforcer_cardinalhq</title>
<polygon fill="#ddffdd" stroke="#ddffdd" points="896.38,-511 782.12,-511 782.12,-475 896.38,-475 896.38,-511"/>
<text text-anchor="middle" x="839.25" y="-489.5" font-family="Arial" font-size="10.00">chqenforcer/cardinalhq</text>
</g>
<!-- c401_forwarder_cardinalhq&#45;&gt;c401_chqenforcer_cardinalhq -->
<g id="edge48" class="edge">
<title>c401_forwarder_cardinalhq&#45;&gt;c401_chqenforcer_cardinalhq</title>
<path fill="none" stroke="red" d="M733.1,-493C744.85,-493 757.7,-493 770.26,-493"/>
<polygon fill="red" stroke="red" points="770.15,-496.5 780.15,-493 770.15,-489.5 770.15,-496.5"/>
</g>
<!-- c401_batcher_cardinalhq -->
<g id="node52" class="node">
<title>c401_batcher_cardinalhq</title>
<polygon fill="#ddffdd" stroke="#ddffdd" points="1029.75,-511 942.5,-511 942.5,-475 1029.75,-475 1029.75,-511"/>
<text text-anchor="middle" x="986.12" y="-489.5" font-family="Arial" font-size="10.00">batch/cardinalhq</text>
</g>
<!-- c401_chqenforcer_cardinalhq&#45;&gt;c401_batcher_cardinalhq -->
<g id="edge49" class="edge">
<title>c401_chqenforcer_cardinalhq&#45;&gt;c401_batcher_cardinalhq</title>
<path fill="none" stroke="red" d="M896.68,-493C907.88,-493 919.62,-493 930.76,-493"/>
<polygon fill="red" stroke="red" points="930.58,-496.5 940.58,-493 930.58,-489.5 930.58,-496.5"/>
</g>
<!-- c401_otlp_cardinalhq -->
<g id="node53" class="node">
<title>c401_otlp_cardinalhq</title>
<polygon fill="#ffdddd" stroke="#ffdddd" points="1165.38,-511 1086.38,-511 1086.38,-475 1165.38,-475 1165.38,-511"/>
<text text-anchor="middle" x="1125.88" y="-489.5" font-family="Arial" font-size="10.00">otlp/cardinalhq</text>
</g>
<!-- c401_batcher_cardinalhq&#45;&gt;c401_otlp_cardinalhq -->
<g id="edge50" class="edge">
<title>c401_batcher_cardinalhq&#45;&gt;c401_otlp_cardinalhq</title>
<path fill="none" stroke="black" d="M1029.95,-493C1044.16,-493 1060.11,-493 1074.81,-493"/>
<polygon fill="black" stroke="black" points="1074.77,-496.5 1084.77,-493 1074.77,-489.5 1074.77,-496.5"/>
</g>
<!-- c402_chqenforcer_datadog -->
<g id="node55" class="node">
<title>c402_chqenforcer_datadog</title>
<polygon fill="#ddffdd" stroke="#ddffdd" points="891.5,-427 787,-427 787,-391 891.5,-391 891.5,-427"/>
<text text-anchor="middle" x="839.25" y="-405.5" font-family="Arial" font-size="10.00">chqenforcer/datadog</text>
</g>
<!-- c402_forwarder_datadog&#45;&gt;c402_chqenforcer_datadog -->
<g id="edge52" class="edge">
<title>c402_forwarder_datadog&#45;&gt;c402_chqenforcer_datadog</title>
<path fill="none" stroke="red" d="M728.59,-409C743.08,-409 759.62,-409 775.38,-409"/>
<polygon fill="red" stroke="red" points="775.16,-412.5 785.16,-409 775.16,-405.5 775.16,-412.5"/>
</g>
<!-- c402_batcher_datadog -->
<g id="node56" class="node">
<title>c402_batcher_datadog</title>
<polygon fill="#ddffdd" stroke="#ddffdd" points="1029,-427 943.25,-427 943.25,-391 1029,-391 1029,-427"/>
<text text-anchor="middle" x="986.12" y="-405.5" font-family="Arial" font-size="10.00">batcher/datadog</text>
</g>
<!-- c402_chqenforcer_datadog&#45;&gt;c402_batcher_datadog -->
<g id="edge53" class="edge">
<title>c402_chqenforcer_datadog&#45;&gt;c402_batcher_datadog</title>
<path fill="none" stroke="red" d="M891.74,-409C904.69,-409 918.63,-409 931.68,-409"/>
<polygon fill="red" stroke="red" points="931.36,-412.5 941.36,-409 931.36,-405.5 931.36,-412.5"/>
</g>
<!-- c402_chqdatadog_datadog -->
<g id="node57" class="node">
<title>c402_chqdatadog_datadog</title>
<polygon fill="#ffdddd" stroke="#ffdddd" points="1177.75,-427 1074,-427 1074,-391 1177.75,-391 1177.75,-427"/>
<text text-anchor="middle" x="1125.88" y="-405.5" font-family="Arial" font-size="10.00">chqdatadog/datadog</text>
</g>
<!-- c402_batcher_datadog&#45;&gt;c402_chqdatadog_datadog -->
<g id="edge54" class="edge">
<title>c402_batcher_datadog&#45;&gt;c402_chqdatadog_datadog</title>
<path fill="none" stroke="black" d="M1029.2,-409C1039.77,-409 1051.32,-409 1062.64,-409"/>
<polygon fill="black" stroke="black" points="1062.32,-412.5 1072.32,-409 1062.32,-405.5 1062.32,-412.5"/>
</g>
<!-- c403_chqenforcer_stats -->
<g id="node59" class="node">
<title>c403_chqenforcer_stats</title>
<polygon fill="#ddffdd" stroke="#ddffdd" points="898.25,-343 780.25,-343 780.25,-307 898.25,-307 898.25,-343"/>
<text text-anchor="middle" x="839.25" y="-321.5" font-family="Arial" font-size="10.00">chqenforcer/intakestats</text>
</g>
<!-- c403_forwarder_stats&#45;&gt;c403_chqenforcer_stats -->
<g id="edge56" class="edge">
<title>c403_forwarder_stats&#45;&gt;c403_chqenforcer_stats</title>
<path fill="none" stroke="red" d="M735.18,-325C745.86,-325 757.35,-325 768.65,-325"/>
<polygon fill="red" stroke="red" points="768.34,-328.5 778.34,-325 768.34,-321.5 768.34,-328.5"/>
</g>
<!-- c404_chqdecorator -->
<g id="node62" class="node">
<title>c404_chqdecorator</title>
<polygon fill="#ddffdd" stroke="#ddffdd" points="875.38,-595 803.12,-595 803.12,-559 875.38,-559 875.38,-595"/>
<text text-anchor="middle" x="839.25" y="-573.5" font-family="Arial" font-size="10.00">chqdecorator</text>
</g>
<!-- c404_spanstats&#45;&gt;c404_chqdecorator -->
<g id="edge58" class="edge">
<title>c404_spanstats&#45;&gt;c404_chqdecorator</title>
<path fill="none" stroke="red" d="M714.84,-577C736.37,-577 766.35,-577 791.37,-577"/>
<polygon fill="red" stroke="red" points="791.32,-580.5 801.32,-577 791.32,-573.5 791.32,-580.5"/>
</g>
<!-- c404_forwarder_chqs3 -->
<g id="node61" class="node">
<title>c404_forwarder_chqs3</title>
<polygon fill="#ffdddd" stroke="#ffdddd" points="1024.88,-595 947.38,-595 947.38,-559 1024.88,-559 1024.88,-595"/>
<text text-anchor="middle" x="986.12" y="-573.5" font-family="Arial" font-size="10.00">forward/chqs3</text>
</g>
<!-- c404_forwarder_chqs3&#45;&gt;c204_forwarder_chqs3 -->
<g id="edge60" class="edge">
<title>c404_forwarder_chqs3&#45;&gt;c204_forwarder_chqs3</title>
<path fill="none" stroke="black" stroke-dasharray="5,2" d="M1025.13,-580.31C1040.79,-581.67 1059.13,-583.27 1075.79,-584.72"/>
<polygon fill="black" stroke="black" points="1075.22,-588.19 1085.49,-585.57 1075.83,-581.21 1075.22,-588.19"/>
</g>
<!-- c404_chqdecorator&#45;&gt;c404_forwarder_chqs3 -->
<g id="edge59" class="edge">
<title>c404_chqdecorator&#45;&gt;c404_forwarder_chqs3</title>
<path fill="none" stroke="black" d="M875.69,-577C893.76,-577 916.02,-577 935.74,-577"/>
<polygon fill="black" stroke="black" points="935.49,-580.5 945.49,-577 935.49,-573.5 935.49,-580.5"/>
</g>
</g>
</svg>
