<?xml version="1.0" encoding="UTF-8" standalone="no"?>
<!DOCTYPE svg PUBLIC "-//W3C//DTD SVG 1.1//EN"
 "http://www.w3.org/Graphics/SVG/1.1/DTD/svg11.dtd">
<!-- Generated by graphviz version 11.0.0 (20240428.1522)
 -->
<!-- Title: G Pages: 1 -->
<svg width="1341pt" height="935pt"
 viewBox="0.00 0.00 1341.00 934.75" xmlns="http://www.w3.org/2000/svg" xmlns:xlink="http://www.w3.org/1999/xlink">
<g id="graph0" class="graph" transform="scale(1 1) rotate(0) translate(4 930.75)">
<title>G</title>
<polygon fill="white" stroke="none" points="-4,4 -4,-930.75 1337,-930.75 1337,4 -4,4"/>
<g id="clust1" class="cluster">
<title>cluster_1</title>
<polygon fill="#ffddff" stroke="#ffddff" points="50,-627 50,-918.75 456,-918.75 456,-627 50,-627"/>
<text text-anchor="middle" x="253" y="-901.45" font-family="Arial" font-size="14.00">Logs L1 Intake</text>
</g>
<g id="clust2" class="cluster">
<title>cluster_2</title>
<polygon fill="#ffddff" stroke="#ffddff" points="8,-311.5 8,-607 147,-607 147,-311.5 8,-311.5"/>
<text text-anchor="middle" x="77.5" y="-317.95" font-family="Arial" font-size="14.00">Logs L1 CardinalHQ</text>
</g>
<g id="clust3" class="cluster">
<title>cluster_3</title>
<polygon fill="#ffddff" stroke="#ffddff" points="155,-311.5 155,-607 275,-607 275,-311.5 155,-311.5"/>
<text text-anchor="middle" x="215" y="-317.95" font-family="Arial" font-size="14.00">Logs L1 Datadog</text>
</g>
<g id="clust4" class="cluster">
<title>cluster_4</title>
<polygon fill="#ffddff" stroke="#ffddff" points="283,-459.25 283,-607 422,-607 422,-459.25 283,-459.25"/>
<text text-anchor="middle" x="352.5" y="-465.7" font-family="Arial" font-size="14.00">Logs L1 Intake Stats</text>
</g>
<g id="clust5" class="cluster">
<title>cluster_100</title>
<polygon fill="#ffffbb" stroke="#ffffbb" points="602,-699 602,-918.75 766,-918.75 766,-699 602,-699"/>
<text text-anchor="middle" x="684" y="-901.45" font-family="Arial" font-size="14.00">Metrics L1 Intake</text>
</g>
<g id="clust6" class="cluster">
<title>cluster_200</title>
<polygon fill="#ffffbb" stroke="#ffffbb" points="464,-311.5 464,-679 870,-679 870,-311.5 464,-311.5"/>
<text text-anchor="middle" x="667" y="-317.95" font-family="Arial" font-size="14.00">Metrics L2 Intake</text>
</g>
<g id="clust7" class="cluster">
<title>cluster_201</title>
<polygon fill="#ffffbb" stroke="#ffffbb" points="400,-8 400,-303.5 554,-303.5 554,-8 400,-8"/>
<text text-anchor="middle" x="477" y="-14.45" font-family="Arial" font-size="14.00">Metrics L2 CardinalHQ</text>
</g>
<g id="clust8" class="cluster">
<title>cluster_202</title>
<polygon fill="#ffffbb" stroke="#ffffbb" points="562,-8 562,-303.5 695,-303.5 695,-8 562,-8"/>
<text text-anchor="middle" x="628.5" y="-14.45" font-family="Arial" font-size="14.00">Metrics L2 Datadog</text>
</g>
<g id="clust9" class="cluster">
<title>cluster_203</title>
<polygon fill="#ffffbb" stroke="#ffffbb" points="703,-155.75 703,-303.5 857,-303.5 857,-155.75 703,-155.75"/>
<text text-anchor="middle" x="780" y="-162.2" font-family="Arial" font-size="14.00">Metrics L2 Intake Stats</text>
</g>
<g id="clust10" class="cluster">
<title>cluster_300</title>
<polygon fill="#ddffff" stroke="#ddffff" points="1057,-699 1057,-918.75 1221,-918.75 1221,-699 1057,-699"/>
<text text-anchor="middle" x="1139" y="-901.45" font-family="Arial" font-size="14.00">Spans L1 Intake</text>
</g>
<g id="clust11" class="cluster">
<title>cluster_400</title>
<polygon fill="#ddffff" stroke="#ddffff" points="919,-311.5 919,-679 1325,-679 1325,-311.5 919,-311.5"/>
<text text-anchor="middle" x="1122" y="-317.95" font-family="Arial" font-size="14.00">Spans L2 Intake</text>
</g>
<g id="clust12" class="cluster">
<title>cluster_401</title>
<polygon fill="#ddffff" stroke="#ddffff" points="865,-8 865,-303.5 1013,-303.5 1013,-8 865,-8"/>
<text text-anchor="middle" x="939" y="-14.45" font-family="Arial" font-size="14.00">Spans L2 CardinalHQ</text>
</g>
<g id="clust13" class="cluster">
<title>cluster_402</title>
<polygon fill="#ddffff" stroke="#ddffff" points="1021,-8 1021,-303.5 1148,-303.5 1148,-8 1021,-8"/>
<text text-anchor="middle" x="1084.5" y="-14.45" font-family="Arial" font-size="14.00">Spans L2 Datadog</text>
</g>
<g id="clust14" class="cluster">
<title>cluster_403</title>
<polygon fill="#ddffff" stroke="#ddffff" points="1156,-155.75 1156,-303.5 1304,-303.5 1304,-155.75 1156,-155.75"/>
<text text-anchor="middle" x="1230" y="-162.2" font-family="Arial" font-size="14.00">Spans L2 Intake Stats</text>
</g>
<!-- c1_receiver_otlp -->
<g id="node1" class="node">
<title>c1_receiver_otlp</title>
<polygon fill="#ddddff" stroke="#ddddff" points="255,-887 201,-887 201,-851 255,-851 255,-887"/>
<text text-anchor="middle" x="228" y="-865.5" font-family="Arial" font-size="10.00">otlp/l1</text>
</g>
<!-- c1_memory_limiter -->
<g id="node3" class="node">
<title>c1_memory_limiter</title>
<polygon fill="#ddffdd" stroke="#ddffdd" points="311.38,-815 228.62,-815 228.62,-779 311.38,-779 311.38,-815"/>
<text text-anchor="middle" x="270" y="-793.5" font-family="Arial" font-size="10.00">memory_limiter</text>
</g>
<!-- c1_receiver_otlp&#45;&gt;c1_memory_limiter -->
<g id="edge2" class="edge">
<title>c1_receiver_otlp&#45;&gt;c1_memory_limiter</title>
<path fill="none" stroke="black" d="M238.38,-850.7C243.06,-842.9 248.69,-833.51 253.9,-824.83"/>
<polygon fill="black" stroke="black" points="256.81,-826.78 258.96,-816.4 250.81,-823.18 256.81,-826.78"/>
</g>
<!-- c1_receiver_datadog -->
<g id="node2" class="node">
<title>c1_receiver_datadog</title>
<polygon fill="#ddddff" stroke="#ddddff" points="349.38,-887 272.62,-887 272.62,-851 349.38,-851 349.38,-887"/>
<text text-anchor="middle" x="311" y="-865.5" font-family="Arial" font-size="10.00">chqdatadog/l1</text>
</g>
<!-- c1_receiver_datadog&#45;&gt;c1_memory_limiter -->
<g id="edge1" class="edge">
<title>c1_receiver_datadog&#45;&gt;c1_memory_limiter</title>
<path fill="none" stroke="black" d="M300.87,-850.7C296.3,-842.9 290.8,-833.51 285.71,-824.83"/>
<polygon fill="black" stroke="black" points="288.86,-823.27 280.78,-816.41 282.82,-826.81 288.86,-823.27"/>
</g>
<!-- c1_chqdecorator -->
<g id="node4" class="node">
<title>c1_chqdecorator</title>
<polygon fill="#ddffdd" stroke="#ddffdd" points="306.12,-743 233.88,-743 233.88,-707 306.12,-707 306.12,-743"/>
<text text-anchor="middle" x="270" y="-721.5" font-family="Arial" font-size="10.00">chqdecorator</text>
</g>
<!-- c1_memory_limiter&#45;&gt;c1_chqdecorator -->
<g id="edge3" class="edge">
<title>c1_memory_limiter&#45;&gt;c1_chqdecorator</title>
<path fill="none" stroke="red" d="M270,-778.7C270,-771.41 270,-762.73 270,-754.54"/>
<polygon fill="red" stroke="red" points="273.5,-754.62 270,-744.62 266.5,-754.62 273.5,-754.62"/>
</g>
<!-- c1_forwarder_cardinalhq -->
<g id="node5" class="node">
<title>c1_forwarder_cardinalhq</title>
<polygon fill="#ffdddd" stroke="#ffdddd" points="153.75,-671 58.25,-671 58.25,-635 153.75,-635 153.75,-671"/>
<text text-anchor="middle" x="106" y="-649.5" font-family="Arial" font-size="10.00">forward/cardinalhq</text>
</g>
<!-- c1_chqdecorator&#45;&gt;c1_forwarder_cardinalhq -->
<g id="edge5" class="edge">
<title>c1_chqdecorator&#45;&gt;c1_forwarder_cardinalhq</title>
<path fill="none" stroke="black" d="M233.79,-708.93C213.03,-700.26 186.52,-689.1 163,-679 160.7,-678.01 158.35,-677 155.98,-675.97"/>
<polygon fill="black" stroke="black" points="157.48,-672.81 146.91,-672.03 154.69,-679.23 157.48,-672.81"/>
</g>
<!-- c1_forwarder_datadog -->
<g id="node6" class="node">
<title>c1_forwarder_datadog</title>
<polygon fill="#ffdddd" stroke="#ffdddd" points="257.88,-671 172.12,-671 172.12,-635 257.88,-635 257.88,-671"/>
<text text-anchor="middle" x="215" y="-649.5" font-family="Arial" font-size="10.00">forward/datadog</text>
</g>
<!-- c1_chqdecorator&#45;&gt;c1_forwarder_datadog -->
<g id="edge4" class="edge">
<title>c1_chqdecorator&#45;&gt;c1_forwarder_datadog</title>
<path fill="none" stroke="black" d="M256.4,-706.7C250.08,-698.64 242.42,-688.89 235.41,-679.98"/>
<polygon fill="black" stroke="black" points="238.3,-678 229.37,-672.29 232.8,-682.32 238.3,-678"/>
</g>
<!-- c1_forwarder_stats -->
<g id="node7" class="node">
<title>c1_forwarder_stats</title>
<polygon fill="#ffdddd" stroke="#ffdddd" points="375.62,-671 276.38,-671 276.38,-635 375.62,-635 375.62,-671"/>
<text text-anchor="middle" x="326" y="-649.5" font-family="Arial" font-size="10.00">forward/intakestats</text>
</g>
<!-- c1_chqdecorator&#45;&gt;c1_forwarder_stats -->
<g id="edge6" class="edge">
<title>c1_chqdecorator&#45;&gt;c1_forwarder_stats</title>
<path fill="none" stroke="black" d="M283.84,-706.7C290.29,-698.64 298.08,-688.89 305.21,-679.98"/>
<polygon fill="black" stroke="black" points="307.86,-682.28 311.37,-672.29 302.39,-677.91 307.86,-682.28"/>
</g>
<!-- c1_chqs3 -->
<g id="node8" class="node">
<title>c1_chqs3</title>
<polygon fill="#ffdddd" stroke="#ffdddd" points="448,-671 394,-671 394,-635 448,-635 448,-671"/>
<text text-anchor="middle" x="421" y="-649.5" font-family="Arial" font-size="10.00">chqs3</text>
</g>
<!-- c1_chqdecorator&#45;&gt;c1_chqs3 -->
<g id="edge7" class="edge">
<title>c1_chqdecorator&#45;&gt;c1_chqs3</title>
<path fill="none" stroke="black" d="M306.45,-712.2C329.56,-704.13 359.75,-692.47 385,-679 385.91,-678.51 386.83,-678.01 387.74,-677.49"/>
<polygon fill="black" stroke="black" points="389.52,-680.51 396.2,-672.28 385.85,-674.55 389.52,-680.51"/>
</g>
<!-- c2_forwarder_cardinalhq -->
<g id="node9" class="node">
<title>c2_forwarder_cardinalhq</title>
<polygon fill="#ddddff" stroke="#ddddff" points="134.75,-599 39.25,-599 39.25,-563 134.75,-563 134.75,-599"/>
<text text-anchor="middle" x="87" y="-577.5" font-family="Arial" font-size="10.00">forward/cardinalhq</text>
</g>
<!-- c1_forwarder_cardinalhq&#45;&gt;c2_forwarder_cardinalhq -->
<g id="edge8" class="edge">
<title>c1_forwarder_cardinalhq&#45;&gt;c2_forwarder_cardinalhq</title>
<path fill="none" stroke="black" stroke-dasharray="5,2" d="M101.3,-634.7C99.28,-627.24 96.86,-618.32 94.59,-609.97"/>
<polygon fill="black" stroke="black" points="98.04,-609.3 92.04,-600.57 91.28,-611.13 98.04,-609.3"/>
</g>
<!-- c3_forwarder_datadog -->
<g id="node13" class="node">
<title>c3_forwarder_datadog</title>
<polygon fill="#ddddff" stroke="#ddddff" points="257.88,-599 172.12,-599 172.12,-563 257.88,-563 257.88,-599"/>
<text text-anchor="middle" x="215" y="-577.5" font-family="Arial" font-size="10.00">forward/datadog</text>
</g>
<!-- c1_forwarder_datadog&#45;&gt;c3_forwarder_datadog -->
<g id="edge12" class="edge">
<title>c1_forwarder_datadog&#45;&gt;c3_forwarder_datadog</title>
<path fill="none" stroke="black" stroke-dasharray="5,2" d="M215,-634.7C215,-627.41 215,-618.73 215,-610.54"/>
<polygon fill="black" stroke="black" points="218.5,-610.62 215,-600.62 211.5,-610.62 218.5,-610.62"/>
</g>
<!-- c4_forwarder_stats -->
<g id="node17" class="node">
<title>c4_forwarder_stats</title>
<polygon fill="#ddddff" stroke="#ddddff" points="394.62,-599 295.38,-599 295.38,-563 394.62,-563 394.62,-599"/>
<text text-anchor="middle" x="345" y="-577.5" font-family="Arial" font-size="10.00">forward/intakestats</text>
</g>
<!-- c1_forwarder_stats&#45;&gt;c4_forwarder_stats -->
<g id="edge16" class="edge">
<title>c1_forwarder_stats&#45;&gt;c4_forwarder_stats</title>
<path fill="none" stroke="black" stroke-dasharray="5,2" d="M330.7,-634.7C332.72,-627.24 335.14,-618.32 337.41,-609.97"/>
<polygon fill="black" stroke="black" points="340.72,-611.13 339.96,-600.57 333.96,-609.3 340.72,-611.13"/>
</g>
<!-- c2_chqenforcer_cardinalhq -->
<g id="node10" class="node">
<title>c2_chqenforcer_cardinalhq</title>
<polygon fill="#ddffdd" stroke="#ddffdd" points="139.12,-527 24.87,-527 24.87,-491 139.12,-491 139.12,-527"/>
<text text-anchor="middle" x="82" y="-505.5" font-family="Arial" font-size="10.00">chqenforcer/cardinalhq</text>
</g>
<!-- c2_forwarder_cardinalhq&#45;&gt;c2_chqenforcer_cardinalhq -->
<g id="edge9" class="edge">
<title>c2_forwarder_cardinalhq&#45;&gt;c2_chqenforcer_cardinalhq</title>
<path fill="none" stroke="red" d="M85.76,-562.7C85.24,-555.41 84.62,-546.73 84.04,-538.54"/>
<polygon fill="red" stroke="red" points="87.53,-538.34 83.33,-528.61 80.55,-538.84 87.53,-538.34"/>
</g>
<!-- c2_batcher_cardinalhq -->
<g id="node11" class="node">
<title>c2_batcher_cardinalhq</title>
<polygon fill="#ddffdd" stroke="#ddffdd" points="125.62,-451.25 38.38,-451.25 38.38,-415.25 125.62,-415.25 125.62,-451.25"/>
<text text-anchor="middle" x="82" y="-429.75" font-family="Arial" font-size="10.00">batch/cardinalhq</text>
</g>
<!-- c2_chqenforcer_cardinalhq&#45;&gt;c2_batcher_cardinalhq -->
<g id="edge10" class="edge">
<title>c2_chqenforcer_cardinalhq&#45;&gt;c2_batcher_cardinalhq</title>
<path fill="none" stroke="red" d="M82,-490.52C82,-482.26 82,-472.17 82,-462.84"/>
<polygon fill="red" stroke="red" points="85.5,-463.12 82,-453.12 78.5,-463.12 85.5,-463.12"/>
</g>
<!-- c2_otlp_cardinalhq -->
<g id="node12" class="node">
<title>c2_otlp_cardinalhq</title>
<polygon fill="#ffdddd" stroke="#ffdddd" points="121.5,-379.25 42.5,-379.25 42.5,-343.25 121.5,-343.25 121.5,-379.25"/>
<text text-anchor="middle" x="82" y="-357.75" font-family="Arial" font-size="10.00">otlp/cardinalhq</text>
</g>
<!-- c2_batcher_cardinalhq&#45;&gt;c2_otlp_cardinalhq -->
<g id="edge11" class="edge">
<title>c2_batcher_cardinalhq&#45;&gt;c2_otlp_cardinalhq</title>
<path fill="none" stroke="black" d="M82,-414.95C82,-407.66 82,-398.98 82,-390.79"/>
<polygon fill="black" stroke="black" points="85.5,-390.87 82,-380.87 78.5,-390.87 85.5,-390.87"/>
</g>
<!-- c3_chqenforcer_datadog -->
<g id="node14" class="node">
<title>c3_chqenforcer_datadog</title>
<polygon fill="#ddffdd" stroke="#ddffdd" points="267.25,-527 162.75,-527 162.75,-491 267.25,-491 267.25,-527"/>
<text text-anchor="middle" x="215" y="-505.5" font-family="Arial" font-size="10.00">chqenforcer/datadog</text>
</g>
<!-- c3_forwarder_datadog&#45;&gt;c3_chqenforcer_datadog -->
<g id="edge13" class="edge">
<title>c3_forwarder_datadog&#45;&gt;c3_chqenforcer_datadog</title>
<path fill="none" stroke="red" d="M215,-562.7C215,-555.41 215,-546.73 215,-538.54"/>
<polygon fill="red" stroke="red" points="218.5,-538.62 215,-528.62 211.5,-538.62 218.5,-538.62"/>
</g>
<!-- c3_batcher_datadog -->
<g id="node15" class="node">
<title>c3_batcher_datadog</title>
<polygon fill="#ddffdd" stroke="#ddffdd" points="257.88,-451.25 172.12,-451.25 172.12,-415.25 257.88,-415.25 257.88,-451.25"/>
<text text-anchor="middle" x="215" y="-429.75" font-family="Arial" font-size="10.00">batcher/datadog</text>
</g>
<!-- c3_chqenforcer_datadog&#45;&gt;c3_batcher_datadog -->
<g id="edge14" class="edge">
<title>c3_chqenforcer_datadog&#45;&gt;c3_batcher_datadog</title>
<path fill="none" stroke="red" d="M215,-490.52C215,-482.26 215,-472.17 215,-462.84"/>
<polygon fill="red" stroke="red" points="218.5,-463.12 215,-453.12 211.5,-463.12 218.5,-463.12"/>
</g>
<!-- c3_chqdatadog_datadog -->
<g id="node16" class="node">
<title>c3_chqdatadog_datadog</title>
<polygon fill="#ffdddd" stroke="#ffdddd" points="266.88,-379.25 163.12,-379.25 163.12,-343.25 266.88,-343.25 266.88,-379.25"/>
<text text-anchor="middle" x="215" y="-357.75" font-family="Arial" font-size="10.00">chqdatadog/datadog</text>
</g>
<!-- c3_batcher_datadog&#45;&gt;c3_chqdatadog_datadog -->
<g id="edge15" class="edge">
<title>c3_batcher_datadog&#45;&gt;c3_chqdatadog_datadog</title>
<path fill="none" stroke="black" d="M215,-414.95C215,-407.66 215,-398.98 215,-390.79"/>
<polygon fill="black" stroke="black" points="218.5,-390.87 215,-380.87 211.5,-390.87 218.5,-390.87"/>
</g>
<!-- c4_chqenforcer_stats -->
<g id="node18" class="node">
<title>c4_chqenforcer_stats</title>
<polygon fill="#ddffdd" stroke="#ddffdd" points="409,-527 291,-527 291,-491 409,-491 409,-527"/>
<text text-anchor="middle" x="350" y="-505.5" font-family="Arial" font-size="10.00">chqenforcer/intakestats</text>
</g>
<!-- c4_forwarder_stats&#45;&gt;c4_chqenforcer_stats -->
<g id="edge17" class="edge">
<title>c4_forwarder_stats&#45;&gt;c4_chqenforcer_stats</title>
<path fill="none" stroke="red" d="M346.24,-562.7C346.76,-555.41 347.38,-546.73 347.96,-538.54"/>
<polygon fill="red" stroke="red" points="351.45,-538.84 348.67,-528.61 344.47,-538.34 351.45,-538.84"/>
</g>
<!-- c4_receiver_otlp -->
<g id="node19" class="node">
<title>c4_receiver_otlp</title>
<polygon fill="#ddddff" stroke="#ddddff" points="664,-887 610,-887 610,-851 664,-851 664,-887"/>
<text text-anchor="middle" x="637" y="-865.5" font-family="Arial" font-size="10.00">otlp/l1</text>
</g>
<!-- c4_memory_limiter -->
<g id="node21" class="node">
<title>c4_memory_limiter</title>
<polygon fill="#ddffdd" stroke="#ddffdd" points="725.38,-815 642.62,-815 642.62,-779 725.38,-779 725.38,-815"/>
<text text-anchor="middle" x="684" y="-793.5" font-family="Arial" font-size="10.00">memory_limiter</text>
</g>
<!-- c4_receiver_otlp&#45;&gt;c4_memory_limiter -->
<g id="edge19" class="edge">
<title>c4_receiver_otlp&#45;&gt;c4_memory_limiter</title>
<path fill="none" stroke="black" d="M648.62,-850.7C653.91,-842.81 660.3,-833.3 666.18,-824.55"/>
<polygon fill="black" stroke="black" points="669,-826.61 671.67,-816.36 663.19,-822.71 669,-826.61"/>
</g>
<!-- c4_receiver_datadog -->
<g id="node20" class="node">
<title>c4_receiver_datadog</title>
<polygon fill="#ddddff" stroke="#ddddff" points="758.38,-887 681.62,-887 681.62,-851 758.38,-851 758.38,-887"/>
<text text-anchor="middle" x="720" y="-865.5" font-family="Arial" font-size="10.00">chqdatadog/l1</text>
</g>
<!-- c4_receiver_datadog&#45;&gt;c4_memory_limiter -->
<g id="edge18" class="edge">
<title>c4_receiver_datadog&#45;&gt;c4_memory_limiter</title>
<path fill="none" stroke="black" d="M711.1,-850.7C707.13,-842.98 702.37,-833.71 697.94,-825.11"/>
<polygon fill="black" stroke="black" points="701.17,-823.74 693.49,-816.45 694.95,-826.94 701.17,-823.74"/>
</g>
<!-- c4_exporter_loadbalance -->
<g id="node22" class="node">
<title>c4_exporter_loadbalance</title>
<polygon fill="#ffdddd" stroke="#ffdddd" points="726.88,-743 641.12,-743 641.12,-707 726.88,-707 726.88,-743"/>
<text text-anchor="middle" x="684" y="-721.5" font-family="Arial" font-size="10.00">loadbalancing/l2</text>
</g>
<!-- c4_memory_limiter&#45;&gt;c4_exporter_loadbalance -->
<g id="edge20" class="edge">
<title>c4_memory_limiter&#45;&gt;c4_exporter_loadbalance</title>
<path fill="none" stroke="black" d="M684,-778.7C684,-771.41 684,-762.73 684,-754.54"/>
<polygon fill="black" stroke="black" points="687.5,-754.62 684,-744.62 680.5,-754.62 687.5,-754.62"/>
</g>
<!-- c5_receiver_otlp -->
<g id="node23" class="node">
<title>c5_receiver_otlp</title>
<polygon fill="#ddddff" stroke="#ddddff" points="711,-671 657,-671 657,-635 711,-635 711,-671"/>
<text text-anchor="middle" x="684" y="-649.5" font-family="Arial" font-size="10.00">otlp/l2</text>
</g>
<!-- c4_exporter_loadbalance&#45;&gt;c5_receiver_otlp -->
<g id="edge21" class="edge">
<title>c4_exporter_loadbalance&#45;&gt;c5_receiver_otlp</title>
<path fill="none" stroke="blue" stroke-dasharray="1,5" d="M684,-706.7C684,-699.41 684,-690.73 684,-682.54"/>
<polygon fill="blue" stroke="blue" points="687.5,-682.62 684,-672.62 680.5,-682.62 687.5,-682.62"/>
</g>
<!-- c5_memory_limiter -->
<g id="node24" class="node">
<title>c5_memory_limiter</title>
<polygon fill="#ddffdd" stroke="#ddffdd" points="725.38,-599 642.62,-599 642.62,-563 725.38,-563 725.38,-599"/>
<text text-anchor="middle" x="684" y="-577.5" font-family="Arial" font-size="10.00">memory_limiter</text>
</g>
<!-- c5_receiver_otlp&#45;&gt;c5_memory_limiter -->
<g id="edge22" class="edge">
<title>c5_receiver_otlp&#45;&gt;c5_memory_limiter</title>
<path fill="none" stroke="black" d="M684,-634.7C684,-627.41 684,-618.73 684,-610.54"/>
<polygon fill="black" stroke="black" points="687.5,-610.62 684,-600.62 680.5,-610.62 687.5,-610.62"/>
</g>
<!-- c5_cumulativetodelta -->
<g id="node25" class="node">
<title>c5_cumulativetodelta</title>
<polygon fill="#ddffdd" stroke="#ddffdd" points="730.25,-527 637.75,-527 637.75,-491 730.25,-491 730.25,-527"/>
<text text-anchor="middle" x="684" y="-505.5" font-family="Arial" font-size="10.00">cumulativetodelta</text>
</g>
<!-- c5_memory_limiter&#45;&gt;c5_cumulativetodelta -->
<g id="edge23" class="edge">
<title>c5_memory_limiter&#45;&gt;c5_cumulativetodelta</title>
<path fill="none" stroke="red" d="M684,-562.7C684,-555.41 684,-546.73 684,-538.54"/>
<polygon fill="red" stroke="red" points="687.5,-538.62 684,-528.62 680.5,-538.62 687.5,-538.62"/>
</g>
<!-- c5_chqdecorator -->
<g id="node26" class="node">
<title>c5_chqdecorator</title>
<polygon fill="#ddffdd" stroke="#ddffdd" points="720.12,-451.25 647.88,-451.25 647.88,-415.25 720.12,-415.25 720.12,-451.25"/>
<text text-anchor="middle" x="684" y="-429.75" font-family="Arial" font-size="10.00">chqdecorator</text>
</g>
<!-- c5_cumulativetodelta&#45;&gt;c5_chqdecorator -->
<g id="edge24" class="edge">
<title>c5_cumulativetodelta&#45;&gt;c5_chqdecorator</title>
<path fill="none" stroke="red" d="M684,-490.52C684,-482.26 684,-472.17 684,-462.84"/>
<polygon fill="red" stroke="red" points="687.5,-463.12 684,-453.12 680.5,-463.12 687.5,-463.12"/>
</g>
<!-- c5_forwarder_cardinalhq -->
<g id="node27" class="node">
<title>c5_forwarder_cardinalhq</title>
<polygon fill="#ffdddd" stroke="#ffdddd" points="567.75,-379.25 472.25,-379.25 472.25,-343.25 567.75,-343.25 567.75,-379.25"/>
<text text-anchor="middle" x="520" y="-357.75" font-family="Arial" font-size="10.00">forward/cardinalhq</text>
</g>
<!-- c5_chqdecorator&#45;&gt;c5_forwarder_cardinalhq -->
<g id="edge25" class="edge">
<title>c5_chqdecorator&#45;&gt;c5_forwarder_cardinalhq</title>
<path fill="none" stroke="black" d="M647.6,-416.71C625.14,-407.13 595.99,-394.69 571.22,-384.11"/>
<polygon fill="black" stroke="black" points="572.87,-381.01 562.3,-380.31 570.12,-387.45 572.87,-381.01"/>
</g>
<!-- c5_forwarder_datadog -->
<g id="node28" class="node">
<title>c5_forwarder_datadog</title>
<polygon fill="#ffdddd" stroke="#ffdddd" points="671.88,-379.25 586.12,-379.25 586.12,-343.25 671.88,-343.25 671.88,-379.25"/>
<text text-anchor="middle" x="629" y="-357.75" font-family="Arial" font-size="10.00">forward/datadog</text>
</g>
<!-- c5_chqdecorator&#45;&gt;c5_forwarder_datadog -->
<g id="edge26" class="edge">
<title>c5_chqdecorator&#45;&gt;c5_forwarder_datadog</title>
<path fill="none" stroke="black" d="M670.4,-414.95C664.08,-406.89 656.42,-397.14 649.41,-388.23"/>
<polygon fill="black" stroke="black" points="652.3,-386.25 643.37,-380.54 646.8,-390.57 652.3,-386.25"/>
</g>
<!-- c5_forwarder_stats -->
<g id="node29" class="node">
<title>c5_forwarder_stats</title>
<polygon fill="#ffdddd" stroke="#ffdddd" points="789.62,-379.25 690.38,-379.25 690.38,-343.25 789.62,-343.25 789.62,-379.25"/>
<text text-anchor="middle" x="740" y="-357.75" font-family="Arial" font-size="10.00">forward/intakestats</text>
</g>
<!-- c5_chqdecorator&#45;&gt;c5_forwarder_stats -->
<g id="edge27" class="edge">
<title>c5_chqdecorator&#45;&gt;c5_forwarder_stats</title>
<path fill="none" stroke="black" d="M697.84,-414.95C704.29,-406.89 712.08,-397.14 719.21,-388.23"/>
<polygon fill="black" stroke="black" points="721.86,-390.53 725.37,-380.54 716.39,-386.16 721.86,-390.53"/>
</g>
<!-- c5_chqs3 -->
<g id="node30" class="node">
<title>c5_chqs3</title>
<polygon fill="#ffdddd" stroke="#ffdddd" points="862,-379.25 808,-379.25 808,-343.25 862,-343.25 862,-379.25"/>
<text text-anchor="middle" x="835" y="-357.75" font-family="Arial" font-size="10.00">chqs3</text>
</g>
<!-- c5_chqdecorator&#45;&gt;c5_chqs3 -->
<g id="edge28" class="edge">
<title>c5_chqdecorator&#45;&gt;c5_chqs3</title>
<path fill="none" stroke="black" d="M720.55,-415.51C740.97,-406.14 767.08,-394.11 797.77,-379.81"/>
<polygon fill="black" stroke="black" points="798.93,-383.13 806.51,-375.73 795.97,-376.78 798.93,-383.13"/>
</g>
<!-- c6_forwarder_cardinalhq -->
<g id="node31" class="node">
<title>c6_forwarder_cardinalhq</title>
<polygon fill="#ddddff" stroke="#ddddff" points="540.75,-295.5 445.25,-295.5 445.25,-259.5 540.75,-259.5 540.75,-295.5"/>
<text text-anchor="middle" x="493" y="-274" font-family="Arial" font-size="10.00">forward/cardinalhq</text>
</g>
<!-- c5_forwarder_cardinalhq&#45;&gt;c6_forwarder_cardinalhq -->
<g id="edge29" class="edge">
<title>c5_forwarder_cardinalhq&#45;&gt;c6_forwarder_cardinalhq</title>
<path fill="none" stroke="black" stroke-dasharray="5,2" d="M514.27,-342.91C510.8,-332.4 506.29,-318.73 502.31,-306.7"/>
<polygon fill="black" stroke="black" points="505.65,-305.65 499.19,-297.25 499.01,-307.84 505.65,-305.65"/>
</g>
<!-- c7_forwarder_datadog -->
<g id="node35" class="node">
<title>c7_forwarder_datadog</title>
<polygon fill="#ddddff" stroke="#ddddff" points="671.88,-295.5 586.12,-295.5 586.12,-259.5 671.88,-259.5 671.88,-295.5"/>
<text text-anchor="middle" x="629" y="-274" font-family="Arial" font-size="10.00">forward/datadog</text>
</g>
<!-- c5_forwarder_datadog&#45;&gt;c7_forwarder_datadog -->
<g id="edge33" class="edge">
<title>c5_forwarder_datadog&#45;&gt;c7_forwarder_datadog</title>
<path fill="none" stroke="black" stroke-dasharray="5,2" d="M629,-342.91C629,-332.51 629,-319.02 629,-307.07"/>
<polygon fill="black" stroke="black" points="632.5,-307.33 629,-297.33 625.5,-307.33 632.5,-307.33"/>
</g>
<!-- c8_forwarder_stats -->
<g id="node39" class="node">
<title>c8_forwarder_stats</title>
<polygon fill="#ddddff" stroke="#ddddff" points="814.62,-295.5 715.38,-295.5 715.38,-259.5 814.62,-259.5 814.62,-295.5"/>
<text text-anchor="middle" x="765" y="-274" font-family="Arial" font-size="10.00">forward/intakestats</text>
</g>
<!-- c5_forwarder_stats&#45;&gt;c8_forwarder_stats -->
<g id="edge37" class="edge">
<title>c5_forwarder_stats&#45;&gt;c8_forwarder_stats</title>
<path fill="none" stroke="black" stroke-dasharray="5,2" d="M745.3,-342.91C748.52,-332.4 752.7,-318.73 756.38,-306.7"/>
<polygon fill="black" stroke="black" points="759.69,-307.85 759.26,-297.26 752.99,-305.8 759.69,-307.85"/>
</g>
<!-- c6_chqenforcer_cardinalhq -->
<g id="node32" class="node">
<title>c6_chqenforcer_cardinalhq</title>
<polygon fill="#ddffdd" stroke="#ddffdd" points="546.12,-223.5 431.88,-223.5 431.88,-187.5 546.12,-187.5 546.12,-223.5"/>
<text text-anchor="middle" x="489" y="-202" font-family="Arial" font-size="10.00">chqenforcer/cardinalhq</text>
</g>
<!-- c6_forwarder_cardinalhq&#45;&gt;c6_chqenforcer_cardinalhq -->
<g id="edge30" class="edge">
<title>c6_forwarder_cardinalhq&#45;&gt;c6_chqenforcer_cardinalhq</title>
<path fill="none" stroke="red" d="M492.01,-259.2C491.59,-251.91 491.1,-243.23 490.63,-235.04"/>
<polygon fill="red" stroke="red" points="494.13,-234.9 490.06,-225.12 487.14,-235.3 494.13,-234.9"/>
</g>
<!-- c6_batcher_cardinalhq -->
<g id="node33" class="node">
<title>c6_batcher_cardinalhq</title>
<polygon fill="#ddffdd" stroke="#ddffdd" points="532.62,-147.75 445.38,-147.75 445.38,-111.75 532.62,-111.75 532.62,-147.75"/>
<text text-anchor="middle" x="489" y="-126.25" font-family="Arial" font-size="10.00">batch/cardinalhq</text>
</g>
<!-- c6_chqenforcer_cardinalhq&#45;&gt;c6_batcher_cardinalhq -->
<g id="edge31" class="edge">
<title>c6_chqenforcer_cardinalhq&#45;&gt;c6_batcher_cardinalhq</title>
<path fill="none" stroke="red" d="M489,-187.02C489,-178.76 489,-168.67 489,-159.34"/>
<polygon fill="red" stroke="red" points="492.5,-159.62 489,-149.62 485.5,-159.62 492.5,-159.62"/>
</g>
<!-- c6_otlp_cardinalhq -->
<g id="node34" class="node">
<title>c6_otlp_cardinalhq</title>
<polygon fill="#ffdddd" stroke="#ffdddd" points="528.5,-75.75 449.5,-75.75 449.5,-39.75 528.5,-39.75 528.5,-75.75"/>
<text text-anchor="middle" x="489" y="-54.25" font-family="Arial" font-size="10.00">otlp/cardinalhq</text>
</g>
<!-- c6_batcher_cardinalhq&#45;&gt;c6_otlp_cardinalhq -->
<g id="edge32" class="edge">
<title>c6_batcher_cardinalhq&#45;&gt;c6_otlp_cardinalhq</title>
<path fill="none" stroke="black" d="M489,-111.45C489,-104.16 489,-95.48 489,-87.29"/>
<polygon fill="black" stroke="black" points="492.5,-87.37 489,-77.37 485.5,-87.37 492.5,-87.37"/>
</g>
<!-- c7_chqenforcer_datadog -->
<g id="node36" class="node">
<title>c7_chqenforcer_datadog</title>
<polygon fill="#ddffdd" stroke="#ddffdd" points="681.25,-223.5 576.75,-223.5 576.75,-187.5 681.25,-187.5 681.25,-223.5"/>
<text text-anchor="middle" x="629" y="-202" font-family="Arial" font-size="10.00">chqenforcer/datadog</text>
</g>
<!-- c7_forwarder_datadog&#45;&gt;c7_chqenforcer_datadog -->
<g id="edge34" class="edge">
<title>c7_forwarder_datadog&#45;&gt;c7_chqenforcer_datadog</title>
<path fill="none" stroke="red" d="M629,-259.2C629,-251.91 629,-243.23 629,-235.04"/>
<polygon fill="red" stroke="red" points="632.5,-235.12 629,-225.12 625.5,-235.12 632.5,-235.12"/>
</g>
<!-- c7_batcher_datadog -->
<g id="node37" class="node">
<title>c7_batcher_datadog</title>
<polygon fill="#ddffdd" stroke="#ddffdd" points="671.88,-147.75 586.12,-147.75 586.12,-111.75 671.88,-111.75 671.88,-147.75"/>
<text text-anchor="middle" x="629" y="-126.25" font-family="Arial" font-size="10.00">batcher/datadog</text>
</g>
<!-- c7_chqenforcer_datadog&#45;&gt;c7_batcher_datadog -->
<g id="edge35" class="edge">
<title>c7_chqenforcer_datadog&#45;&gt;c7_batcher_datadog</title>
<path fill="none" stroke="red" d="M629,-187.02C629,-178.76 629,-168.67 629,-159.34"/>
<polygon fill="red" stroke="red" points="632.5,-159.62 629,-149.62 625.5,-159.62 632.5,-159.62"/>
</g>
<!-- c7_chqdatadog_datadog -->
<g id="node38" class="node">
<title>c7_chqdatadog_datadog</title>
<polygon fill="#ffdddd" stroke="#ffdddd" points="680.88,-75.75 577.12,-75.75 577.12,-39.75 680.88,-39.75 680.88,-75.75"/>
<text text-anchor="middle" x="629" y="-54.25" font-family="Arial" font-size="10.00">chqdatadog/datadog</text>
</g>
<!-- c7_batcher_datadog&#45;&gt;c7_chqdatadog_datadog -->
<g id="edge36" class="edge">
<title>c7_batcher_datadog&#45;&gt;c7_chqdatadog_datadog</title>
<path fill="none" stroke="black" d="M629,-111.45C629,-104.16 629,-95.48 629,-87.29"/>
<polygon fill="black" stroke="black" points="632.5,-87.37 629,-77.37 625.5,-87.37 632.5,-87.37"/>
</g>
<!-- c8_chqenforcer_stats -->
<g id="node40" class="node">
<title>c8_chqenforcer_stats</title>
<polygon fill="#ddffdd" stroke="#ddffdd" points="829,-223.5 711,-223.5 711,-187.5 829,-187.5 829,-223.5"/>
<text text-anchor="middle" x="770" y="-202" font-family="Arial" font-size="10.00">chqenforcer/intakestats</text>
</g>
<!-- c8_forwarder_stats&#45;&gt;c8_chqenforcer_stats -->
<g id="edge38" class="edge">
<title>c8_forwarder_stats&#45;&gt;c8_chqenforcer_stats</title>
<path fill="none" stroke="red" d="M766.24,-259.2C766.76,-251.91 767.38,-243.23 767.96,-235.04"/>
<polygon fill="red" stroke="red" points="771.45,-235.34 768.67,-225.11 764.47,-234.84 771.45,-235.34"/>
</g>
<!-- c8_receiver_otlp -->
<g id="node41" class="node">
<title>c8_receiver_otlp</title>
<polygon fill="#ddddff" stroke="#ddddff" points="1119,-887 1065,-887 1065,-851 1119,-851 1119,-887"/>
<text text-anchor="middle" x="1092" y="-865.5" font-family="Arial" font-size="10.00">otlp/l1</text>
</g>
<!-- c8_memory_limiter -->
<g id="node43" class="node">
<title>c8_memory_limiter</title>
<polygon fill="#ddffdd" stroke="#ddffdd" points="1180.38,-815 1097.62,-815 1097.62,-779 1180.38,-779 1180.38,-815"/>
<text text-anchor="middle" x="1139" y="-793.5" font-family="Arial" font-size="10.00">memory_limiter</text>
</g>
<!-- c8_receiver_otlp&#45;&gt;c8_memory_limiter -->
<g id="edge40" class="edge">
<title>c8_receiver_otlp&#45;&gt;c8_memory_limiter</title>
<path fill="none" stroke="black" d="M1103.62,-850.7C1108.91,-842.81 1115.3,-833.3 1121.18,-824.55"/>
<polygon fill="black" stroke="black" points="1124,-826.61 1126.67,-816.36 1118.19,-822.71 1124,-826.61"/>
</g>
<!-- c8_receiver_datadog -->
<g id="node42" class="node">
<title>c8_receiver_datadog</title>
<polygon fill="#ddddff" stroke="#ddddff" points="1213.38,-887 1136.62,-887 1136.62,-851 1213.38,-851 1213.38,-887"/>
<text text-anchor="middle" x="1175" y="-865.5" font-family="Arial" font-size="10.00">chqdatadog/l1</text>
</g>
<!-- c8_receiver_datadog&#45;&gt;c8_memory_limiter -->
<g id="edge39" class="edge">
<title>c8_receiver_datadog&#45;&gt;c8_memory_limiter</title>
<path fill="none" stroke="black" d="M1166.1,-850.7C1162.13,-842.98 1157.37,-833.71 1152.94,-825.11"/>
<polygon fill="black" stroke="black" points="1156.17,-823.74 1148.49,-816.45 1149.95,-826.94 1156.17,-823.74"/>
</g>
<!-- c8_exporter_loadbalance -->
<g id="node44" class="node">
<title>c8_exporter_loadbalance</title>
<polygon fill="#ffdddd" stroke="#ffdddd" points="1181.88,-743 1096.12,-743 1096.12,-707 1181.88,-707 1181.88,-743"/>
<text text-anchor="middle" x="1139" y="-721.5" font-family="Arial" font-size="10.00">loadbalancing/l2</text>
</g>
<!-- c8_memory_limiter&#45;&gt;c8_exporter_loadbalance -->
<g id="edge41" class="edge">
<title>c8_memory_limiter&#45;&gt;c8_exporter_loadbalance</title>
<path fill="none" stroke="black" d="M1139,-778.7C1139,-771.41 1139,-762.73 1139,-754.54"/>
<polygon fill="black" stroke="black" points="1142.5,-754.62 1139,-744.62 1135.5,-754.62 1142.5,-754.62"/>
</g>
<!-- c9_receiver_otlp -->
<g id="node45" class="node">
<title>c9_receiver_otlp</title>
<polygon fill="#ddddff" stroke="#ddddff" points="1166,-671 1112,-671 1112,-635 1166,-635 1166,-671"/>
<text text-anchor="middle" x="1139" y="-649.5" font-family="Arial" font-size="10.00">otlp/l2</text>
</g>
<!-- c8_exporter_loadbalance&#45;&gt;c9_receiver_otlp -->
<g id="edge42" class="edge">
<title>c8_exporter_loadbalance&#45;&gt;c9_receiver_otlp</title>
<path fill="none" stroke="blue" stroke-dasharray="1,5" d="M1139,-706.7C1139,-699.41 1139,-690.73 1139,-682.54"/>
<polygon fill="blue" stroke="blue" points="1142.5,-682.62 1139,-672.62 1135.5,-682.62 1142.5,-682.62"/>
</g>
<!-- c9_memory_limiter -->
<g id="node46" class="node">
<title>c9_memory_limiter</title>
<polygon fill="#ddffdd" stroke="#ddffdd" points="1180.38,-599 1097.62,-599 1097.62,-563 1180.38,-563 1180.38,-599"/>
<text text-anchor="middle" x="1139" y="-577.5" font-family="Arial" font-size="10.00">memory_limiter</text>
</g>
<!-- c9_receiver_otlp&#45;&gt;c9_memory_limiter -->
<g id="edge43" class="edge">
<title>c9_receiver_otlp&#45;&gt;c9_memory_limiter</title>
<path fill="none" stroke="black" d="M1139,-634.7C1139,-627.41 1139,-618.73 1139,-610.54"/>
<polygon fill="black" stroke="black" points="1142.5,-610.62 1139,-600.62 1135.5,-610.62 1142.5,-610.62"/>
</g>
<!-- c9_groupbytrace -->
<g id="node47" class="node">
<title>c9_groupbytrace</title>
<polygon fill="#ddffdd" stroke="#ddffdd" points="1175.12,-527 1102.88,-527 1102.88,-491 1175.12,-491 1175.12,-527"/>
<text text-anchor="middle" x="1139" y="-505.5" font-family="Arial" font-size="10.00">groupbytrace</text>
</g>
<!-- c9_memory_limiter&#45;&gt;c9_groupbytrace -->
<g id="edge44" class="edge">
<title>c9_memory_limiter&#45;&gt;c9_groupbytrace</title>
<path fill="none" stroke="red" d="M1139,-562.7C1139,-555.41 1139,-546.73 1139,-538.54"/>
<polygon fill="red" stroke="red" points="1142.5,-538.62 1139,-528.62 1135.5,-538.62 1142.5,-538.62"/>
</g>
<!-- c9_chqdecorator -->
<g id="node48" class="node">
<title>c9_chqdecorator</title>
<polygon fill="#ddffdd" stroke="#ddffdd" points="1175.12,-451.25 1102.88,-451.25 1102.88,-415.25 1175.12,-415.25 1175.12,-451.25"/>
<text text-anchor="middle" x="1139" y="-429.75" font-family="Arial" font-size="10.00">chqdecorator</text>
</g>
<!-- c9_groupbytrace&#45;&gt;c9_chqdecorator -->
<g id="edge45" class="edge">
<title>c9_groupbytrace&#45;&gt;c9_chqdecorator</title>
<path fill="none" stroke="red" d="M1139,-490.52C1139,-482.26 1139,-472.17 1139,-462.84"/>
<polygon fill="red" stroke="red" points="1142.5,-463.12 1139,-453.12 1135.5,-463.12 1142.5,-463.12"/>
</g>
<!-- c9_forwarder_cardinalhq -->
<g id="node49" class="node">
<title>c9_forwarder_cardinalhq</title>
<polygon fill="#ffdddd" stroke="#ffdddd" points="1022.75,-379.25 927.25,-379.25 927.25,-343.25 1022.75,-343.25 1022.75,-379.25"/>
<text text-anchor="middle" x="975" y="-357.75" font-family="Arial" font-size="10.00">forward/cardinalhq</text>
</g>
<!-- c9_chqdecorator&#45;&gt;c9_forwarder_cardinalhq -->
<g id="edge46" class="edge">
<title>c9_chqdecorator&#45;&gt;c9_forwarder_cardinalhq</title>
<path fill="none" stroke="black" d="M1102.6,-416.71C1080.14,-407.13 1050.99,-394.69 1026.22,-384.11"/>
<polygon fill="black" stroke="black" points="1027.87,-381.01 1017.3,-380.31 1025.12,-387.45 1027.87,-381.01"/>
</g>
<!-- c9_forwarder_datadog -->
<g id="node50" class="node">
<title>c9_forwarder_datadog</title>
<polygon fill="#ffdddd" stroke="#ffdddd" points="1126.88,-379.25 1041.12,-379.25 1041.12,-343.25 1126.88,-343.25 1126.88,-379.25"/>
<text text-anchor="middle" x="1084" y="-357.75" font-family="Arial" font-size="10.00">forward/datadog</text>
</g>
<!-- c9_chqdecorator&#45;&gt;c9_forwarder_datadog -->
<g id="edge47" class="edge">
<title>c9_chqdecorator&#45;&gt;c9_forwarder_datadog</title>
<path fill="none" stroke="black" d="M1125.4,-414.95C1119.08,-406.89 1111.42,-397.14 1104.41,-388.23"/>
<polygon fill="black" stroke="black" points="1107.3,-386.25 1098.37,-380.54 1101.8,-390.57 1107.3,-386.25"/>
</g>
<!-- c9_forwarder_stats -->
<g id="node51" class="node">
<title>c9_forwarder_stats</title>
<polygon fill="#ffdddd" stroke="#ffdddd" points="1244.62,-379.25 1145.38,-379.25 1145.38,-343.25 1244.62,-343.25 1244.62,-379.25"/>
<text text-anchor="middle" x="1195" y="-357.75" font-family="Arial" font-size="10.00">forward/intakestats</text>
</g>
<!-- c9_chqdecorator&#45;&gt;c9_forwarder_stats -->
<g id="edge48" class="edge">
<title>c9_chqdecorator&#45;&gt;c9_forwarder_stats</title>
<path fill="none" stroke="black" d="M1152.84,-414.95C1159.29,-406.89 1167.08,-397.14 1174.21,-388.23"/>
<polygon fill="black" stroke="black" points="1176.86,-390.53 1180.37,-380.54 1171.39,-386.16 1176.86,-390.53"/>
</g>
<!-- c9_chqs3 -->
<g id="node52" class="node">
<title>c9_chqs3</title>
<polygon fill="#ffdddd" stroke="#ffdddd" points="1317,-379.25 1263,-379.25 1263,-343.25 1317,-343.25 1317,-379.25"/>
<text text-anchor="middle" x="1290" y="-357.75" font-family="Arial" font-size="10.00">chqs3</text>
</g>
<!-- c9_chqdecorator&#45;&gt;c9_chqs3 -->
<g id="edge49" class="edge">
<title>c9_chqdecorator&#45;&gt;c9_chqs3</title>
<path fill="none" stroke="black" d="M1175.55,-415.51C1195.97,-406.14 1222.08,-394.11 1252.77,-379.81"/>
<polygon fill="black" stroke="black" points="1253.93,-383.13 1261.51,-375.73 1250.97,-376.78 1253.93,-383.13"/>
</g>
<!-- c10_forwarder_cardinalhq -->
<g id="node53" class="node">
<title>c10_forwarder_cardinalhq</title>
<polygon fill="#ddddff" stroke="#ddddff" points="999.75,-295.5 904.25,-295.5 904.25,-259.5 999.75,-259.5 999.75,-295.5"/>
<text text-anchor="middle" x="952" y="-274" font-family="Arial" font-size="10.00">forward/cardinalhq</text>
</g>
<!-- c9_forwarder_cardinalhq&#45;&gt;c10_forwarder_cardinalhq -->
<g id="edge50" class="edge">
<title>c9_forwarder_cardinalhq&#45;&gt;c10_forwarder_cardinalhq</title>
<path fill="none" stroke="black" stroke-dasharray="5,2" d="M970.12,-342.91C967.16,-332.4 963.32,-318.73 959.93,-306.7"/>
<polygon fill="black" stroke="black" points="963.36,-305.95 957.28,-297.27 956.62,-307.84 963.36,-305.95"/>
</g>
<!-- c11_forwarder_datadog -->
<g id="node57" class="node">
<title>c11_forwarder_datadog</title>
<polygon fill="#ddddff" stroke="#ddddff" points="1126.88,-295.5 1041.12,-295.5 1041.12,-259.5 1126.88,-259.5 1126.88,-295.5"/>
<text text-anchor="middle" x="1084" y="-274" font-family="Arial" font-size="10.00">forward/datadog</text>
</g>
<!-- c9_forwarder_datadog&#45;&gt;c11_forwarder_datadog -->
<g id="edge54" class="edge">
<title>c9_forwarder_datadog&#45;&gt;c11_forwarder_datadog</title>
<path fill="none" stroke="black" stroke-dasharray="5,2" d="M1084,-342.91C1084,-332.51 1084,-319.02 1084,-307.07"/>
<polygon fill="black" stroke="black" points="1087.5,-307.33 1084,-297.33 1080.5,-307.33 1087.5,-307.33"/>
</g>
<!-- c12_forwarder_stats -->
<g id="node61" class="node">
<title>c12_forwarder_stats</title>
<polygon fill="#ddddff" stroke="#ddddff" points="1267.62,-295.5 1168.38,-295.5 1168.38,-259.5 1267.62,-259.5 1267.62,-295.5"/>
<text text-anchor="middle" x="1218" y="-274" font-family="Arial" font-size="10.00">forward/intakestats</text>
</g>
<!-- c9_forwarder_stats&#45;&gt;c12_forwarder_stats -->
<g id="edge58" class="edge">
<title>c9_forwarder_stats&#45;&gt;c12_forwarder_stats</title>
<path fill="none" stroke="black" stroke-dasharray="5,2" d="M1199.88,-342.91C1202.84,-332.4 1206.68,-318.73 1210.07,-306.7"/>
<polygon fill="black" stroke="black" points="1213.38,-307.84 1212.72,-297.27 1206.64,-305.95 1213.38,-307.84"/>
</g>
<!-- c10_chqenforcer_cardinalhq -->
<g id="node54" class="node">
<title>c10_chqenforcer_cardinalhq</title>
<polygon fill="#ddffdd" stroke="#ddffdd" points="1005.12,-223.5 890.88,-223.5 890.88,-187.5 1005.12,-187.5 1005.12,-223.5"/>
<text text-anchor="middle" x="948" y="-202" font-family="Arial" font-size="10.00">chqenforcer/cardinalhq</text>
</g>
<!-- c10_forwarder_cardinalhq&#45;&gt;c10_chqenforcer_cardinalhq -->
<g id="edge51" class="edge">
<title>c10_forwarder_cardinalhq&#45;&gt;c10_chqenforcer_cardinalhq</title>
<path fill="none" stroke="red" d="M951.01,-259.2C950.59,-251.91 950.1,-243.23 949.63,-235.04"/>
<polygon fill="red" stroke="red" points="953.13,-234.9 949.06,-225.12 946.14,-235.3 953.13,-234.9"/>
</g>
<!-- c10_batcher_cardinalhq -->
<g id="node55" class="node">
<title>c10_batcher_cardinalhq</title>
<polygon fill="#ddffdd" stroke="#ddffdd" points="991.62,-147.75 904.38,-147.75 904.38,-111.75 991.62,-111.75 991.62,-147.75"/>
<text text-anchor="middle" x="948" y="-126.25" font-family="Arial" font-size="10.00">batch/cardinalhq</text>
</g>
<!-- c10_chqenforcer_cardinalhq&#45;&gt;c10_batcher_cardinalhq -->
<g id="edge52" class="edge">
<title>c10_chqenforcer_cardinalhq&#45;&gt;c10_batcher_cardinalhq</title>
<path fill="none" stroke="red" d="M948,-187.02C948,-178.76 948,-168.67 948,-159.34"/>
<polygon fill="red" stroke="red" points="951.5,-159.62 948,-149.62 944.5,-159.62 951.5,-159.62"/>
</g>
<!-- c10_otlp_cardinalhq -->
<g id="node56" class="node">
<title>c10_otlp_cardinalhq</title>
<polygon fill="#ffdddd" stroke="#ffdddd" points="987.5,-75.75 908.5,-75.75 908.5,-39.75 987.5,-39.75 987.5,-75.75"/>
<text text-anchor="middle" x="948" y="-54.25" font-family="Arial" font-size="10.00">otlp/cardinalhq</text>
</g>
<!-- c10_batcher_cardinalhq&#45;&gt;c10_otlp_cardinalhq -->
<g id="edge53" class="edge">
<title>c10_batcher_cardinalhq&#45;&gt;c10_otlp_cardinalhq</title>
<path fill="none" stroke="black" d="M948,-111.45C948,-104.16 948,-95.48 948,-87.29"/>
<polygon fill="black" stroke="black" points="951.5,-87.37 948,-77.37 944.5,-87.37 951.5,-87.37"/>
</g>
<!-- c11_chqenforcer_datadog -->
<g id="node58" class="node">
<title>c11_chqenforcer_datadog</title>
<polygon fill="#ddffdd" stroke="#ddffdd" points="1136.25,-223.5 1031.75,-223.5 1031.75,-187.5 1136.25,-187.5 1136.25,-223.5"/>
<text text-anchor="middle" x="1084" y="-202" font-family="Arial" font-size="10.00">chqenforcer/datadog</text>
</g>
<!-- c11_forwarder_datadog&#45;&gt;c11_chqenforcer_datadog -->
<g id="edge55" class="edge">
<title>c11_forwarder_datadog&#45;&gt;c11_chqenforcer_datadog</title>
<path fill="none" stroke="red" d="M1084,-259.2C1084,-251.91 1084,-243.23 1084,-235.04"/>
<polygon fill="red" stroke="red" points="1087.5,-235.12 1084,-225.12 1080.5,-235.12 1087.5,-235.12"/>
</g>
<!-- c11_batcher_datadog -->
<g id="node59" class="node">
<title>c11_batcher_datadog</title>
<polygon fill="#ddffdd" stroke="#ddffdd" points="1126.88,-147.75 1041.12,-147.75 1041.12,-111.75 1126.88,-111.75 1126.88,-147.75"/>
<text text-anchor="middle" x="1084" y="-126.25" font-family="Arial" font-size="10.00">batcher/datadog</text>
</g>
<!-- c11_chqenforcer_datadog&#45;&gt;c11_batcher_datadog -->
<g id="edge56" class="edge">
<title>c11_chqenforcer_datadog&#45;&gt;c11_batcher_datadog</title>
<path fill="none" stroke="red" d="M1084,-187.02C1084,-178.76 1084,-168.67 1084,-159.34"/>
<polygon fill="red" stroke="red" points="1087.5,-159.62 1084,-149.62 1080.5,-159.62 1087.5,-159.62"/>
</g>
<!-- c11_chqdatadog_datadog -->
<g id="node60" class="node">
<title>c11_chqdatadog_datadog</title>
<polygon fill="#ffdddd" stroke="#ffdddd" points="1135.88,-75.75 1032.12,-75.75 1032.12,-39.75 1135.88,-39.75 1135.88,-75.75"/>
<text text-anchor="middle" x="1084" y="-54.25" font-family="Arial" font-size="10.00">chqdatadog/datadog</text>
</g>
<!-- c11_batcher_datadog&#45;&gt;c11_chqdatadog_datadog -->
<g id="edge57" class="edge">
<title>c11_batcher_datadog&#45;&gt;c11_chqdatadog_datadog</title>
<path fill="none" stroke="black" d="M1084,-111.45C1084,-104.16 1084,-95.48 1084,-87.29"/>
<polygon fill="black" stroke="black" points="1087.5,-87.37 1084,-77.37 1080.5,-87.37 1087.5,-87.37"/>
</g>
<!-- c12_chqenforcer_stats -->
<g id="node62" class="node">
<title>c12_chqenforcer_stats</title>
<polygon fill="#ddffdd" stroke="#ddffdd" points="1282,-223.5 1164,-223.5 1164,-187.5 1282,-187.5 1282,-223.5"/>
<text text-anchor="middle" x="1223" y="-202" font-family="Arial" font-size="10.00">chqenforcer/intakestats</text>
</g>
<!-- c12_forwarder_stats&#45;&gt;c12_chqenforcer_stats -->
<g id="edge59" class="edge">
<title>c12_forwarder_stats&#45;&gt;c12_chqenforcer_stats</title>
<path fill="none" stroke="red" d="M1219.24,-259.2C1219.76,-251.91 1220.38,-243.23 1220.96,-235.04"/>
<polygon fill="red" stroke="red" points="1224.45,-235.34 1221.67,-225.11 1217.47,-234.84 1224.45,-235.34"/>
</g>
</g>
</svg>
